<?xml version="1.0" encoding="utf-8"?>
<!-- Generator: Adobe Illustrator 25.3.1, SVG Export Plug-In . SVG Version: 6.00 Build 0)  -->
<svg version="1.1" id="Layer_1" xmlns="http://www.w3.org/2000/svg" xmlns:xlink="http://www.w3.org/1999/xlink" x="0px" y="0px"
	 viewBox="0 0 1606 94" style="enable-background:new 0 0 1606 94;" xml:space="preserve">
<style type="text/css">
	.st0{fill:none;}
</style>
<g>
	<path d="M952,82.3L952,82.3z M944.9,79.7v-6.6c0-0.7-0.2-1.4-0.6-1.9c-0.4-0.5-0.9-0.8-1.5-0.8h-25.4c-0.6,0-1.1-0.3-1.4-0.8
		c-0.4-0.5-0.6-1.2-0.6-1.9v-49c0-0.7-0.2-1.4-0.6-1.9c-0.4-0.5-0.9-0.8-1.5-0.8h-17.9c-0.6,0-1.1,0.3-1.5,0.8
		c-0.4,0.5-0.6,1.2-0.6,1.9v6.5c0,0.7,0.2,1.4,0.6,1.9c0.4,0.5,0.9,0.8,1.5,0.8h7.6c0.6,0,1.1,0.3,1.4,0.8c0.4,0.5,0.6,1.1,0.6,1.9
		v37.2c0,0.7-0.2,1.4-0.6,1.9c-0.4,0.5-0.9,0.8-1.4,0.8h-7.6c-0.6,0-1.1,0.2-1.5,0.8c-0.4,0.5-0.6,1.1-0.6,1.9v6.6
		c0,0.7,0.2,1.4,0.6,1.9c0.4,0.5,0.9,0.8,1.5,0.8h47.4c0.6,0,1.1-0.3,1.5-0.8C944.7,81.1,944.9,80.4,944.9,79.7z M857.2,63.7
		c0,2.1-0.5,3.8-1.5,5c-1,1.2-2.2,1.8-3.7,1.8h-20.6c-1.5,0-2.7-0.8-3.7-2.2c-1-1.5-1.5-3.3-1.5-5.5c0-2.1,0.5-3.9,1.5-5.4
		c1-1.5,2.2-2.2,3.7-2.2h24.1c1.1,0,1.7,0.7,1.7,2.2V63.7z M867.4,35.9c0-2.7-0.4-5.2-1.2-7.6s-1.9-4.5-3.3-6.3
		c-1.4-1.8-3-3.2-4.9-4.3c-1.9-1.1-3.9-1.6-6-1.6h-12.9c-0.6,0-1.1,0.4-1.7,1.1c-0.6,0.7-0.9,1.5-0.9,2.2v5.4c0,0.9,0.3,1.6,0.9,2.2
		c0.6,0.6,1.1,1,1.7,1H852c1.5,0,2.7,0.8,3.7,2.2c1,1.5,1.5,3.3,1.5,5.4v5.1c0,1.5-0.6,2.2-1.7,2.2h-24c-2.1,0-4.1,0.5-6,1.6
		c-1.9,1.1-3.5,2.5-4.9,4.3c-1.4,1.8-2.5,3.9-3.3,6.3c-0.8,2.4-1.2,4.9-1.2,7.6c0,2.7,0.4,5.3,1.2,7.6c0.8,2.4,1.9,4.4,3.3,6.2
		c1.4,1.8,3,3.2,4.9,4.2c1.9,1,3.9,1.5,6,1.5H852c2.1,0,4.1-0.5,6-1.4c1.9-0.9,3.5-2.2,4.9-3.9c1.4-1.7,2.5-3.6,3.3-5.9
		c0.8-2.3,1.2-4.8,1.2-7.5V35.9z M796.5,79.7v-44c0-2.7-0.4-5.3-1.2-7.6c-0.8-2.4-1.9-4.4-3.3-6.2c-1.4-1.8-3-3.2-4.9-4.2
		c-1.9-1-3.9-1.5-6-1.5h-20.7c-2.1,0-4.1,0.5-6,1.5c-1.9,1-3.5,2.4-4.9,4.1c-1.4,1.7-2.5,3.8-3.3,6.1c-0.8,2.4-1.2,4.9-1.2,7.6v44.2
		c0,0.7,0.2,1.4,0.6,1.9c0.4,0.5,0.9,0.8,1.4,0.8h6.2c0.6,0,1-0.3,1.4-0.8c0.4-0.5,0.6-1.2,0.6-1.9V35.6c0-2.1,0.5-3.9,1.5-5.4
		s2.2-2.2,3.6-2.2h20.8c1.4,0,2.6,0.7,3.6,2.2s1.5,3.3,1.5,5.4v44.1c0,0.7,0.2,1.4,0.6,1.9c0.4,0.5,0.9,0.8,1.4,0.8h6.2
		c0.6,0,1-0.3,1.4-0.8C796.4,81.1,796.5,80.4,796.5,79.7z M724.2,79.7v-6.6c0-0.7-0.2-1.4-0.6-1.9c-0.4-0.5-0.9-0.8-1.5-0.8h-16.5
		c-0.6,0-1.1-0.3-1.4-0.8c-0.4-0.5-0.6-1.2-0.6-1.9V30.6c0-0.7,0.2-1.4,0.6-1.9c0.4-0.5,0.9-0.8,1.4-0.8h6.2c0.6,0,1.1-0.3,1.4-0.8
		c0.4-0.5,0.6-1.2,0.6-1.9v-6.5c0-0.7-0.2-1.4-0.6-1.9c-0.4-0.5-0.9-0.8-1.4-0.8h-26.9c-0.6,0-1.1,0.3-1.4,0.8
		c-0.4,0.5-0.6,1.2-0.6,1.9v6.5c0,0.7,0.2,1.4,0.6,1.9c0.4,0.5,0.9,0.8,1.4,0.8h6.2c0.6,0,1.1,0.3,1.4,0.8c0.4,0.5,0.6,1.1,0.6,1.9
		v37.2c0,0.7-0.2,1.4-0.6,1.9c-0.4,0.5-0.9,0.8-1.4,0.8h-16.5c-0.6,0-1.1,0.2-1.5,0.8c-0.4,0.5-0.6,1.1-0.6,1.9v6.6
		c0,0.7,0.2,1.4,0.6,1.9c0.4,0.5,0.9,0.8,1.5,0.8h47.4c0.6,0,1.1-0.3,1.5-0.8C724,81.1,724.2,80.4,724.2,79.7z M651.7,79.7V34.4
		c0-2.7-0.4-5.2-1.2-7.6c-0.8-2.4-1.9-4.5-3.3-6.2c-1.4-1.8-3-3.2-4.9-4.2c-1.9-1-3.9-1.6-6-1.6c-2,0-3.8,0.5-5.6,1.4
		c-1.8,0.9-3.4,2.1-4.7,3.6c-1.3-1.5-2.9-2.8-4.7-3.6c-1.8-0.9-3.7-1.4-5.6-1.4c-2.1,0-4.1,0.5-6,1.6c-1.9,1-3.5,2.4-4.9,4.2
		c-1.4,1.8-2.5,3.9-3.3,6.2s-1.2,4.9-1.2,7.6v45.3c0,0.7,0.2,1.4,0.6,1.9c0.4,0.5,0.9,0.8,1.4,0.8h6.2c0.6,0,1-0.3,1.4-0.8
		c0.4-0.5,0.6-1.2,0.6-1.9V34.4c0-2.1,0.5-4,1.5-5.5s2.2-2.2,3.7-2.2c1.5,0,2.7,0.8,3.7,2.2s1.5,3.3,1.5,5.5v18.8
		c0,0.7,0.2,1.4,0.6,1.9c0.4,0.5,0.9,0.8,1.4,0.8h6.2c0.6,0,1-0.3,1.4-0.8c0.4-0.5,0.6-1.2,0.6-1.9V34.4c0-2.1,0.5-4,1.5-5.5
		s2.3-2.2,3.7-2.2c1.4,0,2.6,0.8,3.6,2.2s1.5,3.3,1.5,5.5v45.3c0,0.7,0.2,1.4,0.6,1.9c0.4,0.5,0.9,0.8,1.4,0.8h6.2
		c0.6,0,1-0.3,1.4-0.8C651.5,81.1,651.7,80.4,651.7,79.7z M581.5,46.5V35.6c0-2.7-0.4-5.2-1.2-7.6c-0.8-2.4-1.9-4.5-3.3-6.2
		c-1.4-1.8-3.1-3.1-4.9-4.2c-1.9-1-3.9-1.5-6-1.5h-20.6c-2.1,0-4.1,0.5-6,1.5c-1.9,1-3.5,2.4-4.9,4.2c-1.4,1.8-2.5,3.8-3.3,6.2
		c-0.8,2.4-1.2,4.9-1.2,7.6v44c0,0.7,0.2,1.4,0.6,1.9c0.4,0.5,0.9,0.8,1.5,0.8h6.2c0.6,0,1.1-0.3,1.5-0.8c0.4-0.5,0.6-1.2,0.6-1.9
		V35.6c0-2.1,0.5-3.9,1.5-5.4c1-1.5,2.2-2.2,3.7-2.2H566c1.4,0,2.6,0.7,3.6,2.2c1,1.5,1.5,3.3,1.5,5.4v10.9c0,0.7,0.2,1.4,0.6,1.9
		c0.4,0.5,0.9,0.8,1.5,0.8h6.2c0.6,0,1.1-0.3,1.5-0.8C581.3,47.9,581.5,47.2,581.5,46.5z M496.2,41.1c-1,1.5-2.2,2.2-3.6,2.2h-23.8
		c-0.6,0-1.1-0.3-1.4-0.8c-0.4-0.5-0.6-1.1-0.6-1.9v-5c0-2.1,0.5-4,1.5-5.4c1-1.5,2.2-2.2,3.7-2.2h20.6c1.4,0,2.6,0.7,3.6,2.2
		s1.5,3.3,1.5,5.4S497.2,39.6,496.2,41.1z M506.9,28.1c-0.8-2.4-1.9-4.5-3.3-6.2c-1.4-1.8-3.1-3.2-4.9-4.2c-1.9-1-3.9-1.5-6-1.5
		h-20.6c-2.1,0-4.1,0.5-6,1.5c-1.9,1-3.5,2.4-4.9,4.2c-1.4,1.8-2.5,3.8-3.3,6.2c-0.8,2.4-1.2,4.9-1.2,7.6v27.2
		c0,2.7,0.4,5.3,1.2,7.6c0.8,2.4,1.9,4.4,3.3,6.1c1.4,1.7,3.1,3.1,4.9,4.2c1.9,1,3.9,1.5,6,1.5h23.8c0.6,0,1.1-0.3,1.4-0.8
		c0.4-0.5,0.6-1.2,0.6-1.9v-6.6c0-0.7-0.2-1.4-0.6-1.9c-0.4-0.5-0.9-0.8-1.4-0.8h-23.8c-1.5,0-2.7-0.7-3.7-2.2
		c-1-1.5-1.5-3.3-1.5-5.4v-5c0-0.7,0.2-1.4,0.6-1.9c0.4-0.5,0.9-0.8,1.4-0.8h23.8c2.1,0,4.1-0.5,6-1.5c1.9-1,3.5-2.4,4.9-4.1
		c1.4-1.7,2.5-3.8,3.3-6.1c0.8-2.4,1.2-4.9,1.2-7.7C508.1,33,507.7,30.5,506.9,28.1z M435.5,35.7V18.8c0-0.7-0.2-1.4-0.6-1.9
		c-0.4-0.5-0.9-0.8-1.5-0.8h-49.5c-0.6,0-1.1,0.3-1.5,0.8c-0.4,0.5-0.6,1.2-0.6,1.9v16.9c0,0.7,0.2,1.4,0.6,1.9
		c0.4,0.5,0.9,0.8,1.5,0.8h5.5c0.6,0,1.1-0.3,1.4-0.8c0.4-0.5,0.6-1.2,0.6-1.9v-5.1c0-0.7,0.2-1.4,0.6-1.9c0.4-0.5,0.9-0.8,1.5-0.8
		h7.9c0.6,0,1.1,0.3,1.4,0.8c0.4,0.5,0.6,1.1,0.6,1.9v37.2c0,0.7-0.2,1.4-0.6,1.9c-0.4,0.5-0.9,0.8-1.4,0.8h-6.2
		c-0.6,0-1.1,0.2-1.4,0.8s-0.6,1.1-0.6,1.9v6.6c0,0.7,0.2,1.4,0.6,1.9c0.4,0.5,0.9,0.8,1.4,0.8H422c0.6,0,1.1-0.3,1.4-0.8
		c0.4-0.5,0.6-1.2,0.6-1.9v-6.6c0-0.7-0.2-1.4-0.6-1.9s-0.9-0.8-1.4-0.8h-6.2c-0.6,0-1.1-0.3-1.4-0.8c-0.4-0.5-0.6-1.2-0.6-1.9V30.6
		c0-0.7,0.2-1.4,0.6-1.9c0.4-0.5,0.9-0.8,1.4-0.8h8c0.6,0,1.1,0.2,1.4,0.8c0.4,0.5,0.6,1.1,0.6,1.9v5.1c0,0.7,0.2,1.4,0.6,1.9
		c0.4,0.5,0.9,0.8,1.5,0.8h5.5c0.6,0,1.1-0.3,1.5-0.8C435.3,37.1,435.5,36.4,435.5,35.7z M344,73c0-0.7-0.2-1.4-0.6-1.9
		c-0.4-0.5-0.9-0.8-1.5-0.8h-11.6c-0.6,0-1.1,0.2-1.5,0.8c-0.4,0.5-0.6,1.1-0.6,1.9v6.7c0,0.7,0.2,1.4,0.6,1.9
		c0.4,0.5,0.9,0.8,1.5,0.8h11.6c0.6,0,1.1-0.2,1.5-0.8c0.4-0.5,0.6-1.1,0.6-1.9V73z M344,46c0-0.7-0.2-1.4-0.6-1.9
		c-0.4-0.5-0.9-0.8-1.5-0.8h-11.6c-0.6,0-1.1,0.3-1.5,0.8c-0.4,0.5-0.6,1.2-0.6,1.9v6.6c0,0.7,0.2,1.3,0.6,1.8
		c0.4,0.5,0.9,0.8,1.5,0.8h11.6c0.6,0,1.1-0.2,1.5-0.8c0.4-0.5,0.6-1.1,0.6-1.8V46z M290.7,36.1V18.8c0-0.7-0.2-1.4-0.6-1.9
		c-0.4-0.5-0.9-0.8-1.5-0.8h-6.2c-0.6,0-1.1,0.3-1.5,0.8c-0.4,0.5-0.6,1.2-0.6,1.9v16.4c0,1.1-0.2,2.2-0.5,3.2
		c-0.3,1-0.8,1.9-1.4,2.7l-20.7,28.1l-0.1,0.1c-1,1.1-2,1.6-3.1,1.6c-1.5,0-2.7-0.7-3.7-2.2c-1-1.5-1.5-3.3-1.5-5.4V18.8
		c0-0.7-0.2-1.4-0.6-1.9c-0.4-0.5-0.9-0.8-1.5-0.8h-6.2c-0.6,0-1.1,0.3-1.5,0.8c-0.4,0.5-0.6,1.2-0.6,1.9v45.4
		c0,2.7,0.4,5.3,1.2,7.7c0.8,2.4,1.9,4.4,3.3,6.2c1.4,1.8,3.1,3.2,4.9,4.2c1.9,1,3.9,1.5,6,1.5c2.1,0,4-0.4,5.9-1.4
		c1.8-0.9,3.4-2.2,4.7-4l20.7-28.6c1.4-1.9,2.5-3.9,3.4-6.2C290.3,41.3,290.7,38.8,290.7,36.1z M219.2,46.5V35.6
		c0-2.7-0.4-5.2-1.2-7.6c-0.8-2.4-1.9-4.5-3.3-6.2c-1.4-1.8-3.1-3.1-4.9-4.2c-1.9-1-3.9-1.5-6-1.5h-20.6c-2.1,0-4.1,0.5-6,1.5
		c-1.9,1-3.5,2.4-4.9,4.2c-1.4,1.8-2.5,3.8-3.3,6.2c-0.8,2.4-1.2,4.9-1.2,7.6v44c0,0.7,0.2,1.4,0.6,1.9c0.4,0.5,0.9,0.8,1.5,0.8h6.2
		c0.6,0,1.1-0.3,1.5-0.8c0.4-0.5,0.6-1.2,0.6-1.9V35.6c0-2.1,0.5-3.9,1.5-5.4c1-1.5,2.2-2.2,3.7-2.2h20.6c1.4,0,2.6,0.7,3.6,2.2
		c1,1.5,1.5,3.3,1.5,5.4v10.9c0,0.7,0.2,1.4,0.6,1.9c0.4,0.5,0.9,0.8,1.5,0.8h6.2c0.6,0,1.1-0.3,1.5-0.8
		C219,47.9,219.2,47.2,219.2,46.5z M134,41.1c-1,1.5-2.2,2.2-3.6,2.2h-23.8c-0.6,0-1.1-0.3-1.4-0.8c-0.4-0.5-0.6-1.1-0.6-1.9v-5
		c0-2.1,0.5-4,1.5-5.4c1-1.5,2.2-2.2,3.7-2.2h20.6c1.4,0,2.6,0.7,3.6,2.2s1.5,3.3,1.5,5.4S135,39.6,134,41.1z M144.6,28.1
		c-0.8-2.4-1.9-4.5-3.3-6.2c-1.4-1.8-3.1-3.2-4.9-4.2c-1.9-1-3.9-1.5-6-1.5h-20.6c-2.1,0-4.1,0.5-6,1.5c-1.9,1-3.5,2.4-4.9,4.2
		c-1.4,1.8-2.5,3.8-3.3,6.2c-0.8,2.4-1.2,4.9-1.2,7.6v27.2c0,2.7,0.4,5.3,1.2,7.6c0.8,2.4,1.9,4.4,3.3,6.1c1.4,1.7,3.1,3.1,4.9,4.2
		c1.9,1,3.9,1.5,6,1.5h23.8c0.6,0,1.1-0.3,1.4-0.8c0.4-0.5,0.6-1.2,0.6-1.9v-6.6c0-0.7-0.2-1.4-0.6-1.9c-0.4-0.5-0.9-0.8-1.4-0.8
		h-23.8c-1.5,0-2.7-0.7-3.7-2.2c-1-1.5-1.5-3.3-1.5-5.4v-5c0-0.7,0.2-1.4,0.6-1.9c0.4-0.5,0.9-0.8,1.4-0.8h23.8c2.1,0,4.1-0.5,6-1.5
		c1.9-1,3.5-2.4,4.9-4.1c1.4-1.7,2.5-3.8,3.3-6.1c0.8-2.4,1.2-4.9,1.2-7.7C145.9,33,145.5,30.5,144.6,28.1z M72.1,79.7V18.8
		c0-0.7-0.2-1.4-0.6-1.9c-0.4-0.5-0.9-0.8-1.4-0.8h-6.2c-0.6,0-1,0.3-1.4,0.8c-0.4,0.5-0.6,1.2-0.6,1.9v42.9l-30-44.6
		c-0.5-0.7-1.1-1-1.6-1h-7.6c-0.6,0-1,0.3-1.4,0.8c-0.4,0.5-0.6,1.2-0.6,1.9v60.9c0,0.7,0.2,1.4,0.6,1.9c0.4,0.5,0.9,0.8,1.4,0.8
		h6.2c0.6,0,1-0.3,1.4-0.8c0.4-0.5,0.6-1.2,0.6-1.9V35.9l30.8,45.6c0.4,0.6,0.9,0.9,1.5,0.9h7c0.6,0,1-0.3,1.4-0.8
		C71.9,81.1,72.1,80.4,72.1,79.7z"/>
</g>
<polygon class="st0" points="1022,65 1029,65 1029,65 "/>
</svg>
