<?xml version="1.0" encoding="iso-8859-1"?>
<!-- Generator: Adobe Illustrator 25.3.1, SVG Export Plug-In . SVG Version: 6.00 Build 0)  -->
<svg version="1.1" id="Layer_1" xmlns="http://www.w3.org/2000/svg" xmlns:xlink="http://www.w3.org/1999/xlink" x="0px" y="0px"
	 viewBox="0 0 1606 94" style="enable-background:new 0 0 1606 94;" xml:space="preserve">
<g>
	<path d="M1596.909,59.729c0,2.365-0.207,4.176-0.62,5.433c-0.414,1.257-0.926,1.885-1.536,1.885h-8.623
		c-0.609,0-1.122-0.628-1.535-1.885c-0.414-1.257-0.62-3.067-0.62-5.433V43.541c0-2.365,0.206-4.176,0.62-5.433
		c0.413-1.257,0.926-1.885,1.535-1.885h10.061c0.479,0,0.719,0.813,0.719,2.439V59.729z M1601.178,9.708
		c0-0.81-0.092-1.472-0.275-1.988c-0.183-0.515-0.394-0.773-0.63-0.773h-2.49c-0.237,0-0.442,0.259-0.614,0.773
		c-0.173,0.516-0.259,1.179-0.259,1.988v13.368h-10.752c-0.891,0-1.727,0.516-2.509,1.547c-0.782,1.032-1.467,2.449-2.053,4.253
		c-0.587,1.806-1.048,3.96-1.385,6.463c-0.337,2.505-0.505,5.23-0.505,8.176v16.019c0,3.021,0.168,5.783,0.504,8.286
		c0.336,2.505,0.797,4.679,1.383,6.519c0.585,1.842,1.269,3.278,2.05,4.309c0.78,1.032,1.615,1.547,2.505,1.547h8.589
		c0.889,0,1.724-0.515,2.505-1.547c0.78-1.03,1.464-2.467,2.049-4.309c0.586-1.84,1.047-4.014,1.383-6.519
		c0.336-2.503,0.505-5.265,0.505-8.286V9.708z M1572.767,77.211V69.92c0-0.81-0.087-1.491-0.261-2.044s-0.38-0.829-0.619-0.829
		h-10.622c-0.239,0-0.439-0.293-0.603-0.884c-0.163-0.588-0.244-1.287-0.244-2.099V9.929c0-0.81-0.087-1.509-0.261-2.099
		c-0.174-0.589-0.38-0.884-0.619-0.884h-7.494c-0.239,0-0.445,0.293-0.619,0.877s-0.261,1.277-0.261,2.082v7.229
		c0,0.805,0.087,1.5,0.261,2.084s0.38,0.875,0.619,0.875h3.193c0.239,0,0.439,0.278,0.603,0.831
		c0.163,0.554,0.244,1.237,0.244,2.049v41.085c0,0.812-0.081,1.514-0.244,2.104c-0.163,0.59-0.363,0.885-0.603,0.885h-3.193
		c-0.239,0-0.445,0.276-0.619,0.829s-0.261,1.234-0.261,2.044v7.291c0,0.812,0.087,1.511,0.261,2.1
		c0.174,0.59,0.38,0.884,0.619,0.884h19.843c0.239,0,0.445-0.294,0.619-0.884C1572.68,78.722,1572.767,78.022,1572.767,77.211z
		 M1541.943,40.532V28.49c0-2.945-0.168-5.738-0.505-8.379s-0.798-4.928-1.385-6.865c-0.587-1.935-1.276-3.468-2.069-4.6
		c-0.793-1.133-1.635-1.699-2.524-1.699h-8.635c-0.891,0-1.732,0.571-2.525,1.712c-0.793,1.143-1.482,2.689-2.068,4.64
		c-0.587,1.952-1.049,4.253-1.385,6.905c-0.337,2.652-0.505,5.452-0.505,8.396v48.611c0,0.812,0.086,1.511,0.261,2.1
		c0.173,0.59,0.379,0.884,0.618,0.884h2.574c0.239,0,0.445-0.295,0.619-0.886c0.174-0.59,0.261-1.291,0.261-2.103V28.505
		c0-2.362,0.206-4.354,0.619-5.977c0.412-1.623,0.923-2.436,1.531-2.436h8.635c0.586,0,1.091,0.812,1.515,2.431
		c0.424,1.621,0.636,3.609,0.636,5.966v12.042c0,0.811,0.086,1.51,0.261,2.099c0.173,0.59,0.38,0.884,0.619,0.884h2.573
		c0.239,0,0.445-0.293,0.619-0.884C1541.856,42.042,1541.943,41.343,1541.943,40.532z M1506.397,58.632
		c0,2.361-0.212,4.355-0.636,5.979c-0.424,1.625-0.929,2.436-1.516,2.436h-8.634c-0.608,0-1.119-0.811-1.531-2.436
		c-0.413-1.624-0.619-3.618-0.619-5.979V28.509c0-2.361,0.206-4.354,0.619-5.978c0.412-1.625,0.923-2.438,1.531-2.438h8.634
		c0.587,0,1.092,0.813,1.516,2.438s0.636,3.617,0.636,5.978V58.632z M1510.73,28.6v-0.221c0-2.945-0.174-5.726-0.521-8.341
		c-0.348-2.614-0.814-4.878-1.401-6.794c-0.586-1.915-1.271-3.442-2.052-4.585c-0.782-1.141-1.619-1.712-2.51-1.712h-8.634
		c-0.891,0-1.727,0.571-2.509,1.712c-0.782,1.143-1.467,2.67-2.053,4.585c-0.587,1.916-1.054,4.181-1.401,6.794
		c-0.348,2.615-0.521,5.396-0.521,8.341V58.65c0,3.021,0.168,5.839,0.506,8.452c0.336,2.615,0.798,4.88,1.385,6.795
		c0.586,1.916,1.275,3.443,2.068,4.584c0.793,1.144,1.635,1.713,2.525,1.713h8.634c0.891,0,1.732-0.569,2.525-1.713
		c0.793-1.141,1.482-2.668,2.069-4.584c0.586-1.915,1.048-4.18,1.385-6.795c0.336-2.613,0.505-5.431,0.505-8.452V28.6z
		 M1480.396,60.087V9.819c0-0.81-0.081-1.492-0.243-2.044c-0.162-0.553-0.361-0.829-0.598-0.829h-2.587
		c-0.237,0-0.437,0.278-0.599,0.83c-0.162,0.554-0.242,1.236-0.242,2.047v50.358c0,2.361-0.214,4.355-0.641,5.979
		c-0.427,1.622-0.946,2.434-1.559,2.434c-0.591,0-1.101-0.81-1.527-2.431c-0.427-1.619-0.64-3.607-0.64-5.966v-6.96
		c0-0.81-0.081-1.491-0.243-2.044c-0.161-0.553-0.36-0.828-0.598-0.828h-2.587c-0.237,0-0.437,0.275-0.599,0.828
		c-0.161,0.553-0.242,1.234-0.242,2.044v6.96c0,2.358-0.214,4.347-0.64,5.966c-0.427,1.621-0.937,2.431-1.526,2.431
		c-0.613,0-1.133-0.812-1.56-2.434c-0.427-1.623-0.64-3.617-0.64-5.979V9.824c0-0.811-0.081-1.493-0.243-2.047
		c-0.162-0.552-0.361-0.83-0.598-0.83h-2.587c-0.237,0-0.437,0.276-0.599,0.829c-0.162,0.552-0.242,1.234-0.242,2.044v50.268
		c0,3.021,0.168,5.838,0.504,8.452c0.336,2.615,0.797,4.898,1.383,6.85c0.585,1.952,1.274,3.499,2.065,4.64
		c0.792,1.142,1.633,1.713,2.521,1.713c0.824,0,1.605-0.497,2.343-1.491c0.737-0.995,1.388-2.338,1.952-4.033
		c0.563,1.695,1.214,3.038,1.951,4.033c0.737,0.994,1.519,1.491,2.343,1.491c0.889,0,1.729-0.571,2.521-1.713
		c0.791-1.141,1.48-2.688,2.065-4.64c0.586-1.951,1.047-4.234,1.383-6.85C1480.228,65.925,1480.396,63.108,1480.396,60.087z
		 M1424.192,80.084L1424.192,80.084z M1415.379,34.551c-0.424,1.631-0.929,2.446-1.516,2.446h-9.938
		c-0.239,0-0.439-0.278-0.603-0.833c-0.163-0.556-0.244-1.241-0.244-2.058v-5.561c0-2.372,0.206-4.373,0.619-6.004
		c0.412-1.631,0.923-2.448,1.531-2.448h8.634c0.587,0,1.092,0.816,1.516,2.448c0.423,1.631,0.635,3.632,0.635,6.004
		C1416.014,30.917,1415.802,32.919,1415.379,34.551z M1419.843,20.204c-0.337-2.651-0.799-4.953-1.385-6.905
		c-0.587-1.951-1.276-3.498-2.069-4.64c-0.793-1.141-1.635-1.712-2.525-1.712h-8.634c-0.892,0-1.732,0.571-2.525,1.712
		c-0.793,1.143-1.482,2.689-2.069,4.64c-0.586,1.952-1.048,4.253-1.385,6.905c-0.337,2.652-0.505,5.452-0.505,8.396v30.05
		c0,3.021,0.168,5.839,0.505,8.452c0.337,2.615,0.799,4.88,1.385,6.795c0.587,1.916,1.276,3.443,2.069,4.584
		c0.793,1.144,1.634,1.713,2.525,1.713h9.938c0.238,0,0.439-0.294,0.603-0.884c0.163-0.589,0.244-1.288,0.244-2.1V69.92
		c0-0.81-0.081-1.491-0.244-2.044s-0.364-0.829-0.603-0.829h-9.938c-0.608,0-1.119-0.81-1.531-2.431
		c-0.413-1.619-0.619-3.607-0.619-5.966v-5.523c0-0.81,0.081-1.509,0.244-2.1c0.163-0.588,0.363-0.884,0.603-0.884h9.938
		c0.891,0,1.732-0.569,2.525-1.712c0.793-1.141,1.482-2.669,2.069-4.585c0.586-1.915,1.048-4.18,1.385-6.795
		c0.336-2.613,0.505-5.431,0.505-8.452C1420.348,25.655,1420.179,22.855,1419.843,20.204z M1389.525,77.211V43.957
		c0-2.945-0.169-5.745-0.505-8.396c-0.337-2.651-0.799-4.934-1.385-6.85c-0.587-1.915-1.276-3.442-2.069-4.585
		c-0.793-1.141-1.635-1.712-2.525-1.712h-9.938c-0.239,0-0.439-0.293-0.603-0.884c-0.163-0.588-0.244-1.288-0.244-2.099V9.929
		c0-0.81-0.087-1.509-0.261-2.099c-0.174-0.589-0.38-0.884-0.619-0.884h-2.574c-0.239,0-0.445,0.295-0.619,0.884
		c-0.174,0.59-0.261,1.29-0.261,2.099v67.282c0,0.812,0.087,1.511,0.261,2.1c0.174,0.59,0.38,0.884,0.619,0.884h2.574
		c0.239,0,0.445-0.294,0.619-0.884c0.174-0.589,0.261-1.288,0.261-2.1V38.433c0-0.81,0.081-1.492,0.244-2.044
		c0.163-0.553,0.363-0.829,0.603-0.829h9.938c0.587,0,1.092,0.811,1.516,2.431c0.424,1.621,0.636,3.609,0.636,5.966v33.254
		c0,0.812,0.086,1.511,0.26,2.1c0.174,0.59,0.38,0.884,0.619,0.884h2.574c0.239,0,0.445-0.294,0.619-0.884
		C1389.438,78.722,1389.525,78.022,1389.525,77.211z M1359.484,58.65v-4.529c0-0.81-0.081-1.491-0.243-2.044
		s-0.36-0.828-0.598-0.828h-2.587c-0.237,0-0.437,0.275-0.599,0.828c-0.161,0.553-0.242,1.234-0.242,2.044v4.529
		c0,2.358-0.213,4.347-0.638,5.966c-0.425,1.621-0.941,2.431-1.552,2.431h-6.145c-0.589,0-1.096-0.81-1.52-2.431
		c-0.426-1.619-0.638-3.607-0.638-5.966V30.92h13.912c0.239,0,0.44-0.276,0.604-0.829c0.162-0.553,0.244-1.232,0.244-2.044v-7.402
		c0-0.81-0.082-1.491-0.244-2.044c-0.163-0.552-0.364-0.829-0.604-0.829h-13.912V9.929c0-0.81-0.081-1.509-0.243-2.099
		c-0.162-0.589-0.36-0.884-0.598-0.884h-2.587c-0.237,0-0.437,0.295-0.599,0.884c-0.161,0.59-0.242,1.29-0.242,2.099v7.844h-2.248
		c-0.239,0-0.445,0.276-0.619,0.829c-0.174,0.553-0.261,1.234-0.261,2.044v7.402c0,0.812,0.087,1.491,0.261,2.044
		c0.174,0.552,0.38,0.829,0.619,0.829h2.248v27.73c0,2.947,0.168,5.729,0.504,8.342c0.336,2.615,0.798,4.898,1.383,6.85
		c0.586,1.952,1.269,3.499,2.049,4.64c0.781,1.144,1.616,1.713,2.505,1.713h6.115c0.889,0,1.729-0.569,2.521-1.713
		c0.791-1.141,1.479-2.688,2.065-4.64c0.585-1.951,1.046-4.234,1.382-6.85C1359.315,64.379,1359.484,61.598,1359.484,58.65z
		 M1302.987,80.084L1302.987,80.084z M1298.621,77.211V43.957c0-2.945-0.169-5.745-0.505-8.396c-0.337-2.651-0.799-4.934-1.385-6.85
		c-0.587-1.915-1.276-3.442-2.069-4.585c-0.793-1.141-1.635-1.712-2.525-1.712h-9.938c-0.239,0-0.439-0.293-0.603-0.884
		c-0.163-0.588-0.244-1.288-0.244-2.099V9.929c0-0.81-0.087-1.509-0.261-2.099c-0.174-0.589-0.38-0.884-0.619-0.884h-2.574
		c-0.239,0-0.445,0.295-0.619,0.884c-0.174,0.59-0.261,1.29-0.261,2.099v67.282c0,0.812,0.087,1.511,0.261,2.1
		c0.174,0.59,0.38,0.884,0.619,0.884h2.574c0.239,0,0.445-0.294,0.619-0.884c0.174-0.589,0.261-1.288,0.261-2.1V38.433
		c0-0.81,0.081-1.492,0.244-2.044c0.163-0.553,0.363-0.829,0.603-0.829h9.938c0.587,0,1.092,0.811,1.516,2.431
		c0.424,1.621,0.636,3.609,0.636,5.966v33.254c0,0.812,0.086,1.511,0.26,2.1c0.174,0.59,0.38,0.884,0.619,0.884h2.574
		c0.239,0,0.445-0.294,0.619-0.884C1298.534,78.722,1298.621,78.022,1298.621,77.211z M1268.581,58.65v-4.529
		c0-0.81-0.081-1.491-0.243-2.044s-0.36-0.828-0.598-0.828h-2.587c-0.237,0-0.437,0.275-0.599,0.828
		c-0.161,0.553-0.242,1.234-0.242,2.044v4.529c0,2.358-0.213,4.347-0.638,5.966c-0.425,1.621-0.941,2.431-1.552,2.431h-6.145
		c-0.589,0-1.096-0.81-1.52-2.431c-0.426-1.619-0.638-3.607-0.638-5.966V30.92h13.912c0.239,0,0.44-0.276,0.604-0.829
		c0.162-0.553,0.244-1.232,0.244-2.044v-7.402c0-0.81-0.082-1.491-0.244-2.044c-0.163-0.552-0.364-0.829-0.604-0.829h-13.912V9.929
		c0-0.81-0.081-1.509-0.243-2.099c-0.162-0.589-0.36-0.884-0.598-0.884h-2.587c-0.237,0-0.437,0.295-0.599,0.884
		c-0.161,0.59-0.242,1.29-0.242,2.099v7.844h-2.248c-0.239,0-0.445,0.276-0.619,0.829c-0.174,0.553-0.261,1.234-0.261,2.044v7.402
		c0,0.812,0.087,1.491,0.261,2.044c0.174,0.552,0.38,0.829,0.619,0.829h2.248v27.73c0,2.947,0.168,5.729,0.504,8.342
		c0.336,2.615,0.798,4.898,1.383,6.85c0.586,1.952,1.269,3.499,2.049,4.64c0.781,1.144,1.616,1.713,2.505,1.713h6.115
		c0.889,0,1.729-0.569,2.521-1.713c0.791-1.141,1.479-2.688,2.065-4.64c0.585-1.951,1.046-4.234,1.382-6.85
		C1268.412,64.379,1268.581,61.598,1268.581,58.65z M1238.019,77.211V69.92c0-0.81-0.087-1.491-0.261-2.044s-0.38-0.829-0.619-0.829
		h-6.907c-0.239,0-0.44-0.295-0.603-0.885c-0.163-0.591-0.245-1.292-0.245-2.104V22.973c0-0.812,0.082-1.495,0.245-2.049
		c0.162-0.553,0.363-0.831,0.603-0.831h2.606c0.239,0,0.439-0.292,0.603-0.875s0.245-1.279,0.245-2.084V9.905
		c0-0.804-0.082-1.498-0.245-2.082s-0.363-0.877-0.603-0.877h-11.241c-0.239,0-0.439,0.293-0.603,0.877s-0.244,1.277-0.244,2.082
		v7.229c0,0.805,0.081,1.5,0.244,2.084s0.363,0.875,0.603,0.875h2.607c0.238,0,0.439,0.278,0.603,0.831
		c0.163,0.554,0.244,1.237,0.244,2.049v41.085c0,0.812-0.081,1.514-0.244,2.104c-0.163,0.59-0.364,0.885-0.603,0.885h-6.908
		c-0.239,0-0.445,0.276-0.619,0.829s-0.261,1.234-0.261,2.044v7.291c0,0.812,0.087,1.511,0.261,2.1
		c0.174,0.59,0.38,0.884,0.619,0.884h19.843c0.239,0,0.445-0.294,0.619-0.884C1237.932,78.722,1238.019,78.022,1238.019,77.211z
		 M1207.686,60.087V9.819c0-0.81-0.081-1.492-0.243-2.044c-0.162-0.553-0.361-0.829-0.598-0.829h-2.587
		c-0.237,0-0.437,0.278-0.599,0.83c-0.162,0.554-0.242,1.236-0.242,2.047v50.358c0,2.361-0.214,4.355-0.641,5.979
		c-0.427,1.622-0.946,2.434-1.559,2.434c-0.591,0-1.101-0.81-1.527-2.431c-0.427-1.619-0.64-3.607-0.64-5.966v-6.96
		c0-0.81-0.081-1.491-0.243-2.044c-0.161-0.553-0.36-0.828-0.598-0.828h-2.587c-0.237,0-0.437,0.275-0.599,0.828
		c-0.161,0.553-0.242,1.234-0.242,2.044v6.96c0,2.358-0.214,4.347-0.64,5.966c-0.427,1.621-0.937,2.431-1.526,2.431
		c-0.613,0-1.133-0.812-1.56-2.434c-0.427-1.623-0.64-3.617-0.64-5.979V9.824c0-0.811-0.081-1.493-0.243-2.047
		c-0.162-0.552-0.361-0.83-0.598-0.83h-2.587c-0.237,0-0.437,0.276-0.599,0.829c-0.162,0.552-0.242,1.234-0.242,2.044v50.268
		c0,3.021,0.168,5.838,0.504,8.452c0.336,2.615,0.797,4.898,1.383,6.85c0.585,1.952,1.274,3.499,2.065,4.64
		c0.792,1.142,1.633,1.713,2.521,1.713c0.824,0,1.605-0.497,2.343-1.491c0.737-0.995,1.388-2.338,1.952-4.033
		c0.563,1.695,1.214,3.038,1.951,4.033c0.737,0.994,1.519,1.491,2.343,1.491c0.889,0,1.729-0.571,2.521-1.713
		c0.791-1.141,1.48-2.688,2.065-4.64c0.586-1.951,1.047-4.234,1.383-6.85C1207.517,65.925,1207.686,63.108,1207.686,60.087z
		 M1151.48,80.084L1151.48,80.084z M1147.376,58.65v-4.529c0-0.81-0.081-1.491-0.243-2.044s-0.36-0.828-0.598-0.828h-2.587
		c-0.237,0-0.437,0.275-0.599,0.828c-0.161,0.553-0.242,1.234-0.242,2.044v4.529c0,2.358-0.213,4.347-0.638,5.966
		c-0.425,1.621-0.941,2.431-1.552,2.431h-6.145c-0.589,0-1.096-0.81-1.52-2.431c-0.426-1.619-0.638-3.607-0.638-5.966V30.92h13.912
		c0.239,0,0.44-0.276,0.604-0.829c0.162-0.553,0.244-1.232,0.244-2.044v-7.402c0-0.81-0.082-1.491-0.244-2.044
		c-0.163-0.552-0.364-0.829-0.604-0.829h-13.912V9.929c0-0.81-0.081-1.509-0.243-2.099c-0.162-0.589-0.36-0.884-0.598-0.884h-2.587
		c-0.237,0-0.437,0.295-0.599,0.884c-0.161,0.59-0.242,1.29-0.242,2.099v7.844h-2.248c-0.239,0-0.445,0.276-0.619,0.829
		c-0.174,0.553-0.261,1.234-0.261,2.044v7.402c0,0.812,0.087,1.491,0.261,2.044c0.174,0.552,0.38,0.829,0.619,0.829h2.248v27.73
		c0,2.947,0.168,5.729,0.504,8.342c0.336,2.615,0.798,4.898,1.383,6.85c0.586,1.952,1.269,3.499,2.049,4.64
		c0.781,1.144,1.616,1.713,2.505,1.713h6.115c0.889,0,1.729-0.569,2.521-1.713c0.791-1.141,1.479-2.688,2.065-4.64
		c0.585-1.951,1.046-4.234,1.382-6.85C1147.207,64.379,1147.376,61.598,1147.376,58.65z M1116.813,77.211V43.957
		c0-2.945-0.169-5.745-0.505-8.396c-0.337-2.651-0.799-4.934-1.385-6.85c-0.587-1.915-1.276-3.442-2.069-4.585
		c-0.793-1.141-1.635-1.712-2.525-1.712h-9.938c-0.239,0-0.439-0.293-0.603-0.884c-0.163-0.588-0.244-1.288-0.244-2.099V9.929
		c0-0.81-0.087-1.509-0.261-2.099c-0.174-0.589-0.38-0.884-0.619-0.884h-2.574c-0.239,0-0.445,0.295-0.619,0.884
		c-0.174,0.59-0.261,1.29-0.261,2.099v67.282c0,0.812,0.087,1.511,0.261,2.1c0.174,0.59,0.38,0.884,0.619,0.884h2.574
		c0.239,0,0.445-0.294,0.619-0.884c0.174-0.589,0.261-1.288,0.261-2.1V38.433c0-0.81,0.081-1.492,0.244-2.044
		c0.163-0.553,0.363-0.829,0.603-0.829h9.938c0.587,0,1.092,0.811,1.516,2.431c0.424,1.621,0.636,3.609,0.636,5.966v33.254
		c0,0.812,0.086,1.511,0.26,2.1c0.174,0.59,0.38,0.884,0.619,0.884h2.574c0.239,0,0.445-0.294,0.619-0.884
		C1116.727,78.722,1116.813,78.022,1116.813,77.211z M1082.407,34.216c0,0.816-0.081,1.484-0.244,2.002
		c-0.163,0.52-0.364,0.778-0.603,0.778h-10.361c-0.608,0-1.119-0.814-1.531-2.446c-0.413-1.631-0.619-3.634-0.619-6.006
		c0-2.372,0.206-4.373,0.619-6.004c0.412-1.631,0.923-2.448,1.531-2.448h9.058c0.607,0,1.118,0.816,1.531,2.448
		c0.412,1.631,0.619,3.632,0.619,6.004V34.216z M1086.741,28.6c0-2.945-0.169-5.745-0.506-8.396
		c-0.337-2.651-0.798-4.953-1.385-6.905c-0.586-1.951-1.276-3.498-2.068-4.64c-0.793-1.141-1.635-1.712-2.525-1.712h-9.058
		c-0.892,0-1.732,0.571-2.525,1.712c-0.793,1.143-1.482,2.689-2.069,4.64c-0.586,1.952-1.048,4.253-1.385,6.905
		c-0.337,2.652-0.505,5.452-0.505,8.396c0,3.021,0.168,5.838,0.505,8.452c0.337,2.615,0.799,4.88,1.385,6.795
		c0.587,1.916,1.276,3.444,2.069,4.585c0.793,1.143,1.634,1.712,2.525,1.712h10.361c0.238,0,0.439,0.259,0.603,0.773
		c0.163,0.517,0.244,1.179,0.244,1.989v5.744c0,2.358-0.207,4.347-0.619,5.966c-0.413,1.621-0.924,2.431-1.531,2.431h-13.619
		c-0.239,0-0.445,0.276-0.619,0.829s-0.261,1.234-0.261,2.044v7.291c0,0.812,0.087,1.511,0.261,2.1
		c0.174,0.59,0.38,0.884,0.619,0.884h13.619c0.891,0,1.732-0.569,2.525-1.713c0.792-1.141,1.482-2.668,2.068-4.584
		c0.587-1.915,1.048-4.18,1.385-6.795c0.337-2.613,0.506-5.431,0.506-8.452V28.6z M1056.211,77.211V69.92
		c0-0.81-0.087-1.491-0.261-2.044s-0.38-0.829-0.619-0.829h-6.907c-0.239,0-0.44-0.295-0.603-0.885
		c-0.163-0.591-0.245-1.292-0.245-2.104V22.973c0-0.812,0.082-1.495,0.245-2.049c0.162-0.553,0.363-0.831,0.603-0.831h2.606
		c0.239,0,0.439-0.292,0.603-0.875s0.245-1.279,0.245-2.084V9.905c0-0.804-0.082-1.498-0.245-2.082s-0.363-0.877-0.603-0.877
		h-11.241c-0.239,0-0.439,0.293-0.603,0.877s-0.244,1.277-0.244,2.082v7.229c0,0.805,0.081,1.5,0.244,2.084s0.363,0.875,0.603,0.875
		h2.607c0.238,0,0.439,0.278,0.603,0.831c0.163,0.554,0.244,1.237,0.244,2.049v41.085c0,0.812-0.081,1.514-0.244,2.104
		c-0.163,0.59-0.364,0.885-0.603,0.885h-6.908c-0.239,0-0.445,0.276-0.619,0.829s-0.261,1.234-0.261,2.044v7.291
		c0,0.812,0.087,1.511,0.261,2.1c0.174,0.59,0.38,0.884,0.619,0.884h19.843c0.239,0,0.445-0.294,0.619-0.884
		C1056.124,78.722,1056.211,78.022,1056.211,77.211z M1026.822,40.532V28.49c0-2.945-0.168-5.738-0.505-8.379
		s-0.798-4.928-1.385-6.865c-0.587-1.935-1.276-3.468-2.069-4.6c-0.793-1.133-1.635-1.699-2.524-1.699h-8.635
		c-0.891,0-1.732,0.571-2.525,1.712c-0.793,1.143-1.482,2.689-2.068,4.64c-0.587,1.952-1.049,4.253-1.385,6.905
		c-0.337,2.652-0.505,5.452-0.505,8.396v48.611c0,0.812,0.086,1.511,0.261,2.1c0.173,0.59,0.379,0.884,0.618,0.884h2.574
		c0.239,0,0.445-0.295,0.619-0.886c0.174-0.59,0.261-1.291,0.261-2.103V28.505c0-2.362,0.206-4.354,0.619-5.977
		c0.412-1.623,0.923-2.436,1.531-2.436h8.635c0.586,0,1.091,0.812,1.515,2.431c0.424,1.621,0.636,3.609,0.636,5.966v12.042
		c0,0.811,0.086,1.51,0.261,2.099c0.173,0.59,0.38,0.884,0.619,0.884h2.573c0.239,0,0.445-0.293,0.619-0.884
		C1026.735,42.042,1026.822,41.343,1026.822,40.532z M969.673,80.084L969.673,80.084z M964.803,50.254
		c-0.337-2.651-0.799-4.952-1.385-6.905c-0.587-1.951-1.276-3.497-2.069-4.64c-0.793-1.141-1.635-1.712-2.525-1.712h-9.351
		c-0.608,0-1.119-0.814-1.531-2.446c-0.413-1.631-0.619-3.634-0.619-6.006c0-2.372,0.206-4.373,0.619-6.004
		c0.412-1.631,0.923-2.448,1.531-2.448h14.499c0.239,0,0.445-0.292,0.619-0.875s0.261-1.279,0.261-2.084V9.905
		c0-0.804-0.087-1.498-0.261-2.082s-0.38-0.877-0.619-0.877h-14.499c-0.891,0-1.732,0.571-2.525,1.712
		c-0.793,1.143-1.482,2.689-2.068,4.64c-0.587,1.952-1.049,4.253-1.385,6.905c-0.338,2.652-0.506,5.452-0.506,8.396
		c0,3.021,0.168,5.838,0.506,8.452c0.336,2.615,0.798,4.88,1.385,6.795c0.586,1.916,1.275,3.444,2.068,4.585
		c0.793,1.143,1.635,1.712,2.525,1.712h9.351c0.587,0,1.092,0.829,1.516,2.486s0.636,3.664,0.636,6.021
		c0,2.358-0.212,4.347-0.636,5.966c-0.424,1.621-0.929,2.431-1.516,2.431h-9.938c-0.239,0-0.439,0.276-0.603,0.829
		s-0.244,1.234-0.244,2.044v7.291c0,0.812,0.081,1.511,0.244,2.1c0.163,0.59,0.363,0.884,0.603,0.884h9.938
		c0.891,0,1.732-0.569,2.525-1.713c0.793-1.141,1.482-2.688,2.069-4.64c0.586-1.951,1.048-4.234,1.385-6.85
		c0.336-2.613,0.505-5.395,0.505-8.342C965.308,55.706,965.139,52.906,964.803,50.254z M926.404,29.926V9.929
		c0-0.81-0.087-1.509-0.261-2.099c-0.174-0.589-0.381-0.884-0.619-0.884h-2.606c-0.239,0-0.445,0.295-0.619,0.884
		c-0.174,0.59-0.261,1.29-0.261,2.099v19.997c0,0.812,0.087,1.492,0.261,2.044c0.174,0.553,0.38,0.829,0.619,0.829h2.606
		c0.238,0,0.445-0.276,0.619-0.829C926.317,31.417,926.404,30.737,926.404,29.926z M906.139,77.211V69.92
		c0-0.81-0.087-1.491-0.261-2.044s-0.38-0.829-0.619-0.829h-10.622c-0.239,0-0.439-0.293-0.603-0.884
		c-0.163-0.588-0.244-1.287-0.244-2.099V9.929c0-0.81-0.087-1.509-0.261-2.099c-0.174-0.589-0.38-0.884-0.619-0.884h-7.494
		c-0.239,0-0.445,0.293-0.619,0.877s-0.261,1.277-0.261,2.082v7.229c0,0.805,0.087,1.5,0.261,2.084s0.38,0.875,0.619,0.875h3.193
		c0.239,0,0.439,0.278,0.603,0.831c0.163,0.554,0.244,1.237,0.244,2.049v41.085c0,0.812-0.081,1.514-0.244,2.104
		c-0.163,0.59-0.363,0.885-0.603,0.885h-3.193c-0.239,0-0.445,0.276-0.619,0.829s-0.261,1.234-0.261,2.044v7.291
		c0,0.812,0.087,1.511,0.261,2.1c0.174,0.59,0.38,0.884,0.619,0.884h19.843c0.239,0,0.445-0.294,0.619-0.884
		C906.052,78.722,906.139,78.022,906.139,77.211z M875.837,77.211V69.92c0-0.81-0.087-1.491-0.261-2.044s-0.38-0.829-0.619-0.829
		h-10.622c-0.239,0-0.439-0.293-0.603-0.884c-0.163-0.588-0.244-1.287-0.244-2.099V9.929c0-0.81-0.087-1.509-0.261-2.099
		c-0.174-0.589-0.38-0.884-0.619-0.884h-7.494c-0.239,0-0.445,0.293-0.619,0.877s-0.261,1.277-0.261,2.082v7.229
		c0,0.805,0.087,1.5,0.261,2.084s0.38,0.875,0.619,0.875h3.193c0.239,0,0.439,0.278,0.603,0.831
		c0.163,0.554,0.244,1.237,0.244,2.049v41.085c0,0.812-0.081,1.514-0.244,2.104c-0.163,0.59-0.363,0.885-0.603,0.885h-3.193
		c-0.239,0-0.445,0.276-0.619,0.829s-0.261,1.234-0.261,2.044v7.291c0,0.812,0.087,1.511,0.261,2.1
		c0.174,0.59,0.38,0.884,0.619,0.884h19.843c0.239,0,0.445-0.294,0.619-0.884C875.75,78.722,875.837,78.022,875.837,77.211z
		 M839.117,59.534c0,2.358-0.207,4.198-0.62,5.524c-0.414,1.326-0.926,1.988-1.536,1.988h-8.623c-0.609,0-1.122-0.828-1.535-2.485
		c-0.414-1.657-0.62-3.663-0.62-6.021c0-2.356,0.206-4.363,0.62-6.021c0.413-1.657,0.926-2.486,1.535-2.486h10.061
		c0.479,0,0.719,0.812,0.719,2.431V59.534z M843.386,28.821c0-2.945-0.168-5.745-0.502-8.396c-0.334-2.652-0.792-4.972-1.374-6.96
		c-0.582-1.988-1.262-3.571-2.04-4.75c-0.778-1.177-1.612-1.768-2.503-1.768h-5.376c-0.239,0-0.478,0.406-0.717,1.215
		c-0.239,0.811-0.358,1.621-0.358,2.43v5.966c0,0.958,0.119,1.787,0.358,2.486c0.239,0.701,0.478,1.049,0.717,1.049h5.376
		c0.608,0,1.119,0.829,1.531,2.486c0.413,1.657,0.619,3.665,0.619,6.021v5.635c0,1.621-0.239,2.43-0.717,2.43h-10.035
		c-0.891,0-1.727,0.591-2.509,1.768c-0.782,1.179-1.466,2.762-2.053,4.75s-1.048,4.309-1.385,6.96s-0.505,5.452-0.505,8.396
		c0,3.021,0.168,5.839,0.504,8.452c0.336,2.615,0.797,4.898,1.383,6.85c0.585,1.952,1.269,3.499,2.05,4.64
		c0.78,1.144,1.615,1.713,2.505,1.713h8.589c0.889,0,1.724-0.515,2.505-1.547c0.78-1.03,1.464-2.467,2.049-4.309
		c0.586-1.84,1.047-4.014,1.383-6.519c0.336-2.503,0.505-5.265,0.505-8.286V28.821z M787.865,80.084L787.865,80.084z
		 M775.875,89.806V69.81c0-0.81-0.087-1.492-0.261-2.044c-0.174-0.553-0.38-0.829-0.619-0.829h-4.854
		c-0.239,0-0.445,0.276-0.619,0.829c-0.174,0.552-0.261,1.234-0.261,2.044v7.401c0,0.812,0.087,1.492,0.261,2.044
		c0.174,0.553,0.38,0.829,0.619,0.829h1.401v9.722c0,0.81,0.087,1.509,0.261,2.1c0.174,0.589,0.38,0.884,0.619,0.884h2.574
		c0.239,0,0.445-0.295,0.619-0.884C775.788,91.314,775.875,90.615,775.875,89.806z M753.133,77.211V28.6
		c0-3.019-0.168-5.836-0.504-8.452c-0.336-2.613-0.797-4.897-1.383-6.85c-0.585-1.951-1.269-3.498-2.049-4.64
		c-0.781-1.141-1.616-1.712-2.505-1.712h-8.654c-0.889,0-1.724,0.571-2.505,1.712c-0.781,1.143-1.464,2.67-2.049,4.585
		c-0.585,1.916-1.047,4.181-1.383,6.794c-0.336,2.615-0.504,5.396-0.504,8.341v48.832c0,0.812,0.08,1.511,0.242,2.1
		c0.162,0.59,0.361,0.884,0.598,0.884h2.587c0.236,0,0.436-0.295,0.598-0.886c0.162-0.59,0.243-1.291,0.243-2.103V28.505
		c0-2.362,0.212-4.354,0.637-5.977c0.425-1.623,0.931-2.436,1.52-2.436h8.688c0.588,0,1.095,0.813,1.519,2.436
		c0.425,1.623,0.637,3.615,0.637,5.977v48.701c0,0.812,0.08,1.513,0.242,2.103c0.162,0.591,0.361,0.886,0.598,0.886h2.587
		c0.237,0,0.436-0.294,0.598-0.884C753.052,78.722,753.133,78.022,753.133,77.211z M718.417,34.551
		c-0.423,1.631-0.928,2.446-1.515,2.446h-9.938c-0.239,0-0.439-0.278-0.603-0.833c-0.163-0.556-0.245-1.241-0.245-2.058v-5.561
		c0-2.372,0.207-4.373,0.619-6.004s0.923-2.448,1.532-2.448h8.634c0.586,0,1.091,0.816,1.515,2.448
		c0.424,1.631,0.636,3.632,0.636,6.004C719.052,30.917,718.84,32.919,718.417,34.551z M722.88,20.204
		c-0.337-2.651-0.798-4.953-1.385-6.905c-0.586-1.951-1.276-3.498-2.069-4.64c-0.793-1.141-1.635-1.712-2.525-1.712h-8.634
		c-0.891,0-1.733,0.571-2.525,1.712c-0.793,1.143-1.482,2.689-2.069,4.64c-0.586,1.952-1.048,4.253-1.385,6.905
		c-0.337,2.652-0.505,5.452-0.505,8.396v30.05c0,3.021,0.168,5.839,0.505,8.452c0.336,2.615,0.798,4.88,1.385,6.795
		c0.586,1.916,1.276,3.443,2.069,4.584c0.792,1.144,1.634,1.713,2.525,1.713h9.938c0.239,0,0.44-0.294,0.603-0.884
		c0.163-0.589,0.245-1.288,0.245-2.1V69.92c0-0.81-0.082-1.491-0.245-2.044c-0.163-0.553-0.364-0.829-0.603-0.829h-9.938
		c-0.608,0-1.119-0.81-1.532-2.431c-0.413-1.619-0.619-3.607-0.619-5.966v-5.523c0-0.81,0.082-1.509,0.245-2.1
		c0.163-0.588,0.363-0.884,0.603-0.884h9.938c0.89,0,1.732-0.569,2.525-1.712c0.792-1.141,1.482-2.669,2.069-4.585
		c0.586-1.915,1.048-4.18,1.385-6.795c0.336-2.613,0.505-5.431,0.505-8.452C723.386,25.655,723.217,22.855,722.88,20.204z
		 M693.084,29.042V9.929c0-0.81-0.087-1.509-0.261-2.099c-0.174-0.589-0.38-0.884-0.619-0.884h-2.574
		c-0.239,0-0.445,0.295-0.619,0.884c-0.174,0.59-0.261,1.29-0.261,2.099v18.119c0,1.253-0.071,2.45-0.212,3.59
		c-0.142,1.143-0.332,2.118-0.57,2.928l-8.667,31.045l-0.032,0.11c-0.413,1.179-0.847,1.768-1.303,1.768
		c-0.608,0-1.119-0.81-1.532-2.431c-0.413-1.619-0.619-3.607-0.619-5.966V9.929c0-0.81-0.087-1.509-0.26-2.099
		c-0.174-0.589-0.38-0.884-0.619-0.884h-2.574c-0.239,0-0.445,0.295-0.619,0.884c-0.174,0.59-0.26,1.29-0.26,2.099v50.158
		c0,3.021,0.168,5.838,0.505,8.452c0.336,2.615,0.798,4.898,1.385,6.85c0.586,1.952,1.276,3.499,2.069,4.64
		c0.792,1.142,1.634,1.713,2.525,1.713c0.868,0,1.688-0.497,2.46-1.491c0.771-0.995,1.428-2.486,1.971-4.475l8.667-31.598
		c0.565-2.061,1.043-4.345,1.434-6.85C692.889,34.825,693.084,32.063,693.084,29.042z M657.276,59.534
		c0,2.358-0.207,4.198-0.621,5.524s-0.925,1.988-1.535,1.988h-8.623c-0.61,0-1.122-0.828-1.536-2.485s-0.621-3.663-0.621-6.021
		c0-2.356,0.207-4.363,0.621-6.021s0.926-2.486,1.536-2.486h10.06c0.479,0,0.719,0.812,0.719,2.431V59.534z M661.545,28.821
		c0-2.945-0.167-5.745-0.501-8.396c-0.334-2.652-0.792-4.972-1.374-6.96c-0.583-1.988-1.263-3.571-2.041-4.75
		c-0.778-1.177-1.612-1.768-2.503-1.768h-5.376c-0.239,0-0.478,0.406-0.717,1.215c-0.239,0.811-0.358,1.621-0.358,2.43v5.966
		c0,0.958,0.119,1.787,0.358,2.486c0.239,0.701,0.478,1.049,0.717,1.049h5.376c0.608,0,1.119,0.829,1.532,2.486
		c0.412,1.657,0.619,3.665,0.619,6.021v5.635c0,1.621-0.239,2.43-0.717,2.43h-10.035c-0.891,0-1.727,0.591-2.509,1.768
		c-0.782,1.179-1.466,2.762-2.053,4.75s-1.048,4.309-1.385,6.96c-0.337,2.651-0.505,5.452-0.505,8.396
		c0,3.021,0.168,5.839,0.504,8.452c0.336,2.615,0.797,4.898,1.383,6.85c0.585,1.952,1.269,3.499,2.049,4.64
		c0.781,1.144,1.616,1.713,2.505,1.713h8.588c0.889,0,1.724-0.515,2.505-1.547c0.781-1.03,1.464-2.467,2.05-4.309
		c0.585-1.84,1.046-4.014,1.383-6.519c0.336-2.503,0.504-5.265,0.504-8.286V28.821z M627.513,34.551
		c-0.423,1.631-0.928,2.446-1.515,2.446h-9.938c-0.239,0-0.439-0.278-0.603-0.833c-0.163-0.556-0.245-1.241-0.245-2.058v-5.561
		c0-2.372,0.207-4.373,0.619-6.004s0.923-2.448,1.532-2.448h8.634c0.586,0,1.091,0.816,1.515,2.448
		c0.424,1.631,0.636,3.632,0.636,6.004C628.148,30.917,627.937,32.919,627.513,34.551z M631.977,20.204
		c-0.337-2.651-0.798-4.953-1.385-6.905c-0.586-1.951-1.276-3.498-2.069-4.64c-0.793-1.141-1.635-1.712-2.525-1.712h-8.634
		c-0.891,0-1.733,0.571-2.525,1.712c-0.793,1.143-1.482,2.689-2.069,4.64c-0.586,1.952-1.048,4.253-1.385,6.905
		c-0.337,2.652-0.505,5.452-0.505,8.396v30.05c0,3.021,0.168,5.839,0.505,8.452c0.336,2.615,0.798,4.88,1.385,6.795
		c0.586,1.916,1.276,3.443,2.069,4.584c0.792,1.144,1.634,1.713,2.525,1.713h9.938c0.239,0,0.44-0.294,0.603-0.884
		c0.163-0.589,0.245-1.288,0.245-2.1V69.92c0-0.81-0.082-1.491-0.245-2.044c-0.163-0.553-0.364-0.829-0.603-0.829h-9.938
		c-0.608,0-1.119-0.81-1.532-2.431c-0.413-1.619-0.619-3.607-0.619-5.966v-5.523c0-0.81,0.082-1.509,0.245-2.1
		c0.163-0.588,0.363-0.884,0.603-0.884h9.938c0.89,0,1.732-0.569,2.525-1.712c0.792-1.141,1.482-2.669,2.069-4.585
		c0.586-1.915,1.048-4.18,1.385-6.795c0.336-2.613,0.505-5.431,0.505-8.452C632.482,25.655,632.313,22.855,631.977,20.204z
		 M601.659,77.211V43.957c0-2.945-0.168-5.745-0.505-8.396c-0.337-2.651-0.798-4.934-1.385-6.85
		c-0.586-1.915-1.276-3.442-2.069-4.585c-0.793-1.141-1.634-1.712-2.525-1.712h-9.938c-0.239,0-0.44-0.293-0.603-0.884
		c-0.163-0.588-0.244-1.288-0.244-2.099V9.929c0-0.81-0.087-1.509-0.261-2.099c-0.174-0.589-0.38-0.884-0.619-0.884h-2.574
		c-0.239,0-0.446,0.295-0.619,0.884c-0.174,0.59-0.261,1.29-0.261,2.099v67.282c0,0.812,0.086,1.511,0.261,2.1
		c0.173,0.59,0.38,0.884,0.619,0.884h2.574c0.239,0,0.445-0.294,0.619-0.884c0.174-0.589,0.261-1.288,0.261-2.1V38.433
		c0-0.81,0.082-1.492,0.244-2.044c0.163-0.553,0.364-0.829,0.603-0.829h9.938c0.586,0,1.091,0.811,1.515,2.431
		c0.423,1.621,0.635,3.609,0.635,5.966v33.254c0,0.812,0.086,1.511,0.261,2.1c0.173,0.59,0.38,0.884,0.619,0.884h2.574
		c0.239,0,0.445-0.294,0.619-0.884C601.572,78.722,601.659,78.022,601.659,77.211z M545.422,80.084L545.422,80.084z M540.552,50.254
		c-0.337-2.651-0.798-4.952-1.385-6.905c-0.586-1.951-1.276-3.497-2.069-4.64c-0.793-1.141-1.634-1.712-2.525-1.712h-9.351
		c-0.608,0-1.119-0.814-1.531-2.446c-0.413-1.631-0.619-3.634-0.619-6.006c0-2.372,0.206-4.373,0.619-6.004
		c0.412-1.631,0.923-2.448,1.531-2.448h14.499c0.239,0,0.445-0.292,0.619-0.875c0.173-0.583,0.261-1.279,0.261-2.084V9.905
		c0-0.804-0.087-1.498-0.261-2.082c-0.174-0.583-0.38-0.877-0.619-0.877h-14.499c-0.891,0-1.732,0.571-2.525,1.712
		c-0.793,1.143-1.482,2.689-2.069,4.64c-0.586,1.952-1.048,4.253-1.385,6.905c-0.337,2.652-0.505,5.452-0.505,8.396
		c0,3.021,0.168,5.838,0.505,8.452c0.336,2.615,0.798,4.88,1.385,6.795c0.586,1.916,1.276,3.444,2.069,4.585
		c0.793,1.143,1.634,1.712,2.525,1.712h9.351c0.586,0,1.091,0.829,1.515,2.486c0.423,1.657,0.635,3.664,0.635,6.021
		c0,2.358-0.212,4.347-0.635,5.966c-0.424,1.621-0.929,2.431-1.515,2.431h-9.938c-0.239,0-0.44,0.276-0.603,0.829
		c-0.163,0.553-0.244,1.234-0.244,2.044v7.291c0,0.812,0.082,1.511,0.244,2.1c0.163,0.59,0.364,0.884,0.603,0.884h9.938
		c0.891,0,1.732-0.569,2.525-1.713c0.793-1.141,1.483-2.688,2.069-4.64c0.586-1.951,1.047-4.234,1.385-6.85
		c0.336-2.613,0.505-5.395,0.505-8.342C541.057,55.706,540.888,52.906,540.552,50.254z M510.755,77.211V69.92
		c0-0.81-0.087-1.491-0.261-2.044s-0.38-0.829-0.619-0.829h-6.907c-0.239,0-0.44-0.295-0.603-0.885
		c-0.163-0.591-0.244-1.292-0.244-2.104V22.973c0-0.812,0.082-1.495,0.244-2.049c0.163-0.553,0.364-0.831,0.603-0.831h2.606
		c0.239,0,0.44-0.292,0.603-0.875c0.163-0.583,0.244-1.279,0.244-2.084V9.905c0-0.804-0.082-1.498-0.244-2.082
		c-0.163-0.583-0.364-0.877-0.603-0.877h-11.241c-0.239,0-0.44,0.293-0.603,0.877c-0.163,0.583-0.244,1.277-0.244,2.082v7.229
		c0,0.805,0.082,1.5,0.244,2.084c0.163,0.583,0.364,0.875,0.603,0.875h2.606c0.239,0,0.44,0.278,0.603,0.831
		c0.163,0.554,0.245,1.237,0.245,2.049v41.085c0,0.812-0.082,1.514-0.245,2.104c-0.163,0.59-0.364,0.885-0.603,0.885h-6.907
		c-0.239,0-0.446,0.276-0.619,0.829c-0.174,0.553-0.261,1.234-0.261,2.044v7.291c0,0.812,0.086,1.511,0.261,2.1
		c0.173,0.59,0.38,0.884,0.619,0.884h19.842c0.239,0,0.445-0.294,0.619-0.884C510.668,78.722,510.755,78.022,510.755,77.211z
		 M480.454,77.211V9.929c0-0.81-0.087-1.509-0.261-2.099c-0.174-0.589-0.38-0.884-0.619-0.884H477c-0.239,0-0.446,0.295-0.619,0.884
		c-0.174,0.59-0.261,1.29-0.261,2.099v39.11c0,0.812-0.082,1.511-0.244,2.099c-0.163,0.591-0.364,0.884-0.603,0.884h-11.241
		c-0.239,0-0.44-0.293-0.603-0.884c-0.163-0.588-0.244-1.287-0.244-2.099V9.929c0-0.81-0.087-1.509-0.261-2.099
		c-0.174-0.589-0.38-0.884-0.619-0.884h-2.574c-0.239,0-0.446,0.295-0.619,0.884c-0.174,0.59-0.261,1.29-0.261,2.099v67.282
		c0,0.812,0.086,1.511,0.261,2.1c0.173,0.59,0.38,0.884,0.619,0.884h2.574c0.239,0,0.445-0.294,0.619-0.884
		c0.174-0.589,0.261-1.288,0.261-2.1v-9.059c0-0.81,0.082-1.509,0.244-2.1c0.163-0.589,0.364-0.884,0.603-0.884h11.241
		c0.239,0,0.44,0.295,0.603,0.884c0.163,0.591,0.244,1.29,0.244,2.1v9.059c0,0.812,0.086,1.511,0.261,2.1
		c0.173,0.59,0.38,0.884,0.619,0.884h2.574c0.239,0,0.445-0.294,0.619-0.884C480.367,78.722,480.454,78.022,480.454,77.211z
		 M424.217,80.084L424.217,80.084z M419.819,77.211V28.6c0-3.019-0.168-5.836-0.504-8.452c-0.336-2.613-0.797-4.897-1.383-6.85
		c-0.585-1.951-1.269-3.498-2.049-4.64c-0.781-1.141-1.616-1.712-2.505-1.712h-8.654c-0.889,0-1.724,0.571-2.505,1.712
		c-0.781,1.143-1.464,2.67-2.049,4.585c-0.585,1.916-1.047,4.181-1.383,6.794c-0.336,2.615-0.504,5.396-0.504,8.341v48.832
		c0,0.812,0.08,1.511,0.242,2.1c0.162,0.59,0.361,0.884,0.598,0.884h2.587c0.236,0,0.436-0.295,0.598-0.886
		c0.162-0.59,0.243-1.291,0.243-2.103V28.505c0-2.362,0.212-4.354,0.637-5.977c0.425-1.623,0.931-2.436,1.52-2.436h8.688
		c0.588,0,1.095,0.813,1.519,2.436c0.425,1.623,0.637,3.615,0.637,5.977v48.701c0,0.812,0.08,1.513,0.242,2.103
		c0.162,0.591,0.361,0.886,0.598,0.886h2.587c0.237,0,0.436-0.294,0.598-0.884C419.738,78.722,419.819,78.022,419.819,77.211z
		 M389.55,77.211V69.92c0-0.81-0.087-1.491-0.261-2.044s-0.38-0.829-0.619-0.829h-6.907c-0.239,0-0.44-0.295-0.603-0.885
		c-0.163-0.591-0.244-1.292-0.244-2.104V22.973c0-0.812,0.082-1.495,0.244-2.049c0.163-0.553,0.364-0.831,0.603-0.831h2.606
		c0.239,0,0.44-0.292,0.603-0.875c0.163-0.583,0.244-1.279,0.244-2.084V9.905c0-0.804-0.082-1.498-0.244-2.082
		c-0.163-0.583-0.364-0.877-0.603-0.877h-11.241c-0.239,0-0.44,0.293-0.603,0.877c-0.163,0.583-0.244,1.277-0.244,2.082v7.229
		c0,0.805,0.082,1.5,0.244,2.084c0.163,0.583,0.364,0.875,0.603,0.875h2.606c0.239,0,0.44,0.278,0.603,0.831
		c0.163,0.554,0.245,1.237,0.245,2.049v41.085c0,0.812-0.082,1.514-0.245,2.104c-0.163,0.59-0.364,0.885-0.603,0.885h-6.907
		c-0.239,0-0.446,0.276-0.619,0.829c-0.174,0.553-0.261,1.234-0.261,2.044v7.291c0,0.812,0.086,1.511,0.261,2.1
		c0.173,0.59,0.38,0.884,0.619,0.884h19.842c0.239,0,0.445-0.294,0.619-0.884C389.463,78.722,389.55,78.022,389.55,77.211z
		 M333.313,80.084L333.313,80.084z M328.443,50.254c-0.337-2.651-0.798-4.952-1.385-6.905c-0.586-1.951-1.276-3.497-2.069-4.64
		c-0.793-1.141-1.634-1.712-2.525-1.712h-9.351c-0.608,0-1.119-0.814-1.531-2.446c-0.413-1.631-0.619-3.634-0.619-6.006
		c0-2.372,0.206-4.373,0.619-6.004c0.412-1.631,0.923-2.448,1.531-2.448h14.499c0.239,0,0.445-0.292,0.619-0.875
		c0.173-0.583,0.261-1.279,0.261-2.084V9.905c0-0.804-0.087-1.498-0.261-2.082c-0.174-0.583-0.38-0.877-0.619-0.877h-14.499
		c-0.891,0-1.732,0.571-2.525,1.712c-0.793,1.143-1.482,2.689-2.069,4.64c-0.586,1.952-1.048,4.253-1.385,6.905
		c-0.337,2.652-0.505,5.452-0.505,8.396c0,3.021,0.168,5.838,0.505,8.452c0.336,2.615,0.798,4.88,1.385,6.795
		c0.586,1.916,1.276,3.444,2.069,4.585c0.793,1.143,1.634,1.712,2.525,1.712h9.351c0.586,0,1.091,0.829,1.515,2.486
		c0.423,1.657,0.635,3.664,0.635,6.021c0,2.358-0.212,4.347-0.635,5.966c-0.424,1.621-0.929,2.431-1.515,2.431h-9.938
		c-0.239,0-0.44,0.276-0.603,0.829c-0.163,0.553-0.244,1.234-0.244,2.044v7.291c0,0.812,0.082,1.511,0.244,2.1
		c0.163,0.59,0.364,0.884,0.603,0.884h9.938c0.891,0,1.732-0.569,2.525-1.713c0.793-1.141,1.483-2.688,2.069-4.64
		c0.586-1.951,1.047-4.234,1.385-6.85c0.336-2.613,0.505-5.395,0.505-8.342C328.948,55.706,328.779,52.906,328.443,50.254z
		 M290.045,29.926V9.929c0-0.81-0.087-1.509-0.261-2.099c-0.174-0.589-0.38-0.884-0.619-0.884h-2.606
		c-0.239,0-0.446,0.295-0.619,0.884c-0.174,0.59-0.261,1.29-0.261,2.099v19.997c0,0.812,0.086,1.492,0.261,2.044
		c0.173,0.553,0.38,0.829,0.619,0.829h2.606c0.239,0,0.445-0.276,0.619-0.829C289.958,31.417,290.045,30.737,290.045,29.926z
		 M263.621,59.729c0,2.365-0.207,4.176-0.621,5.433s-0.925,1.885-1.535,1.885h-8.623c-0.61,0-1.122-0.628-1.536-1.885
		c-0.414-1.257-0.621-3.067-0.621-5.433V43.541c0-2.365,0.207-4.176,0.621-5.433c0.414-1.257,0.926-1.885,1.536-1.885h10.06
		c0.479,0,0.719,0.813,0.719,2.439V59.729z M267.889,9.708c0-0.81-0.092-1.472-0.275-1.988c-0.184-0.515-0.394-0.773-0.63-0.773
		h-2.49c-0.237,0-0.442,0.259-0.614,0.773c-0.173,0.516-0.259,1.179-0.259,1.988v13.368h-10.752c-0.891,0-1.727,0.516-2.509,1.547
		c-0.782,1.032-1.466,2.449-2.053,4.253c-0.586,1.806-1.048,3.96-1.385,6.463c-0.337,2.505-0.505,5.23-0.505,8.176v16.019
		c0,3.021,0.168,5.783,0.504,8.286c0.336,2.505,0.797,4.679,1.383,6.519c0.585,1.842,1.269,3.278,2.049,4.309
		c0.781,1.032,1.616,1.547,2.505,1.547h8.588c0.889,0,1.724-0.515,2.505-1.547c0.781-1.03,1.464-2.467,2.05-4.309
		c0.585-1.84,1.046-4.014,1.382-6.519c0.336-2.503,0.505-5.265,0.505-8.286V9.708z M233.71,58.632c0,2.361-0.212,4.355-0.635,5.979
		c-0.424,1.625-0.929,2.436-1.515,2.436h-8.634c-0.608,0-1.119-0.811-1.531-2.436c-0.413-1.624-0.619-3.618-0.619-5.979V28.509
		c0-2.361,0.206-4.354,0.619-5.978c0.412-1.625,0.923-2.438,1.531-2.438h8.634c0.586,0,1.091,0.813,1.515,2.438
		c0.423,1.625,0.635,3.617,0.635,5.978V58.632z M238.044,28.6v-0.221c0-2.945-0.174-5.726-0.521-8.341
		c-0.348-2.614-0.814-4.878-1.401-6.794c-0.586-1.915-1.271-3.442-2.053-4.585c-0.782-1.141-1.618-1.712-2.509-1.712h-8.634
		c-0.891,0-1.727,0.571-2.509,1.712c-0.782,1.143-1.466,2.67-2.053,4.585c-0.586,1.916-1.054,4.181-1.401,6.794
		c-0.348,2.615-0.521,5.396-0.521,8.341V58.65c0,3.021,0.168,5.839,0.505,8.452c0.336,2.615,0.798,4.88,1.385,6.795
		c0.586,1.916,1.276,3.443,2.069,4.584c0.793,1.144,1.634,1.713,2.525,1.713h8.634c0.891,0,1.732-0.569,2.525-1.713
		c0.793-1.141,1.483-2.668,2.069-4.584c0.586-1.915,1.047-4.18,1.385-6.795c0.336-2.613,0.505-5.431,0.505-8.452V28.6z
		 M208.134,77.211V39.979c0-0.81-0.087-1.509-0.261-2.099c-0.174-0.588-0.38-0.884-0.619-0.884h-5.083
		c-0.239,0-0.445,0.295-0.619,0.884c-0.174,0.59-0.26,1.29-0.26,2.099v7.292c0,0.811,0.086,1.491,0.26,2.044
		c0.174,0.552,0.38,0.828,0.619,0.828h0.782c0.239,0,0.44,0.296,0.603,0.884c0.163,0.591,0.245,1.29,0.245,2.1v10.938
		c0,0.812-0.082,1.511-0.245,2.099c-0.163,0.591-0.364,0.884-0.603,0.884h-7.103c-0.891,0-1.732-0.607-2.525-1.826
		c-0.793-1.219-1.483-2.898-2.069-5.039s-1.048-4.633-1.385-7.475c-0.337-2.841-0.505-5.888-0.505-9.137
		c0-3.249,0.168-6.294,0.505-9.135c0.336-2.841,0.798-5.334,1.385-7.475c0.586-2.141,1.276-3.82,2.069-5.039
		c0.792-1.219,1.634-1.828,2.525-1.828h7.103c0.239,0,0.44-0.292,0.603-0.875c0.163-0.583,0.245-1.279,0.245-2.084V9.905
		c0-0.804-0.082-1.498-0.245-2.082c-0.163-0.583-0.364-0.877-0.603-0.877h-7.103c-1.499,0-2.9,0.958-4.203,2.873
		c-1.303,1.916-2.444,4.529-3.421,7.844c-0.978,3.314-1.749,7.2-2.313,11.656c-0.565,4.457-0.847,9.225-0.847,14.307
		c0,5.083,0.282,9.833,0.847,14.251c0.564,4.42,1.336,8.286,2.313,11.601c0.977,3.314,2.118,5.93,3.421,7.845
		c1.303,1.916,2.704,2.872,4.203,2.872h11.404c0.239,0,0.445-0.294,0.619-0.884C208.046,78.722,208.134,78.022,208.134,77.211z
		 M151.506,80.084L151.506,80.084z M139.646,69.81c0-0.81-0.087-1.492-0.26-2.044c-0.174-0.553-0.38-0.829-0.619-0.829h-4.855
		c-0.239,0-0.445,0.276-0.619,0.829c-0.174,0.552-0.261,1.234-0.261,2.044v7.401c0,0.812,0.087,1.492,0.261,2.044
		c0.174,0.553,0.38,0.829,0.619,0.829h4.855c0.239,0,0.445-0.276,0.619-0.829c0.173-0.552,0.26-1.232,0.26-2.044V69.81z
		 M139.646,39.979c0-0.81-0.087-1.509-0.26-2.099c-0.174-0.588-0.38-0.884-0.619-0.884h-4.855c-0.239,0-0.445,0.295-0.619,0.884
		c-0.174,0.59-0.261,1.29-0.261,2.099v7.292c0,0.811,0.087,1.491,0.261,2.044c0.174,0.552,0.38,0.828,0.619,0.828h4.855
		c0.239,0,0.445-0.276,0.619-0.828c0.173-0.553,0.26-1.233,0.26-2.044V39.979z M117.36,29.042V9.929c0-0.81-0.087-1.509-0.261-2.099
		c-0.174-0.589-0.38-0.884-0.619-0.884h-2.574c-0.239,0-0.445,0.295-0.619,0.884c-0.174,0.59-0.261,1.29-0.261,2.099v18.119
		c0,1.253-0.071,2.45-0.212,3.59c-0.142,1.143-0.332,2.118-0.57,2.928l-8.667,31.045l-0.032,0.11
		c-0.413,1.179-0.847,1.768-1.303,1.768c-0.608,0-1.119-0.81-1.532-2.431c-0.413-1.619-0.619-3.607-0.619-5.966V9.929
		c0-0.81-0.087-1.509-0.26-2.099c-0.174-0.589-0.38-0.884-0.619-0.884h-2.574c-0.239,0-0.445,0.295-0.619,0.884
		c-0.174,0.59-0.26,1.29-0.26,2.099v50.158c0,3.021,0.168,5.838,0.505,8.452c0.336,2.615,0.798,4.898,1.385,6.85
		c0.586,1.952,1.276,3.499,2.069,4.64c0.792,1.142,1.634,1.713,2.525,1.713c0.868,0,1.688-0.497,2.46-1.491
		c0.771-0.995,1.428-2.486,1.971-4.475l8.667-31.598c0.565-2.061,1.043-4.345,1.434-6.85
		C117.165,34.825,117.36,32.063,117.36,29.042z M87.45,40.532V28.49c0-2.945-0.168-5.738-0.505-8.379
		c-0.337-2.641-0.798-4.928-1.385-6.865c-0.586-1.935-1.276-3.468-2.069-4.6c-0.793-1.133-1.635-1.699-2.525-1.699h-8.634
		c-0.891,0-1.732,0.571-2.525,1.712c-0.793,1.143-1.482,2.689-2.069,4.64c-0.587,1.952-1.048,4.253-1.385,6.905
		c-0.337,2.652-0.505,5.452-0.505,8.396v48.611c0,0.812,0.087,1.511,0.261,2.1c0.174,0.59,0.38,0.884,0.619,0.884h2.574
		c0.239,0,0.445-0.295,0.619-0.886c0.174-0.59,0.261-1.291,0.261-2.103V28.505c0-2.362,0.206-4.354,0.619-5.977
		c0.413-1.623,0.923-2.436,1.531-2.436h8.634c0.586,0,1.092,0.812,1.515,2.431c0.424,1.621,0.635,3.609,0.635,5.966v12.042
		c0,0.811,0.087,1.51,0.261,2.099c0.174,0.59,0.38,0.884,0.619,0.884h2.574c0.239,0,0.445-0.293,0.619-0.884
		C87.363,42.042,87.45,41.343,87.45,40.532z M51.789,34.551c-0.423,1.631-0.928,2.446-1.515,2.446h-9.938
		c-0.239,0-0.439-0.278-0.603-0.833c-0.163-0.556-0.245-1.241-0.245-2.058v-5.561c0-2.372,0.207-4.373,0.619-6.004
		s0.923-2.448,1.532-2.448h8.634c0.586,0,1.091,0.816,1.515,2.448c0.424,1.631,0.636,3.632,0.636,6.004
		C52.424,30.917,52.212,32.919,51.789,34.551z M56.252,20.204c-0.337-2.651-0.798-4.953-1.385-6.905
		c-0.586-1.951-1.276-3.498-2.069-4.64c-0.793-1.141-1.635-1.712-2.525-1.712H41.64c-0.891,0-1.733,0.571-2.525,1.712
		c-0.793,1.143-1.482,2.689-2.069,4.64c-0.586,1.952-1.048,4.253-1.385,6.905c-0.337,2.652-0.505,5.452-0.505,8.396v30.05
		c0,3.021,0.168,5.839,0.505,8.452c0.336,2.615,0.798,4.88,1.385,6.795c0.586,1.916,1.276,3.443,2.069,4.584
		c0.792,1.144,1.634,1.713,2.525,1.713h9.938c0.239,0,0.44-0.294,0.603-0.884c0.163-0.589,0.245-1.288,0.245-2.1V69.92
		c0-0.81-0.082-1.491-0.245-2.044c-0.163-0.553-0.364-0.829-0.603-0.829H41.64c-0.608,0-1.119-0.81-1.532-2.431
		c-0.413-1.619-0.619-3.607-0.619-5.966v-5.523c0-0.81,0.082-1.509,0.245-2.1c0.163-0.588,0.363-0.884,0.603-0.884h9.938
		c0.89,0,1.732-0.569,2.525-1.712c0.792-1.141,1.482-2.669,2.069-4.585c0.586-1.915,1.048-4.18,1.385-6.795
		c0.336-2.613,0.505-5.431,0.505-8.452C56.758,25.655,56.589,22.855,56.252,20.204z M25.902,77.211V9.929
		c0-0.81-0.081-1.509-0.243-2.099c-0.162-0.589-0.361-0.884-0.598-0.884h-2.587c-0.237,0-0.436,0.295-0.598,0.884
		c-0.162,0.59-0.242,1.29-0.242,2.099v47.396L9.091,8.051C8.874,7.315,8.645,6.946,8.406,6.946h-3.2
		c-0.237,0-0.437,0.295-0.598,0.884C4.446,8.42,4.366,9.12,4.366,9.929v67.282c0,0.812,0.08,1.511,0.242,2.1
		c0.162,0.59,0.361,0.884,0.598,0.884h2.587c0.236,0,0.436-0.294,0.598-0.884c0.162-0.589,0.243-1.288,0.243-2.1v-48.39L21.537,79.2
		c0.15,0.663,0.355,0.994,0.614,0.994h2.911c0.237,0,0.436-0.294,0.598-0.884C25.821,78.722,25.902,78.022,25.902,77.211z"/>
</g>
</svg>
