<?xml version="1.0" encoding="iso-8859-1"?>
<!-- Generator: Adobe Illustrator 25.3.1, SVG Export Plug-In . SVG Version: 6.00 Build 0)  -->
<svg version="1.1" id="Layer_1" xmlns="http://www.w3.org/2000/svg" xmlns:xlink="http://www.w3.org/1999/xlink" x="0px" y="0px"
	 viewBox="0 0 1606 94" style="enable-background:new 0 0 1606 94;" xml:space="preserve">
<g>
	<path d="M1597.076,61.639c0,1.929-0.203,3.406-0.609,4.431c-0.406,1.025-0.908,1.538-1.506,1.538h-8.465
		c-0.598,0-1.102-0.512-1.506-1.538c-0.406-1.025-0.609-2.502-0.609-4.431V48.435c0-1.929,0.203-3.406,0.609-4.431
		c0.404-1.025,0.908-1.538,1.506-1.538h9.875c0.469,0,0.705,0.663,0.705,1.989V61.639z M1601.266,20.837
		c0-0.66-0.09-1.201-0.27-1.622c-0.18-0.419-0.387-0.631-0.619-0.631h-2.443c-0.234,0-0.436,0.211-0.604,0.631
		c-0.17,0.421-0.254,0.962-0.254,1.622v10.904h-10.553c-0.875,0-1.695,0.421-2.463,1.262c-0.768,0.842-1.439,1.998-2.014,3.469
		c-0.576,1.473-1.029,3.23-1.359,5.272c-0.332,2.043-0.496,4.267-0.496,6.668V61.48c0,2.464,0.164,4.717,0.494,6.759
		c0.33,2.043,0.783,3.816,1.357,5.317c0.574,1.502,1.246,2.674,2.012,3.515c0.766,0.842,1.586,1.262,2.459,1.262h8.43
		c0.871,0,1.691-0.419,2.457-1.262c0.768-0.84,1.438-2.012,2.012-3.515c0.576-1.501,1.027-3.273,1.357-5.317
		c0.33-2.042,0.496-4.294,0.496-6.759V20.837z M1573.379,75.899v-5.948c0-0.66-0.084-1.217-0.256-1.667
		c-0.17-0.451-0.373-0.676-0.607-0.676h-10.424c-0.234,0-0.432-0.239-0.592-0.721c-0.16-0.48-0.24-1.05-0.24-1.712V21.018
		c0-0.661-0.086-1.231-0.256-1.712c-0.17-0.48-0.373-0.721-0.607-0.721h-7.355c-0.234,0-0.438,0.24-0.607,0.715
		c-0.17,0.476-0.256,1.042-0.256,1.698v5.897c0,0.656,0.086,1.224,0.256,1.7s0.373,0.714,0.607,0.714h3.135
		c0.234,0,0.432,0.227,0.592,0.677c0.158,0.452,0.238,1.01,0.238,1.671v33.512c0,0.663-0.08,1.235-0.238,1.716
		c-0.16,0.481-0.357,0.722-0.592,0.722h-3.135c-0.234,0-0.438,0.226-0.607,0.676c-0.17,0.45-0.256,1.007-0.256,1.667v5.948
		c0,0.662,0.086,1.232,0.256,1.712c0.17,0.481,0.373,0.721,0.607,0.721h19.475c0.234,0,0.438-0.239,0.607-0.721
		C1573.295,77.131,1573.379,76.561,1573.379,75.899z M1543.129,45.98v-9.823c0-2.402-0.166-4.68-0.496-6.834
		c-0.332-2.154-0.783-4.02-1.359-5.6c-0.576-1.578-1.254-2.829-2.031-3.752s-1.604-1.386-2.479-1.386h-8.475
		c-0.873,0-1.699,0.466-2.479,1.397c-0.777,0.932-1.455,2.194-2.029,3.785c-0.576,1.592-1.029,3.469-1.359,5.632
		c-0.33,2.163-0.496,4.446-0.496,6.849v39.651c0,0.662,0.086,1.232,0.256,1.712c0.17,0.481,0.373,0.721,0.607,0.721h2.527
		c0.234,0,0.436-0.241,0.607-0.722c0.17-0.482,0.256-1.053,0.256-1.715V36.17c0-1.926,0.201-3.551,0.607-4.875
		c0.404-1.324,0.906-1.987,1.502-1.987h8.475c0.576,0,1.072,0.662,1.488,1.982c0.414,1.322,0.623,2.944,0.623,4.866v9.823
		c0,0.662,0.084,1.232,0.256,1.712c0.17,0.481,0.373,0.721,0.607,0.721h2.525c0.234,0,0.438-0.239,0.609-0.721
		C1543.043,47.212,1543.129,46.642,1543.129,45.98z M1508.238,60.744c0,1.926-0.207,3.553-0.623,4.878
		c-0.416,1.325-0.91,1.986-1.486,1.986h-8.475c-0.598,0-1.098-0.662-1.504-1.986c-0.404-1.325-0.607-2.952-0.607-4.878V36.173
		c0-1.926,0.203-3.551,0.607-4.876c0.406-1.325,0.906-1.988,1.504-1.988h8.475c0.576,0,1.07,0.663,1.486,1.988
		c0.416,1.325,0.623,2.95,0.623,4.876V60.744z M1512.492,36.248v-0.18c0-2.402-0.17-4.67-0.512-6.804
		c-0.342-2.132-0.799-3.979-1.375-5.542c-0.576-1.562-1.248-2.808-2.014-3.74c-0.768-0.931-1.59-1.397-2.463-1.397h-8.475
		c-0.875,0-1.695,0.466-2.463,1.397c-0.768,0.932-1.439,2.178-2.014,3.74c-0.576,1.563-1.035,3.411-1.375,5.542
		c-0.342,2.133-0.512,4.401-0.512,6.804v24.692c0,2.464,0.164,4.762,0.494,6.894c0.332,2.133,0.785,3.98,1.359,5.542
		c0.576,1.563,1.252,2.809,2.031,3.74c0.777,0.932,1.604,1.397,2.479,1.397h8.475c0.873,0,1.699-0.465,2.479-1.397
		c0.777-0.931,1.455-2.177,2.029-3.74c0.576-1.562,1.029-3.409,1.359-5.542c0.33-2.132,0.496-4.43,0.496-6.894V36.248z
		 M1482.721,61.931V20.928c0-0.66-0.08-1.217-0.238-1.667c-0.16-0.451-0.355-0.676-0.588-0.676h-2.539
		c-0.232,0-0.428,0.227-0.586,0.678c-0.16,0.452-0.238,1.008-0.238,1.67v41.076c0,1.926-0.211,3.553-0.629,4.876
		c-0.418,1.324-0.93,1.985-1.529,1.985c-0.58,0-1.08-0.66-1.5-1.982c-0.418-1.321-0.627-2.943-0.627-4.866v-5.677
		c0-0.661-0.08-1.217-0.238-1.667c-0.16-0.45-0.355-0.676-0.588-0.676h-2.539c-0.232,0-0.428,0.226-0.586,0.676
		c-0.16,0.451-0.238,1.007-0.238,1.667v5.677c0,1.923-0.211,3.545-0.629,4.866c-0.418,1.322-0.918,1.982-1.498,1.982
		c-0.602,0-1.111-0.662-1.531-1.985c-0.418-1.323-0.627-2.95-0.627-4.876V20.932c0-0.662-0.08-1.218-0.238-1.67
		c-0.158-0.451-0.355-0.678-0.586-0.678h-2.541c-0.232,0-0.428,0.226-0.586,0.676c-0.16,0.45-0.238,1.007-0.238,1.667v41.003
		c0,2.464,0.164,4.762,0.494,6.894c0.33,2.133,0.783,3.996,1.357,5.587c0.574,1.592,1.25,2.854,2.027,3.785s1.602,1.397,2.475,1.397
		c0.809,0,1.576-0.406,2.299-1.217c0.725-0.811,1.363-1.906,1.916-3.289c0.555,1.383,1.193,2.478,1.916,3.289
		c0.725,0.811,1.49,1.217,2.299,1.217c0.873,0,1.697-0.466,2.475-1.397s1.453-2.192,2.027-3.785
		c0.576-1.591,1.027-3.454,1.357-5.587C1482.555,66.693,1482.721,64.395,1482.721,61.931z M1427.559,78.242L1427.559,78.242z
		 M1418.908,41.101c-0.416,1.331-0.912,1.995-1.486,1.995h-9.754c-0.234,0-0.432-0.227-0.592-0.68
		c-0.16-0.454-0.24-1.013-0.24-1.679v-4.535c0-1.935,0.203-3.567,0.607-4.897c0.406-1.331,0.906-1.997,1.504-1.997h8.475
		c0.574,0,1.07,0.666,1.486,1.997s0.623,2.962,0.623,4.897C1419.531,38.137,1419.324,39.771,1418.908,41.101z M1423.289,29.399
		c-0.33-2.163-0.783-4.04-1.359-5.632c-0.574-1.591-1.252-2.853-2.029-3.785c-0.779-0.931-1.605-1.397-2.479-1.397h-8.475
		c-0.875,0-1.701,0.466-2.479,1.397c-0.779,0.932-1.455,2.194-2.031,3.785c-0.574,1.592-1.029,3.469-1.359,5.632
		c-0.33,2.163-0.494,4.446-0.494,6.849v24.512c0,2.464,0.164,4.762,0.494,6.894c0.33,2.133,0.785,3.98,1.359,5.542
		c0.576,1.563,1.252,2.809,2.031,3.74c0.777,0.932,1.604,1.397,2.479,1.397h9.754c0.234,0,0.432-0.239,0.592-0.721
		c0.158-0.48,0.238-1.051,0.238-1.712v-5.948c0-0.66-0.08-1.217-0.238-1.667c-0.16-0.451-0.357-0.676-0.592-0.676h-9.754
		c-0.598,0-1.098-0.66-1.504-1.982c-0.404-1.321-0.607-2.943-0.607-4.866v-4.506c0-0.66,0.08-1.23,0.24-1.712
		c0.16-0.48,0.357-0.721,0.592-0.721h9.754c0.873,0,1.699-0.465,2.479-1.397c0.777-0.931,1.455-2.177,2.029-3.74
		c0.576-1.562,1.029-3.409,1.359-5.542c0.33-2.132,0.496-4.43,0.496-6.894C1423.785,33.845,1423.619,31.562,1423.289,29.399z
		 M1393.533,75.899V48.774c0-2.402-0.166-4.686-0.496-6.849c-0.33-2.163-0.783-4.024-1.359-5.587
		c-0.574-1.562-1.252-2.808-2.029-3.74c-0.779-0.931-1.605-1.396-2.479-1.396h-9.754c-0.234,0-0.432-0.24-0.592-0.721
		c-0.16-0.48-0.24-1.05-0.24-1.712v-7.75c0-0.661-0.084-1.231-0.256-1.712c-0.17-0.48-0.373-0.721-0.607-0.721h-2.525
		c-0.236,0-0.438,0.241-0.607,0.721c-0.172,0.481-0.256,1.052-0.256,1.712v54.881c0,0.662,0.084,1.232,0.256,1.712
		c0.17,0.481,0.371,0.721,0.607,0.721h2.525c0.234,0,0.438-0.239,0.607-0.721c0.172-0.48,0.256-1.051,0.256-1.712V44.268
		c0-0.661,0.08-1.217,0.24-1.667c0.16-0.45,0.357-0.676,0.592-0.676h9.754c0.576,0,1.07,0.662,1.486,1.983
		c0.416,1.322,0.623,2.944,0.623,4.866v27.125c0,0.662,0.086,1.232,0.256,1.712c0.172,0.481,0.373,0.721,0.609,0.721h2.525
		c0.234,0,0.438-0.239,0.607-0.721C1393.447,77.131,1393.533,76.561,1393.533,75.899z M1364.049,60.759v-3.695
		c0-0.66-0.08-1.216-0.238-1.667s-0.354-0.676-0.586-0.676h-2.539c-0.234,0-0.43,0.225-0.588,0.676s-0.238,1.007-0.238,1.667v3.695
		c0,1.923-0.209,3.545-0.625,4.866c-0.418,1.322-0.926,1.982-1.523,1.982h-6.031c-0.578,0-1.074-0.66-1.492-1.982
		c-0.416-1.321-0.625-2.943-0.625-4.866V38.14h13.654c0.234,0,0.432-0.226,0.592-0.676c0.16-0.451,0.24-1.005,0.24-1.667v-6.038
		c0-0.661-0.08-1.217-0.24-1.667c-0.16-0.45-0.357-0.676-0.592-0.676h-13.654v-6.398c0-0.661-0.08-1.231-0.238-1.712
		c-0.158-0.48-0.354-0.721-0.586-0.721h-2.541c-0.232,0-0.428,0.241-0.586,0.721c-0.158,0.481-0.238,1.052-0.238,1.712v6.398h-2.207
		c-0.234,0-0.438,0.226-0.607,0.676c-0.17,0.451-0.256,1.007-0.256,1.667v6.038c0,0.662,0.086,1.217,0.256,1.667
		c0.17,0.45,0.373,0.676,0.607,0.676h2.207v22.619c0,2.404,0.166,4.672,0.494,6.804c0.33,2.133,0.783,3.996,1.357,5.587
		c0.574,1.592,1.244,2.854,2.012,3.785c0.766,0.932,1.586,1.397,2.457,1.397h6.002c0.873,0,1.697-0.465,2.475-1.397
		c0.777-0.931,1.453-2.192,2.027-3.785c0.574-1.591,1.027-3.454,1.357-5.587C1363.883,65.431,1364.049,63.163,1364.049,60.759z
		 M1308.598,78.242L1308.598,78.242z M1304.312,75.899V48.774c0-2.402-0.166-4.686-0.496-6.849c-0.33-2.163-0.783-4.024-1.359-5.587
		c-0.574-1.562-1.252-2.808-2.029-3.74c-0.779-0.931-1.605-1.396-2.479-1.396h-9.754c-0.234,0-0.432-0.24-0.592-0.721
		c-0.16-0.48-0.24-1.05-0.24-1.712v-7.75c0-0.661-0.084-1.231-0.256-1.712c-0.17-0.48-0.373-0.721-0.607-0.721h-2.525
		c-0.236,0-0.438,0.241-0.607,0.721c-0.172,0.481-0.256,1.052-0.256,1.712v54.881c0,0.662,0.084,1.232,0.256,1.712
		c0.17,0.481,0.371,0.721,0.607,0.721h2.525c0.234,0,0.438-0.239,0.607-0.721c0.172-0.48,0.256-1.051,0.256-1.712V44.268
		c0-0.661,0.08-1.217,0.24-1.667c0.16-0.45,0.357-0.676,0.592-0.676h9.754c0.576,0,1.07,0.662,1.486,1.983
		c0.416,1.322,0.623,2.944,0.623,4.866v27.125c0,0.662,0.086,1.232,0.256,1.712c0.172,0.481,0.373,0.721,0.609,0.721h2.525
		c0.234,0,0.438-0.239,0.607-0.721C1304.227,77.131,1304.312,76.561,1304.312,75.899z M1274.828,60.759v-3.695
		c0-0.66-0.08-1.216-0.238-1.667s-0.354-0.676-0.586-0.676h-2.539c-0.234,0-0.43,0.225-0.588,0.676s-0.238,1.007-0.238,1.667v3.695
		c0,1.923-0.209,3.545-0.625,4.866c-0.418,1.322-0.926,1.982-1.523,1.982h-6.031c-0.578,0-1.074-0.66-1.492-1.982
		c-0.416-1.321-0.625-2.943-0.625-4.866V38.14h13.654c0.234,0,0.432-0.226,0.592-0.676c0.16-0.451,0.24-1.005,0.24-1.667v-6.038
		c0-0.661-0.08-1.217-0.24-1.667c-0.16-0.45-0.357-0.676-0.592-0.676h-13.654v-6.398c0-0.661-0.08-1.231-0.238-1.712
		c-0.158-0.48-0.354-0.721-0.586-0.721h-2.541c-0.232,0-0.428,0.241-0.586,0.721c-0.158,0.481-0.238,1.052-0.238,1.712v6.398h-2.207
		c-0.234,0-0.438,0.226-0.607,0.676c-0.17,0.451-0.256,1.007-0.256,1.667v6.038c0,0.662,0.086,1.217,0.256,1.667
		c0.17,0.45,0.373,0.676,0.607,0.676h2.207v22.619c0,2.404,0.166,4.672,0.494,6.804c0.33,2.133,0.783,3.996,1.357,5.587
		c0.574,1.592,1.244,2.854,2.012,3.785c0.766,0.932,1.586,1.397,2.457,1.397h6.002c0.873,0,1.697-0.465,2.475-1.397
		c0.777-0.931,1.453-2.192,2.027-3.785c0.574-1.591,1.027-3.454,1.357-5.587C1274.662,65.431,1274.828,63.163,1274.828,60.759z
		 M1244.832,75.899v-5.948c0-0.66-0.086-1.217-0.256-1.667c-0.17-0.451-0.373-0.676-0.607-0.676h-6.779
		c-0.234,0-0.432-0.241-0.592-0.722s-0.24-1.053-0.24-1.716V31.657c0-0.662,0.08-1.219,0.24-1.671
		c0.16-0.451,0.357-0.677,0.592-0.677h2.559c0.234,0,0.432-0.238,0.592-0.714c0.158-0.476,0.238-1.043,0.238-1.7v-5.897
		c0-0.656-0.08-1.222-0.238-1.698c-0.16-0.476-0.357-0.715-0.592-0.715h-11.033c-0.234,0-0.432,0.24-0.592,0.715
		c-0.16,0.476-0.24,1.042-0.24,1.698v5.897c0,0.656,0.08,1.224,0.24,1.7s0.357,0.714,0.592,0.714h2.559
		c0.234,0,0.432,0.227,0.592,0.677c0.16,0.452,0.24,1.01,0.24,1.671v33.512c0,0.663-0.08,1.235-0.24,1.716s-0.357,0.722-0.592,0.722
		h-6.779c-0.236,0-0.438,0.226-0.607,0.676c-0.172,0.45-0.256,1.007-0.256,1.667v5.948c0,0.662,0.084,1.232,0.256,1.712
		c0.17,0.481,0.371,0.721,0.607,0.721h19.475c0.234,0,0.438-0.239,0.607-0.721C1244.746,77.131,1244.832,76.561,1244.832,75.899z
		 M1215.061,61.931V20.928c0-0.66-0.08-1.217-0.238-1.667c-0.16-0.451-0.355-0.676-0.588-0.676h-2.539
		c-0.232,0-0.428,0.227-0.586,0.678c-0.16,0.452-0.238,1.008-0.238,1.67v41.076c0,1.926-0.211,3.553-0.629,4.876
		c-0.418,1.324-0.93,1.985-1.529,1.985c-0.58,0-1.08-0.66-1.5-1.982c-0.418-1.321-0.627-2.943-0.627-4.866v-5.677
		c0-0.661-0.08-1.217-0.238-1.667c-0.16-0.45-0.355-0.676-0.588-0.676h-2.539c-0.232,0-0.428,0.226-0.586,0.676
		c-0.16,0.451-0.238,1.007-0.238,1.667v5.677c0,1.923-0.211,3.545-0.629,4.866c-0.418,1.322-0.918,1.982-1.498,1.982
		c-0.602,0-1.111-0.662-1.531-1.985c-0.418-1.323-0.627-2.95-0.627-4.876V20.932c0-0.662-0.08-1.218-0.238-1.67
		c-0.158-0.451-0.355-0.678-0.586-0.678h-2.541c-0.232,0-0.428,0.226-0.586,0.676c-0.16,0.45-0.238,1.007-0.238,1.667v41.003
		c0,2.464,0.164,4.762,0.494,6.894c0.33,2.133,0.783,3.996,1.357,5.587c0.574,1.592,1.25,2.854,2.027,3.785s1.602,1.397,2.475,1.397
		c0.809,0,1.576-0.406,2.299-1.217c0.725-0.811,1.363-1.906,1.916-3.289c0.555,1.383,1.193,2.478,1.916,3.289
		c0.725,0.811,1.49,1.217,2.299,1.217c0.873,0,1.697-0.466,2.475-1.397s1.453-2.192,2.027-3.785
		c0.576-1.591,1.027-3.454,1.357-5.587C1214.895,66.693,1215.061,64.395,1215.061,61.931z M1159.896,78.242L1159.896,78.242z
		 M1155.867,60.759v-3.695c0-0.66-0.08-1.216-0.238-1.667s-0.354-0.676-0.586-0.676h-2.539c-0.234,0-0.43,0.225-0.588,0.676
		s-0.238,1.007-0.238,1.667v3.695c0,1.923-0.209,3.545-0.625,4.866c-0.418,1.322-0.926,1.982-1.523,1.982h-6.031
		c-0.578,0-1.074-0.66-1.492-1.982c-0.416-1.321-0.625-2.943-0.625-4.866V38.14h13.654c0.234,0,0.432-0.226,0.592-0.676
		c0.16-0.451,0.24-1.005,0.24-1.667v-6.038c0-0.661-0.08-1.217-0.24-1.667c-0.16-0.45-0.357-0.676-0.592-0.676h-13.654v-6.398
		c0-0.661-0.08-1.231-0.238-1.712c-0.158-0.48-0.354-0.721-0.586-0.721h-2.541c-0.232,0-0.428,0.241-0.586,0.721
		c-0.158,0.481-0.238,1.052-0.238,1.712v6.398h-2.207c-0.234,0-0.438,0.226-0.607,0.676c-0.17,0.451-0.256,1.007-0.256,1.667v6.038
		c0,0.662,0.086,1.217,0.256,1.667c0.17,0.45,0.373,0.676,0.607,0.676h2.207v22.619c0,2.404,0.166,4.672,0.494,6.804
		c0.33,2.133,0.783,3.996,1.357,5.587c0.574,1.592,1.244,2.854,2.012,3.785c0.766,0.932,1.586,1.397,2.457,1.397h6.002
		c0.873,0,1.697-0.465,2.475-1.397c0.777-0.931,1.453-2.192,2.027-3.785c0.574-1.591,1.027-3.454,1.357-5.587
		C1155.701,65.431,1155.867,63.163,1155.867,60.759z M1125.871,75.899V48.774c0-2.402-0.166-4.686-0.496-6.849
		c-0.33-2.163-0.783-4.024-1.359-5.587c-0.574-1.562-1.252-2.808-2.029-3.74c-0.779-0.931-1.605-1.396-2.479-1.396h-9.754
		c-0.234,0-0.432-0.24-0.592-0.721c-0.16-0.48-0.24-1.05-0.24-1.712v-7.75c0-0.661-0.084-1.231-0.256-1.712
		c-0.17-0.48-0.373-0.721-0.607-0.721h-2.525c-0.236,0-0.438,0.241-0.607,0.721c-0.172,0.481-0.256,1.052-0.256,1.712v54.881
		c0,0.662,0.084,1.232,0.256,1.712c0.17,0.481,0.371,0.721,0.607,0.721h2.525c0.234,0,0.438-0.239,0.607-0.721
		c0.172-0.48,0.256-1.051,0.256-1.712V44.268c0-0.661,0.08-1.217,0.24-1.667c0.16-0.45,0.357-0.676,0.592-0.676h9.754
		c0.576,0,1.07,0.662,1.486,1.983c0.416,1.322,0.623,2.944,0.623,4.866v27.125c0,0.662,0.086,1.232,0.256,1.712
		c0.172,0.481,0.373,0.721,0.609,0.721h2.525c0.234,0,0.438-0.239,0.607-0.721C1125.785,77.131,1125.871,76.561,1125.871,75.899z
		 M1092.102,40.828c0,0.666-0.08,1.211-0.24,1.633c-0.16,0.424-0.357,0.635-0.592,0.635h-10.168c-0.598,0-1.1-0.665-1.504-1.995
		s-0.607-2.964-0.607-4.898c0-1.935,0.203-3.567,0.607-4.897s0.906-1.997,1.504-1.997h8.889c0.598,0,1.098,0.666,1.504,1.997
		c0.404,1.331,0.607,2.962,0.607,4.897V40.828z M1096.355,36.248c0-2.402-0.166-4.686-0.496-6.849
		c-0.33-2.163-0.783-4.04-1.359-5.632c-0.576-1.591-1.252-2.853-2.031-3.785c-0.777-0.931-1.604-1.397-2.479-1.397h-8.889
		c-0.875,0-1.701,0.466-2.479,1.397c-0.779,0.932-1.455,2.194-2.031,3.785c-0.576,1.592-1.029,3.469-1.359,5.632
		c-0.33,2.163-0.496,4.446-0.496,6.849c0,2.464,0.166,4.762,0.496,6.894c0.33,2.133,0.783,3.98,1.359,5.542
		c0.576,1.563,1.252,2.809,2.031,3.74c0.777,0.932,1.604,1.397,2.479,1.397h10.168c0.234,0,0.432,0.211,0.592,0.631
		c0.16,0.421,0.24,0.961,0.24,1.622v4.686c0,1.923-0.203,3.545-0.607,4.866c-0.406,1.322-0.906,1.982-1.504,1.982h-13.367
		c-0.234,0-0.436,0.226-0.607,0.676c-0.17,0.45-0.256,1.007-0.256,1.667v5.948c0,0.662,0.086,1.232,0.256,1.712
		c0.172,0.481,0.373,0.721,0.607,0.721h13.367c0.875,0,1.701-0.465,2.479-1.397c0.779-0.931,1.455-2.177,2.031-3.74
		c0.576-1.562,1.029-3.409,1.359-5.542c0.33-2.132,0.496-4.43,0.496-6.894V36.248z M1066.391,75.899v-5.948
		c0-0.66-0.086-1.217-0.256-1.667c-0.17-0.451-0.373-0.676-0.607-0.676h-6.779c-0.234,0-0.432-0.241-0.592-0.722
		s-0.24-1.053-0.24-1.716V31.657c0-0.662,0.08-1.219,0.24-1.671c0.16-0.451,0.357-0.677,0.592-0.677h2.559
		c0.234,0,0.432-0.238,0.592-0.714c0.158-0.476,0.238-1.043,0.238-1.7v-5.897c0-0.656-0.08-1.222-0.238-1.698
		c-0.16-0.476-0.357-0.715-0.592-0.715h-11.033c-0.234,0-0.432,0.24-0.592,0.715c-0.16,0.476-0.24,1.042-0.24,1.698v5.897
		c0,0.656,0.08,1.224,0.24,1.7s0.357,0.714,0.592,0.714h2.559c0.234,0,0.432,0.227,0.592,0.677c0.16,0.452,0.24,1.01,0.24,1.671
		v33.512c0,0.663-0.08,1.235-0.24,1.716s-0.357,0.722-0.592,0.722h-6.779c-0.236,0-0.438,0.226-0.607,0.676
		c-0.172,0.45-0.256,1.007-0.256,1.667v5.948c0,0.662,0.084,1.232,0.256,1.712c0.17,0.481,0.371,0.721,0.607,0.721h19.475
		c0.234,0,0.438-0.239,0.607-0.721C1066.305,77.131,1066.391,76.561,1066.391,75.899z M1037.547,45.98v-9.823
		c0-2.402-0.166-4.68-0.496-6.834c-0.332-2.154-0.783-4.02-1.359-5.6c-0.576-1.578-1.254-2.829-2.031-3.752
		s-1.604-1.386-2.479-1.386h-8.475c-0.873,0-1.699,0.466-2.479,1.397c-0.777,0.932-1.455,2.194-2.029,3.785
		c-0.576,1.592-1.029,3.469-1.359,5.632c-0.33,2.163-0.496,4.446-0.496,6.849v39.651c0,0.662,0.086,1.232,0.256,1.712
		c0.17,0.481,0.373,0.721,0.607,0.721h2.527c0.234,0,0.436-0.241,0.607-0.722c0.17-0.482,0.256-1.053,0.256-1.715V36.17
		c0-1.926,0.201-3.551,0.607-4.875c0.404-1.324,0.906-1.987,1.502-1.987h8.475c0.576,0,1.072,0.662,1.488,1.982
		c0.414,1.322,0.623,2.944,0.623,4.866v9.823c0,0.662,0.084,1.232,0.256,1.712c0.17,0.481,0.373,0.721,0.607,0.721h2.525
		c0.234,0,0.438-0.239,0.609-0.721C1037.461,47.212,1037.547,46.642,1037.547,45.98z M981.457,78.242L981.457,78.242z
		 M976.676,53.911c-0.33-2.163-0.783-4.04-1.359-5.632c-0.574-1.591-1.252-2.853-2.029-3.785c-0.779-0.931-1.605-1.397-2.479-1.397
		h-9.178c-0.598,0-1.1-0.665-1.504-1.995s-0.607-2.964-0.607-4.898c0-1.935,0.203-3.567,0.607-4.897s0.906-1.997,1.504-1.997h14.23
		c0.234,0,0.436-0.238,0.607-0.714c0.17-0.476,0.256-1.043,0.256-1.7v-5.897c0-0.656-0.086-1.222-0.256-1.698
		c-0.172-0.476-0.373-0.715-0.607-0.715h-14.23c-0.875,0-1.701,0.466-2.479,1.397c-0.779,0.932-1.455,2.194-2.031,3.785
		c-0.576,1.592-1.029,3.469-1.359,5.632c-0.33,2.163-0.496,4.446-0.496,6.849c0,2.464,0.166,4.762,0.496,6.894
		c0.33,2.133,0.783,3.98,1.359,5.542c0.576,1.563,1.252,2.809,2.031,3.74c0.777,0.932,1.604,1.397,2.479,1.397h9.178
		c0.576,0,1.07,0.676,1.486,2.028c0.416,1.352,0.623,2.989,0.623,4.911c0,1.923-0.207,3.545-0.623,4.866
		c-0.416,1.322-0.91,1.982-1.486,1.982h-9.754c-0.234,0-0.432,0.226-0.592,0.676c-0.16,0.45-0.24,1.007-0.24,1.667v5.948
		c0,0.662,0.08,1.232,0.24,1.712c0.16,0.481,0.357,0.721,0.592,0.721h9.754c0.873,0,1.699-0.465,2.479-1.397
		c0.777-0.931,1.455-2.192,2.029-3.785c0.576-1.591,1.029-3.454,1.359-5.587c0.33-2.132,0.496-4.4,0.496-6.804
		C977.172,58.357,977.006,56.073,976.676,53.911z M938.99,37.329V21.018c0-0.661-0.086-1.231-0.256-1.712
		c-0.172-0.48-0.375-0.721-0.609-0.721h-2.557c-0.236,0-0.438,0.241-0.607,0.721c-0.172,0.481-0.256,1.052-0.256,1.712v16.311
		c0,0.662,0.084,1.216,0.256,1.667c0.17,0.451,0.371,0.676,0.607,0.676h2.557c0.234,0,0.438-0.225,0.609-0.676
		C938.904,38.545,938.99,37.991,938.99,37.329z M919.098,75.899v-5.948c0-0.66-0.084-1.217-0.256-1.667
		c-0.17-0.451-0.373-0.676-0.607-0.676h-10.424c-0.234,0-0.432-0.239-0.592-0.721c-0.16-0.48-0.24-1.05-0.24-1.712V21.018
		c0-0.661-0.086-1.231-0.256-1.712c-0.17-0.48-0.373-0.721-0.607-0.721h-7.355c-0.234,0-0.438,0.24-0.607,0.715
		c-0.17,0.476-0.256,1.042-0.256,1.698v5.897c0,0.656,0.086,1.224,0.256,1.7s0.373,0.714,0.607,0.714h3.135
		c0.234,0,0.432,0.227,0.592,0.677c0.158,0.452,0.238,1.01,0.238,1.671v33.512c0,0.663-0.08,1.235-0.238,1.716
		c-0.16,0.481-0.357,0.722-0.592,0.722h-3.135c-0.234,0-0.438,0.226-0.607,0.676c-0.17,0.45-0.256,1.007-0.256,1.667v5.948
		c0,0.662,0.086,1.232,0.256,1.712c0.17,0.481,0.373,0.721,0.607,0.721h19.475c0.234,0,0.438-0.239,0.607-0.721
		C919.014,77.131,919.098,76.561,919.098,75.899z M889.357,75.899v-5.948c0-0.66-0.084-1.217-0.256-1.667
		c-0.17-0.451-0.373-0.676-0.607-0.676H878.07c-0.234,0-0.432-0.239-0.592-0.721c-0.16-0.48-0.24-1.05-0.24-1.712V21.018
		c0-0.661-0.086-1.231-0.256-1.712c-0.17-0.48-0.373-0.721-0.607-0.721h-7.355c-0.234,0-0.438,0.24-0.607,0.715
		c-0.17,0.476-0.256,1.042-0.256,1.698v5.897c0,0.656,0.086,1.224,0.256,1.7s0.373,0.714,0.607,0.714h3.135
		c0.234,0,0.432,0.227,0.592,0.677c0.158,0.452,0.238,1.01,0.238,1.671v33.512c0,0.663-0.08,1.235-0.238,1.716
		c-0.16,0.481-0.357,0.722-0.592,0.722h-3.135c-0.234,0-0.438,0.226-0.607,0.676c-0.17,0.45-0.256,1.007-0.256,1.667v5.948
		c0,0.662,0.086,1.232,0.256,1.712c0.17,0.481,0.373,0.721,0.607,0.721h19.475c0.234,0,0.438-0.239,0.607-0.721
		C889.273,77.131,889.357,76.561,889.357,75.899z M853.318,61.48c0,1.924-0.203,3.425-0.609,4.506
		c-0.406,1.082-0.908,1.622-1.506,1.622h-8.465c-0.598,0-1.102-0.676-1.506-2.027c-0.406-1.352-0.609-2.988-0.609-4.912
		c0-1.922,0.203-3.56,0.609-4.911c0.404-1.352,0.908-2.028,1.506-2.028h9.875c0.469,0,0.705,0.662,0.705,1.983V61.48z
		 M857.508,36.428c0-2.402-0.164-4.686-0.492-6.849c-0.328-2.163-0.777-4.056-1.35-5.678c-0.57-1.622-1.238-2.913-2.002-3.875
		c-0.764-0.96-1.582-1.442-2.457-1.442h-5.275c-0.234,0-0.469,0.331-0.703,0.992c-0.236,0.662-0.354,1.322-0.354,1.982v4.866
		c0,0.782,0.117,1.458,0.354,2.028c0.234,0.571,0.469,0.856,0.703,0.856h5.275c0.598,0,1.098,0.676,1.504,2.028
		c0.404,1.352,0.607,2.989,0.607,4.911v4.596c0,1.322-0.234,1.982-0.703,1.982h-9.85c-0.875,0-1.695,0.481-2.463,1.442
		c-0.768,0.961-1.439,2.253-2.014,3.875c-0.576,1.622-1.029,3.515-1.359,5.677c-0.332,2.163-0.496,4.447-0.496,6.849
		c0,2.464,0.164,4.762,0.494,6.894c0.33,2.133,0.783,3.996,1.357,5.587c0.574,1.592,1.246,2.854,2.012,3.785
		c0.766,0.932,1.586,1.397,2.459,1.397h8.43c0.873,0,1.691-0.419,2.459-1.262c0.766-0.84,1.436-2.012,2.01-3.515
		c0.576-1.501,1.027-3.273,1.357-5.317c0.33-2.042,0.496-4.294,0.496-6.759V36.428z M803.016,78.242L803.016,78.242z
		 M791.246,86.172V69.861c0-0.66-0.086-1.216-0.256-1.667s-0.373-0.676-0.607-0.676h-4.766c-0.234,0-0.436,0.225-0.607,0.676
		c-0.17,0.451-0.256,1.007-0.256,1.667v6.038c0,0.662,0.086,1.216,0.256,1.667c0.172,0.451,0.373,0.676,0.607,0.676h1.375v7.931
		c0,0.66,0.086,1.23,0.256,1.712c0.172,0.48,0.373,0.721,0.609,0.721h2.525c0.234,0,0.438-0.241,0.607-0.721
		C791.16,87.403,791.246,86.833,791.246,86.172z M768.928,75.899V36.248c0-2.463-0.166-4.761-0.496-6.894
		c-0.33-2.132-0.781-3.995-1.357-5.587c-0.574-1.591-1.244-2.853-2.012-3.785c-0.766-0.931-1.586-1.397-2.457-1.397h-8.494
		c-0.873,0-1.691,0.466-2.459,1.397c-0.766,0.932-1.438,2.178-2.012,3.74c-0.574,1.563-1.027,3.411-1.357,5.542
		c-0.33,2.133-0.494,4.401-0.494,6.804v39.832c0,0.662,0.078,1.232,0.238,1.712c0.158,0.481,0.354,0.721,0.586,0.721h2.541
		c0.23,0,0.428-0.241,0.586-0.722c0.158-0.482,0.238-1.053,0.238-1.715V36.17c0-1.926,0.209-3.551,0.625-4.875
		s0.914-1.987,1.49-1.987h8.527c0.578,0,1.074,0.663,1.492,1.987c0.416,1.324,0.625,2.948,0.625,4.875v39.725
		c0,0.662,0.078,1.233,0.238,1.715c0.158,0.481,0.354,0.722,0.586,0.722h2.539c0.232,0,0.428-0.239,0.588-0.721
		C768.848,77.131,768.928,76.561,768.928,75.899z M734.854,41.101c-0.416,1.331-0.912,1.995-1.486,1.995h-9.754
		c-0.234,0-0.432-0.227-0.592-0.68c-0.16-0.454-0.24-1.013-0.24-1.679v-4.535c0-1.935,0.203-3.567,0.607-4.897
		c0.406-1.331,0.906-1.997,1.504-1.997h8.475c0.574,0,1.07,0.666,1.486,1.997s0.623,2.962,0.623,4.897
		C735.477,38.137,735.27,39.771,734.854,41.101z M739.234,29.399c-0.33-2.163-0.783-4.04-1.359-5.632
		c-0.574-1.591-1.252-2.853-2.029-3.785c-0.779-0.931-1.605-1.397-2.479-1.397h-8.475c-0.875,0-1.701,0.466-2.479,1.397
		c-0.779,0.932-1.455,2.194-2.031,3.785c-0.574,1.592-1.029,3.469-1.359,5.632c-0.33,2.163-0.494,4.446-0.494,6.849v24.512
		c0,2.464,0.164,4.762,0.494,6.894c0.33,2.133,0.785,3.98,1.359,5.542c0.576,1.563,1.252,2.809,2.031,3.74
		c0.777,0.932,1.604,1.397,2.479,1.397h9.754c0.234,0,0.432-0.239,0.592-0.721c0.158-0.48,0.238-1.051,0.238-1.712v-5.948
		c0-0.66-0.08-1.217-0.238-1.667c-0.16-0.451-0.357-0.676-0.592-0.676h-9.754c-0.598,0-1.098-0.66-1.504-1.982
		c-0.404-1.321-0.607-2.943-0.607-4.866v-4.506c0-0.66,0.08-1.23,0.24-1.712c0.16-0.48,0.357-0.721,0.592-0.721h9.754
		c0.873,0,1.699-0.465,2.479-1.397c0.777-0.931,1.455-2.177,2.029-3.74c0.576-1.562,1.029-3.409,1.359-5.542
		c0.33-2.132,0.496-4.43,0.496-6.894C739.73,33.845,739.564,31.562,739.234,29.399z M709.99,36.608v-15.59
		c0-0.661-0.086-1.231-0.256-1.712c-0.17-0.48-0.373-0.721-0.607-0.721H706.6c-0.234,0-0.436,0.241-0.607,0.721
		c-0.17,0.481-0.256,1.052-0.256,1.712v14.779c0,1.022-0.068,1.998-0.207,2.929c-0.139,0.932-0.326,1.728-0.561,2.388l-8.506,25.323
		l-0.031,0.09c-0.406,0.961-0.832,1.442-1.279,1.442c-0.598,0-1.098-0.661-1.504-1.983c-0.404-1.321-0.607-2.943-0.607-4.866V21.018
		c0-0.661-0.086-1.231-0.256-1.712c-0.17-0.48-0.373-0.721-0.607-0.721h-2.525c-0.236,0-0.438,0.241-0.607,0.721
		c-0.172,0.481-0.256,1.052-0.256,1.712v40.913c0,2.464,0.164,4.762,0.494,6.894c0.33,2.133,0.785,3.996,1.359,5.587
		c0.576,1.592,1.252,2.854,2.031,3.785c0.777,0.931,1.604,1.397,2.479,1.397c0.852,0,1.656-0.406,2.414-1.217
		c0.756-0.811,1.402-2.027,1.936-3.649l8.506-25.773c0.555-1.681,1.023-3.544,1.406-5.587
		C709.799,41.325,709.99,39.072,709.99,36.608z M674.846,61.48c0,1.924-0.203,3.425-0.609,4.506
		c-0.406,1.082-0.908,1.622-1.506,1.622h-8.465c-0.598,0-1.102-0.676-1.506-2.027c-0.406-1.352-0.609-2.988-0.609-4.912
		c0-1.922,0.203-3.56,0.609-4.911c0.404-1.352,0.908-2.028,1.506-2.028h9.875c0.469,0,0.705,0.662,0.705,1.983V61.48z
		 M679.035,36.428c0-2.402-0.164-4.686-0.492-6.849c-0.328-2.163-0.777-4.056-1.35-5.678c-0.57-1.622-1.238-2.913-2.002-3.875
		c-0.764-0.96-1.582-1.442-2.457-1.442h-5.275c-0.234,0-0.469,0.331-0.703,0.992c-0.236,0.662-0.354,1.322-0.354,1.982v4.866
		c0,0.782,0.117,1.458,0.354,2.028c0.234,0.571,0.469,0.856,0.703,0.856h5.275c0.598,0,1.098,0.676,1.504,2.028
		c0.404,1.352,0.607,2.989,0.607,4.911v4.596c0,1.322-0.234,1.982-0.703,1.982h-9.85c-0.875,0-1.695,0.481-2.463,1.442
		c-0.768,0.961-1.439,2.253-2.014,3.875c-0.576,1.622-1.029,3.515-1.359,5.677c-0.332,2.163-0.496,4.447-0.496,6.849
		c0,2.464,0.164,4.762,0.494,6.894c0.33,2.133,0.783,3.996,1.357,5.587c0.574,1.592,1.246,2.854,2.012,3.785
		c0.766,0.932,1.586,1.397,2.459,1.397h8.43c0.873,0,1.691-0.419,2.459-1.262c0.766-0.84,1.436-2.012,2.01-3.515
		c0.576-1.501,1.027-3.273,1.357-5.317c0.33-2.042,0.496-4.294,0.496-6.759V36.428z M645.633,41.101
		c-0.416,1.331-0.912,1.995-1.486,1.995h-9.754c-0.234,0-0.432-0.227-0.592-0.68c-0.16-0.454-0.24-1.013-0.24-1.679v-4.535
		c0-1.935,0.203-3.567,0.607-4.897c0.406-1.331,0.906-1.997,1.504-1.997h8.475c0.574,0,1.07,0.666,1.486,1.997
		s0.623,2.962,0.623,4.897C646.256,38.137,646.049,39.771,645.633,41.101z M650.014,29.399c-0.33-2.163-0.783-4.04-1.359-5.632
		c-0.574-1.591-1.252-2.853-2.029-3.785c-0.779-0.931-1.605-1.397-2.479-1.397h-8.475c-0.875,0-1.701,0.466-2.479,1.397
		c-0.779,0.932-1.455,2.194-2.031,3.785c-0.574,1.592-1.029,3.469-1.359,5.632c-0.33,2.163-0.494,4.446-0.494,6.849v24.512
		c0,2.464,0.164,4.762,0.494,6.894c0.33,2.133,0.785,3.98,1.359,5.542c0.576,1.563,1.252,2.809,2.031,3.74
		c0.777,0.932,1.604,1.397,2.479,1.397h9.754c0.234,0,0.432-0.239,0.592-0.721c0.158-0.48,0.238-1.051,0.238-1.712v-5.948
		c0-0.66-0.08-1.217-0.238-1.667c-0.16-0.451-0.357-0.676-0.592-0.676h-9.754c-0.598,0-1.098-0.66-1.504-1.982
		c-0.404-1.321-0.607-2.943-0.607-4.866v-4.506c0-0.66,0.08-1.23,0.24-1.712c0.16-0.48,0.357-0.721,0.592-0.721h9.754
		c0.873,0,1.699-0.465,2.479-1.397c0.777-0.931,1.455-2.177,2.029-3.74c0.576-1.562,1.029-3.409,1.359-5.542
		c0.33-2.132,0.496-4.43,0.496-6.894C650.51,33.845,650.344,31.562,650.014,29.399z M620.258,75.899V48.774
		c0-2.402-0.166-4.686-0.496-6.849c-0.33-2.163-0.783-4.024-1.359-5.587c-0.574-1.562-1.252-2.808-2.029-3.74
		c-0.779-0.931-1.605-1.396-2.479-1.396h-9.754c-0.234,0-0.432-0.24-0.592-0.721c-0.16-0.48-0.24-1.05-0.24-1.712v-7.75
		c0-0.661-0.084-1.231-0.256-1.712c-0.17-0.48-0.373-0.721-0.607-0.721h-2.525c-0.236,0-0.438,0.241-0.607,0.721
		c-0.172,0.481-0.256,1.052-0.256,1.712v54.881c0,0.662,0.084,1.232,0.256,1.712c0.17,0.481,0.371,0.721,0.607,0.721h2.525
		c0.234,0,0.438-0.239,0.607-0.721c0.172-0.48,0.256-1.051,0.256-1.712V44.268c0-0.661,0.08-1.217,0.24-1.667
		c0.16-0.45,0.357-0.676,0.592-0.676h9.754c0.576,0,1.07,0.662,1.486,1.983c0.416,1.322,0.623,2.944,0.623,4.866v27.125
		c0,0.662,0.086,1.232,0.256,1.712c0.172,0.481,0.373,0.721,0.609,0.721h2.525c0.234,0,0.438-0.239,0.607-0.721
		C620.172,77.131,620.258,76.561,620.258,75.899z M565.062,78.242L565.062,78.242z M560.281,53.911
		c-0.33-2.163-0.783-4.04-1.359-5.632c-0.574-1.591-1.252-2.853-2.029-3.785c-0.779-0.931-1.605-1.397-2.479-1.397h-9.178
		c-0.598,0-1.1-0.665-1.504-1.995s-0.607-2.964-0.607-4.898c0-1.935,0.203-3.567,0.607-4.897s0.906-1.997,1.504-1.997h14.23
		c0.234,0,0.436-0.238,0.607-0.714c0.17-0.476,0.256-1.043,0.256-1.7v-5.897c0-0.656-0.086-1.222-0.256-1.698
		c-0.172-0.476-0.373-0.715-0.607-0.715h-14.23c-0.875,0-1.701,0.466-2.479,1.397c-0.779,0.932-1.455,2.194-2.031,3.785
		c-0.576,1.592-1.029,3.469-1.359,5.632c-0.33,2.163-0.496,4.446-0.496,6.849c0,2.464,0.166,4.762,0.496,6.894
		c0.33,2.133,0.783,3.98,1.359,5.542c0.576,1.563,1.252,2.809,2.031,3.74c0.777,0.932,1.604,1.397,2.479,1.397h9.178
		c0.576,0,1.07,0.676,1.486,2.028c0.416,1.352,0.623,2.989,0.623,4.911c0,1.923-0.207,3.545-0.623,4.866
		c-0.416,1.322-0.91,1.982-1.486,1.982h-9.754c-0.234,0-0.432,0.226-0.592,0.676c-0.16,0.45-0.24,1.007-0.24,1.667v5.948
		c0,0.662,0.08,1.232,0.24,1.712c0.16,0.481,0.357,0.721,0.592,0.721h9.754c0.873,0,1.699-0.465,2.479-1.397
		c0.777-0.931,1.455-2.192,2.029-3.785c0.576-1.591,1.029-3.454,1.359-5.587c0.33-2.132,0.496-4.4,0.496-6.804
		C560.777,58.357,560.611,56.073,560.281,53.911z M531.037,75.899v-5.948c0-0.66-0.086-1.217-0.256-1.667
		c-0.17-0.451-0.373-0.676-0.607-0.676h-6.779c-0.234,0-0.432-0.241-0.592-0.722s-0.24-1.053-0.24-1.716V31.657
		c0-0.662,0.08-1.219,0.24-1.671c0.16-0.451,0.357-0.677,0.592-0.677h2.559c0.234,0,0.432-0.238,0.592-0.714
		c0.158-0.476,0.238-1.043,0.238-1.7v-5.897c0-0.656-0.08-1.222-0.238-1.698c-0.16-0.476-0.357-0.715-0.592-0.715H514.92
		c-0.234,0-0.432,0.24-0.592,0.715c-0.16,0.476-0.24,1.042-0.24,1.698v5.897c0,0.656,0.08,1.224,0.24,1.7s0.357,0.714,0.592,0.714
		h2.559c0.234,0,0.432,0.227,0.592,0.677c0.16,0.452,0.24,1.01,0.24,1.671v33.512c0,0.663-0.08,1.235-0.24,1.716
		s-0.357,0.722-0.592,0.722h-6.779c-0.236,0-0.438,0.226-0.607,0.676c-0.172,0.45-0.256,1.007-0.256,1.667v5.948
		c0,0.662,0.084,1.232,0.256,1.712c0.17,0.481,0.371,0.721,0.607,0.721h19.475c0.234,0,0.438-0.239,0.607-0.721
		C530.951,77.131,531.037,76.561,531.037,75.899z M501.297,75.899V21.018c0-0.661-0.086-1.231-0.256-1.712
		c-0.17-0.48-0.373-0.721-0.607-0.721h-2.525c-0.236,0-0.438,0.241-0.609,0.721c-0.17,0.481-0.256,1.052-0.256,1.712v31.901
		c0,0.662-0.08,1.232-0.238,1.712c-0.16,0.481-0.357,0.721-0.592,0.721H485.18c-0.234,0-0.432-0.239-0.592-0.721
		c-0.16-0.48-0.24-1.05-0.24-1.712V21.018c0-0.661-0.084-1.231-0.256-1.712c-0.17-0.48-0.373-0.721-0.607-0.721h-2.525
		c-0.236,0-0.438,0.241-0.607,0.721c-0.172,0.481-0.256,1.052-0.256,1.712v54.881c0,0.662,0.084,1.232,0.256,1.712
		c0.17,0.481,0.371,0.721,0.607,0.721h2.525c0.234,0,0.438-0.239,0.607-0.721c0.172-0.48,0.256-1.051,0.256-1.712v-7.39
		c0-0.66,0.08-1.23,0.24-1.712c0.16-0.48,0.357-0.721,0.592-0.721h11.033c0.234,0,0.432,0.241,0.592,0.721
		c0.158,0.482,0.238,1.052,0.238,1.712v7.39c0,0.662,0.086,1.232,0.256,1.712c0.172,0.481,0.373,0.721,0.609,0.721h2.525
		c0.234,0,0.438-0.239,0.607-0.721C501.211,77.131,501.297,76.561,501.297,75.899z M446.102,78.242L446.102,78.242z M441.785,75.899
		V36.248c0-2.463-0.166-4.761-0.496-6.894c-0.33-2.132-0.781-3.995-1.357-5.587c-0.574-1.591-1.244-2.853-2.012-3.785
		c-0.766-0.931-1.586-1.397-2.457-1.397h-8.494c-0.873,0-1.691,0.466-2.459,1.397c-0.766,0.932-1.438,2.178-2.012,3.74
		c-0.574,1.563-1.027,3.411-1.357,5.542c-0.33,2.133-0.494,4.401-0.494,6.804v39.832c0,0.662,0.078,1.232,0.238,1.712
		c0.158,0.481,0.354,0.721,0.586,0.721h2.541c0.23,0,0.428-0.241,0.586-0.722c0.158-0.482,0.238-1.053,0.238-1.715V36.17
		c0-1.926,0.209-3.551,0.625-4.875s0.914-1.987,1.49-1.987h8.527c0.578,0,1.074,0.663,1.492,1.987
		c0.416,1.324,0.625,2.948,0.625,4.875v39.725c0,0.662,0.078,1.233,0.238,1.715c0.158,0.481,0.354,0.722,0.586,0.722h2.539
		c0.232,0,0.428-0.239,0.588-0.721C441.705,77.131,441.785,76.561,441.785,75.899z M412.076,75.899v-5.948
		c0-0.66-0.086-1.217-0.256-1.667c-0.17-0.451-0.373-0.676-0.607-0.676h-6.779c-0.234,0-0.432-0.241-0.592-0.722
		s-0.24-1.053-0.24-1.716V31.657c0-0.662,0.08-1.219,0.24-1.671c0.16-0.451,0.357-0.677,0.592-0.677h2.559
		c0.234,0,0.432-0.238,0.592-0.714c0.158-0.476,0.238-1.043,0.238-1.7v-5.897c0-0.656-0.08-1.222-0.238-1.698
		c-0.16-0.476-0.357-0.715-0.592-0.715h-11.033c-0.234,0-0.432,0.24-0.592,0.715c-0.16,0.476-0.24,1.042-0.24,1.698v5.897
		c0,0.656,0.08,1.224,0.24,1.7s0.357,0.714,0.592,0.714h2.559c0.234,0,0.432,0.227,0.592,0.677c0.16,0.452,0.24,1.01,0.24,1.671
		v33.512c0,0.663-0.08,1.235-0.24,1.716s-0.357,0.722-0.592,0.722h-6.779c-0.236,0-0.438,0.226-0.607,0.676
		c-0.172,0.45-0.256,1.007-0.256,1.667v5.948c0,0.662,0.084,1.232,0.256,1.712c0.17,0.481,0.371,0.721,0.607,0.721h19.475
		c0.234,0,0.438-0.239,0.607-0.721C411.99,77.131,412.076,76.561,412.076,75.899z M356.881,78.242L356.881,78.242z M352.1,53.911
		c-0.33-2.163-0.783-4.04-1.359-5.632c-0.574-1.591-1.252-2.853-2.029-3.785c-0.779-0.931-1.605-1.397-2.479-1.397h-9.178
		c-0.598,0-1.1-0.665-1.504-1.995s-0.607-2.964-0.607-4.898c0-1.935,0.203-3.567,0.607-4.897s0.906-1.997,1.504-1.997h14.23
		c0.234,0,0.436-0.238,0.607-0.714c0.17-0.476,0.256-1.043,0.256-1.7v-5.897c0-0.656-0.086-1.222-0.256-1.698
		c-0.172-0.476-0.373-0.715-0.607-0.715h-14.23c-0.875,0-1.701,0.466-2.479,1.397c-0.779,0.932-1.455,2.194-2.031,3.785
		c-0.576,1.592-1.029,3.469-1.359,5.632c-0.33,2.163-0.496,4.446-0.496,6.849c0,2.464,0.166,4.762,0.496,6.894
		c0.33,2.133,0.783,3.98,1.359,5.542c0.576,1.563,1.252,2.809,2.031,3.74c0.777,0.932,1.604,1.397,2.479,1.397h9.178
		c0.576,0,1.07,0.676,1.486,2.028c0.416,1.352,0.623,2.989,0.623,4.911c0,1.923-0.207,3.545-0.623,4.866
		c-0.416,1.322-0.91,1.982-1.486,1.982h-9.754c-0.234,0-0.432,0.226-0.592,0.676c-0.16,0.45-0.24,1.007-0.24,1.667v5.948
		c0,0.662,0.08,1.232,0.24,1.712c0.16,0.481,0.357,0.721,0.592,0.721h9.754c0.873,0,1.699-0.465,2.479-1.397
		c0.777-0.931,1.455-2.192,2.029-3.785c0.576-1.591,1.029-3.454,1.359-5.587c0.33-2.132,0.496-4.4,0.496-6.804
		C352.596,58.357,352.43,56.073,352.1,53.911z M314.414,37.329V21.018c0-0.661-0.086-1.231-0.256-1.712
		c-0.172-0.48-0.375-0.721-0.609-0.721h-2.557c-0.236,0-0.438,0.241-0.607,0.721c-0.172,0.481-0.256,1.052-0.256,1.712v16.311
		c0,0.662,0.084,1.216,0.256,1.667c0.17,0.451,0.371,0.676,0.607,0.676h2.557c0.234,0,0.438-0.225,0.609-0.676
		C314.328,38.545,314.414,37.991,314.414,37.329z M288.479,61.639c0,1.929-0.203,3.406-0.609,4.431
		c-0.406,1.025-0.908,1.538-1.506,1.538h-8.465c-0.598,0-1.102-0.512-1.506-1.538c-0.406-1.025-0.609-2.502-0.609-4.431V48.435
		c0-1.929,0.203-3.406,0.609-4.431c0.404-1.025,0.908-1.538,1.506-1.538h9.875c0.469,0,0.705,0.663,0.705,1.989V61.639z
		 M292.668,20.837c0-0.66-0.09-1.201-0.27-1.622c-0.18-0.419-0.387-0.631-0.619-0.631h-2.443c-0.234,0-0.436,0.211-0.604,0.631
		c-0.17,0.421-0.254,0.962-0.254,1.622v10.904h-10.553c-0.875,0-1.695,0.421-2.463,1.262c-0.768,0.842-1.439,1.998-2.014,3.469
		c-0.576,1.473-1.029,3.23-1.359,5.272c-0.332,2.043-0.496,4.267-0.496,6.668V61.48c0,2.464,0.164,4.717,0.494,6.759
		c0.33,2.043,0.783,3.816,1.357,5.317c0.574,1.502,1.246,2.674,2.012,3.515c0.766,0.842,1.586,1.262,2.459,1.262h8.43
		c0.871,0,1.691-0.419,2.457-1.262c0.768-0.84,1.438-2.012,2.012-3.515c0.576-1.501,1.027-3.273,1.357-5.317
		c0.33-2.042,0.496-4.294,0.496-6.759V20.837z M259.123,60.744c0,1.926-0.207,3.553-0.623,4.878
		c-0.416,1.325-0.91,1.986-1.486,1.986h-8.475c-0.598,0-1.098-0.662-1.504-1.986c-0.404-1.325-0.607-2.952-0.607-4.878V36.173
		c0-1.926,0.203-3.551,0.607-4.876c0.406-1.325,0.906-1.988,1.504-1.988h8.475c0.576,0,1.07,0.663,1.486,1.988
		c0.416,1.325,0.623,2.95,0.623,4.876V60.744z M263.377,36.248v-0.18c0-2.402-0.17-4.67-0.512-6.804
		c-0.342-2.132-0.799-3.979-1.375-5.542c-0.576-1.562-1.248-2.808-2.014-3.74c-0.768-0.931-1.59-1.397-2.463-1.397h-8.475
		c-0.875,0-1.695,0.466-2.463,1.397c-0.768,0.932-1.439,2.178-2.014,3.74c-0.576,1.563-1.035,3.411-1.375,5.542
		c-0.342,2.133-0.512,4.401-0.512,6.804v24.692c0,2.464,0.164,4.762,0.494,6.894c0.332,2.133,0.785,3.98,1.359,5.542
		c0.576,1.563,1.252,2.809,2.031,3.74c0.777,0.932,1.604,1.397,2.479,1.397h8.475c0.873,0,1.699-0.465,2.479-1.397
		c0.777-0.931,1.455-2.177,2.029-3.74c0.576-1.562,1.029-3.409,1.359-5.542c0.33-2.132,0.496-4.43,0.496-6.894V36.248z
		 M234.021,75.899V45.53c0-0.661-0.086-1.231-0.256-1.712c-0.172-0.48-0.375-0.721-0.609-0.721h-4.988
		c-0.234,0-0.438,0.241-0.607,0.721c-0.17,0.481-0.256,1.052-0.256,1.712v5.947c0,0.662,0.086,1.217,0.256,1.667
		s0.373,0.676,0.607,0.676h0.768c0.234,0,0.432,0.241,0.592,0.721c0.16,0.482,0.24,1.052,0.24,1.712v8.921
		c0,0.662-0.08,1.232-0.24,1.712c-0.16,0.481-0.357,0.721-0.592,0.721h-6.971c-0.875,0-1.701-0.496-2.479-1.489
		c-0.779-0.994-1.455-2.364-2.031-4.11c-0.574-1.746-1.029-3.779-1.359-6.097c-0.33-2.317-0.494-4.803-0.494-7.453
		s0.164-5.134,0.494-7.452s0.785-4.351,1.359-6.097c0.576-1.746,1.252-3.116,2.031-4.11c0.777-0.994,1.604-1.491,2.479-1.491h6.971
		c0.234,0,0.432-0.238,0.592-0.714s0.24-1.043,0.24-1.7v-5.897c0-0.656-0.08-1.222-0.24-1.698c-0.16-0.476-0.357-0.715-0.592-0.715
		h-6.971c-1.471,0-2.846,0.782-4.125,2.343c-1.279,1.563-2.398,3.695-3.357,6.398c-0.961,2.703-1.717,5.873-2.271,9.507
		c-0.555,3.635-0.832,7.524-0.832,11.67s0.277,8.021,0.832,11.625s1.311,6.759,2.271,9.462c0.959,2.704,2.078,4.836,3.357,6.398
		c1.279,1.563,2.654,2.343,4.125,2.343h11.191c0.234,0,0.438-0.239,0.609-0.721C233.936,77.131,234.021,76.561,234.021,75.899z
		 M178.441,78.242L178.441,78.242z M148.701,78.242L148.701,78.242z M137.061,69.861c0-0.66-0.086-1.216-0.256-1.667
		s-0.373-0.676-0.607-0.676h-4.764c-0.236,0-0.438,0.225-0.609,0.676c-0.17,0.451-0.256,1.007-0.256,1.667v6.038
		c0,0.662,0.086,1.216,0.256,1.667c0.172,0.451,0.373,0.676,0.609,0.676h4.764c0.234,0,0.438-0.225,0.607-0.676
		s0.256-1.005,0.256-1.667V69.861z M137.061,45.53c0-0.661-0.086-1.231-0.256-1.712c-0.17-0.48-0.373-0.721-0.607-0.721h-4.764
		c-0.236,0-0.438,0.241-0.609,0.721c-0.17,0.481-0.256,1.052-0.256,1.712v5.947c0,0.662,0.086,1.217,0.256,1.667
		c0.172,0.451,0.373,0.676,0.609,0.676h4.764c0.234,0,0.438-0.225,0.607-0.676s0.256-1.005,0.256-1.667V45.53z M115.188,36.608
		v-15.59c0-0.661-0.086-1.231-0.256-1.712c-0.17-0.48-0.373-0.721-0.607-0.721h-2.527c-0.234,0-0.436,0.241-0.607,0.721
		c-0.17,0.481-0.256,1.052-0.256,1.712v14.779c0,1.022-0.068,1.998-0.207,2.929c-0.139,0.932-0.326,1.728-0.561,2.388l-8.506,25.323
		l-0.031,0.09c-0.406,0.961-0.832,1.442-1.279,1.442c-0.598,0-1.098-0.661-1.504-1.983c-0.404-1.321-0.607-2.943-0.607-4.866V21.018
		c0-0.661-0.086-1.231-0.256-1.712c-0.17-0.48-0.373-0.721-0.607-0.721H94.85c-0.236,0-0.438,0.241-0.607,0.721
		c-0.172,0.481-0.256,1.052-0.256,1.712v40.913c0,2.464,0.164,4.762,0.494,6.894c0.33,2.133,0.785,3.996,1.359,5.587
		c0.576,1.592,1.252,2.854,2.031,3.785c0.777,0.931,1.604,1.397,2.479,1.397c0.852,0,1.656-0.406,2.414-1.217
		c0.756-0.811,1.402-2.027,1.936-3.649l8.506-25.773c0.555-1.681,1.023-3.544,1.406-5.587
		C114.996,41.325,115.188,39.072,115.188,36.608z M85.832,45.98v-9.823c0-2.402-0.166-4.68-0.496-6.834
		c-0.332-2.154-0.783-4.02-1.359-5.6c-0.576-1.578-1.254-2.829-2.031-3.752s-1.604-1.386-2.479-1.386h-8.475
		c-0.873,0-1.699,0.466-2.479,1.397c-0.777,0.932-1.455,2.194-2.029,3.785c-0.576,1.592-1.029,3.469-1.359,5.632
		c-0.33,2.163-0.496,4.446-0.496,6.849v39.651c0,0.662,0.086,1.232,0.256,1.712c0.17,0.481,0.373,0.721,0.607,0.721h2.527
		c0.234,0,0.436-0.241,0.607-0.722c0.17-0.482,0.256-1.053,0.256-1.715V36.17c0-1.926,0.201-3.551,0.607-4.875
		c0.404-1.324,0.906-1.987,1.502-1.987h8.475c0.576,0,1.072,0.662,1.488,1.982c0.414,1.322,0.623,2.944,0.623,4.866v9.823
		c0,0.662,0.084,1.232,0.256,1.712c0.17,0.481,0.373,0.721,0.607,0.721h2.525c0.234,0,0.438-0.239,0.609-0.721
		C85.746,47.212,85.832,46.642,85.832,45.98z M50.83,41.101c-0.416,1.331-0.912,1.995-1.486,1.995H39.59
		c-0.234,0-0.432-0.227-0.592-0.68c-0.16-0.454-0.24-1.013-0.24-1.679v-4.535c0-1.935,0.203-3.567,0.607-4.897
		c0.406-1.331,0.906-1.997,1.504-1.997h8.475c0.574,0,1.07,0.666,1.486,1.997s0.623,2.962,0.623,4.897
		C51.453,38.137,51.246,39.771,50.83,41.101z M55.211,29.399c-0.33-2.163-0.783-4.04-1.359-5.632
		c-0.574-1.591-1.252-2.853-2.029-3.785c-0.779-0.931-1.605-1.397-2.479-1.397h-8.475c-0.875,0-1.701,0.466-2.479,1.397
		c-0.779,0.932-1.455,2.194-2.031,3.785c-0.574,1.592-1.029,3.469-1.359,5.632c-0.33,2.163-0.494,4.446-0.494,6.849v24.512
		c0,2.464,0.164,4.762,0.494,6.894c0.33,2.133,0.785,3.98,1.359,5.542c0.576,1.563,1.252,2.809,2.031,3.74
		c0.777,0.932,1.604,1.397,2.479,1.397h9.754c0.234,0,0.432-0.239,0.592-0.721c0.158-0.48,0.238-1.051,0.238-1.712v-5.948
		c0-0.66-0.08-1.217-0.238-1.667c-0.16-0.451-0.357-0.676-0.592-0.676h-9.754c-0.598,0-1.098-0.66-1.504-1.982
		c-0.404-1.321-0.607-2.943-0.607-4.866v-4.506c0-0.66,0.08-1.23,0.24-1.712c0.16-0.48,0.357-0.721,0.592-0.721h9.754
		c0.873,0,1.699-0.465,2.479-1.397c0.777-0.931,1.455-2.177,2.029-3.74c0.576-1.562,1.029-3.409,1.359-5.542
		c0.33-2.132,0.496-4.43,0.496-6.894C55.707,33.845,55.541,31.562,55.211,29.399z M25.424,75.899V21.018
		c0-0.661-0.08-1.231-0.238-1.712c-0.16-0.48-0.355-0.721-0.588-0.721h-2.539c-0.232,0-0.428,0.241-0.586,0.721
		c-0.16,0.481-0.238,1.052-0.238,1.712v38.66L8.924,19.486c-0.215-0.6-0.438-0.901-0.674-0.901H5.109
		c-0.232,0-0.428,0.241-0.586,0.721c-0.16,0.481-0.238,1.052-0.238,1.712v54.881c0,0.662,0.078,1.232,0.238,1.712
		c0.158,0.481,0.354,0.721,0.586,0.721H7.65c0.23,0,0.428-0.239,0.586-0.721c0.158-0.48,0.238-1.051,0.238-1.712V36.428
		l12.664,41.093c0.146,0.541,0.35,0.811,0.602,0.811h2.857c0.232,0,0.428-0.239,0.588-0.721
		C25.344,77.131,25.424,76.561,25.424,75.899z"/>
</g>
</svg>
