<?xml version="1.0" encoding="iso-8859-1"?>
<!-- Generator: Adobe Illustrator 25.3.1, SVG Export Plug-In . SVG Version: 6.00 Build 0)  -->
<svg version="1.1" id="Layer_1" xmlns="http://www.w3.org/2000/svg" xmlns:xlink="http://www.w3.org/1999/xlink" x="0px" y="0px"
	 viewBox="0 0 3035.032 94" style="enable-background:new 0 0 3035.032 94;" xml:space="preserve">
<g>
	<path d="M2997.816,63.081c0,1.929-0.381,3.406-1.144,4.431c-0.763,1.025-1.705,1.538-2.827,1.538h-15.893
		c-1.122,0-2.068-0.512-2.827-1.538c-0.763-1.025-1.144-2.502-1.144-4.431V49.876c0-1.929,0.381-3.406,1.144-4.431
		c0.759-1.025,1.705-1.538,2.827-1.538h18.54c0.88,0,1.324,0.663,1.324,1.989V63.081z M3005.682,22.279
		c0-0.66-0.169-1.201-0.506-1.622c-0.337-0.419-0.726-0.631-1.162-0.631h-4.587c-0.44,0-0.818,0.211-1.133,0.631
		c-0.319,0.421-0.477,0.962-0.477,1.622v10.904h-19.812c-1.643,0-3.183,0.421-4.624,1.262c-1.441,0.842-2.703,1.998-3.781,3.469
		c-1.082,1.473-1.932,3.23-2.552,5.272c-0.624,2.043-0.931,4.267-0.931,6.668v13.067c0,2.464,0.308,4.717,0.928,6.759
		c0.62,2.043,1.47,3.816,2.548,5.317c1.078,1.502,2.34,2.674,3.777,3.515c1.438,0.842,2.978,1.262,4.617,1.262h15.826
		c1.635,0,3.176-0.419,4.613-1.262c1.441-0.84,2.699-2.012,3.777-3.515c1.082-1.501,1.929-3.273,2.549-5.317
		c0.62-2.042,0.931-4.294,0.931-6.759V22.279z M2953.325,77.341v-5.948c0-0.66-0.158-1.217-0.48-1.667
		c-0.319-0.451-0.7-0.676-1.14-0.676h-19.571c-0.44,0-0.81-0.239-1.111-0.721c-0.301-0.48-0.451-1.05-0.451-1.712V22.46
		c0-0.661-0.161-1.231-0.48-1.712c-0.319-0.48-0.7-0.721-1.14-0.721h-13.81c-0.44,0-0.821,0.24-1.14,0.715
		c-0.319,0.476-0.48,1.042-0.48,1.698v5.897c0,0.656,0.161,1.224,0.48,1.7s0.7,0.714,1.14,0.714h5.885
		c0.44,0,0.81,0.227,1.111,0.677c0.297,0.452,0.447,1.01,0.447,1.671v33.512c0,0.663-0.15,1.235-0.447,1.716
		c-0.301,0.481-0.671,0.722-1.111,0.722h-5.885c-0.44,0-0.821,0.226-1.14,0.676c-0.319,0.45-0.48,1.007-0.48,1.667v5.948
		c0,0.662,0.161,1.232,0.48,1.712c0.319,0.481,0.7,0.721,1.14,0.721h36.563c0.44,0,0.821-0.239,1.14-0.721
		C2953.167,78.573,2953.325,78.002,2953.325,77.341z M2896.531,47.422v-9.823c0-2.402-0.312-4.68-0.932-6.834
		c-0.623-2.154-1.47-4.02-2.552-5.6c-1.082-1.578-2.354-2.829-3.814-3.752s-3.01-1.386-4.653-1.386h-15.911
		c-1.639,0-3.19,0.466-4.653,1.397c-1.459,0.932-2.732,2.194-3.81,3.785c-1.082,1.592-1.932,3.469-2.552,5.632
		c-0.62,2.163-0.931,4.446-0.931,6.849v39.651c0,0.662,0.161,1.232,0.48,1.712c0.319,0.481,0.7,0.721,1.14,0.721h4.745
		c0.44,0,0.818-0.241,1.14-0.722c0.319-0.482,0.48-1.053,0.48-1.715V37.612c0-1.926,0.378-3.551,1.14-4.875
		c0.759-1.324,1.701-1.987,2.82-1.987h15.911c1.082,0,2.013,0.662,2.794,1.982c0.777,1.322,1.17,2.944,1.17,4.866v9.823
		c0,0.662,0.158,1.232,0.48,1.712c0.319,0.481,0.7,0.721,1.14,0.721h4.741c0.44,0,0.821-0.239,1.144-0.721
		C2896.37,48.654,2896.531,48.084,2896.531,47.422z M2831.025,62.186c0,1.926-0.389,3.553-1.17,4.878
		c-0.781,1.325-1.709,1.986-2.791,1.986h-15.911c-1.122,0-2.061-0.662-2.823-1.986c-0.759-1.325-1.14-2.952-1.14-4.878V37.615
		c0-1.926,0.381-3.551,1.14-4.876c0.763-1.325,1.701-1.988,2.823-1.988h15.911c1.082,0,2.01,0.663,2.791,1.988
		c0.781,1.325,1.17,2.95,1.17,4.876V62.186z M2839.011,37.689v-0.18c0-2.402-0.319-4.67-0.961-6.804
		c-0.642-2.132-1.5-3.979-2.582-5.542c-1.082-1.562-2.343-2.808-3.781-3.74c-1.441-0.931-2.985-1.397-4.624-1.397h-15.911
		c-1.643,0-3.183,0.466-4.624,1.397c-1.441,0.932-2.703,2.178-3.781,3.74c-1.082,1.563-1.944,3.411-2.582,5.542
		c-0.642,2.133-0.961,4.401-0.961,6.804v24.692c0,2.464,0.308,4.762,0.928,6.894c0.624,2.133,1.474,3.98,2.552,5.542
		c1.082,1.563,2.351,2.809,3.814,3.74c1.459,0.932,3.01,1.397,4.653,1.397h15.911c1.639,0,3.19-0.465,4.653-1.397
		c1.459-0.931,2.732-2.177,3.81-3.74c1.082-1.562,1.932-3.409,2.552-5.542c0.62-2.132,0.931-4.43,0.931-6.894V37.689z
		 M2783.116,63.373V22.37c0-0.66-0.15-1.217-0.447-1.667c-0.301-0.451-0.667-0.676-1.104-0.676h-4.767
		c-0.436,0-0.803,0.227-1.1,0.678c-0.301,0.452-0.447,1.008-0.447,1.67V63.45c0,1.926-0.396,3.553-1.181,4.876
		c-0.785,1.324-1.746,1.985-2.871,1.985c-1.089,0-2.028-0.66-2.816-1.982c-0.785-1.321-1.177-2.943-1.177-4.866v-5.677
		c0-0.661-0.15-1.217-0.447-1.667c-0.301-0.45-0.667-0.676-1.104-0.676h-4.767c-0.436,0-0.803,0.226-1.1,0.676
		c-0.301,0.451-0.447,1.007-0.447,1.667v5.677c0,1.923-0.396,3.545-1.181,4.866c-0.785,1.322-1.724,1.982-2.813,1.982
		c-1.129,0-2.086-0.662-2.875-1.985c-0.785-1.323-1.177-2.95-1.177-4.876V22.374c0-0.662-0.15-1.218-0.447-1.67
		c-0.297-0.451-0.667-0.678-1.1-0.678h-4.771c-0.436,0-0.803,0.226-1.1,0.676c-0.301,0.45-0.447,1.007-0.447,1.667v41.003
		c0,2.464,0.308,4.762,0.928,6.894c0.62,2.133,1.47,3.996,2.549,5.587c1.078,1.592,2.347,2.854,3.806,3.785s3.007,1.397,4.646,1.397
		c1.518,0,2.959-0.406,4.316-1.217c1.36-0.811,2.56-1.906,3.597-3.289c1.042,1.383,2.24,2.478,3.597,3.289
		c1.36,0.811,2.798,1.217,4.316,1.217c1.639,0,3.187-0.466,4.646-1.397s2.728-2.192,3.806-3.785
		c1.082-1.591,1.929-3.454,2.548-5.587C2782.804,68.135,2783.116,65.837,2783.116,63.373z M2679.551,79.684L2679.551,79.684z
		 M2663.31,42.543c-0.781,1.331-1.712,1.995-2.791,1.995h-18.313c-0.44,0-0.811-0.227-1.111-0.68
		c-0.301-0.454-0.451-1.013-0.451-1.679v-4.535c0-1.935,0.381-3.567,1.141-4.897c0.763-1.331,1.701-1.997,2.823-1.997h15.911
		c1.078,0,2.01,0.666,2.791,1.997s1.17,2.962,1.17,4.897C2664.479,39.579,2664.091,41.212,2663.31,42.543z M2671.534,30.841
		c-0.62-2.163-1.47-4.04-2.552-5.632c-1.078-1.591-2.351-2.853-3.81-3.785c-1.463-0.931-3.014-1.397-4.653-1.397h-15.911
		c-1.643,0-3.194,0.466-4.653,1.397c-1.463,0.932-2.732,2.194-3.814,3.785c-1.078,1.592-1.932,3.469-2.552,5.632
		c-0.62,2.163-0.928,4.446-0.928,6.849v24.512c0,2.464,0.308,4.762,0.928,6.894c0.62,2.133,1.474,3.98,2.552,5.542
		c1.082,1.563,2.351,2.809,3.814,3.74c1.459,0.932,3.01,1.397,4.653,1.397h18.313c0.44,0,0.81-0.239,1.111-0.721
		c0.297-0.48,0.447-1.051,0.447-1.712v-5.948c0-0.66-0.15-1.217-0.447-1.667c-0.301-0.451-0.671-0.676-1.111-0.676h-18.313
		c-1.122,0-2.061-0.66-2.823-1.982c-0.759-1.321-1.141-2.943-1.141-4.866v-4.506c0-0.66,0.15-1.23,0.451-1.712
		c0.301-0.48,0.671-0.721,1.111-0.721h18.313c1.639,0,3.19-0.465,4.653-1.397c1.459-0.931,2.732-2.177,3.81-3.74
		c1.082-1.562,1.932-3.409,2.552-5.542c0.62-2.132,0.931-4.43,0.931-6.894C2672.466,35.287,2672.154,33.003,2671.534,30.841z
		 M2615.668,77.341V50.216c0-2.402-0.312-4.686-0.931-6.849c-0.62-2.163-1.47-4.024-2.552-5.587c-1.078-1.562-2.351-2.808-3.81-3.74
		c-1.463-0.931-3.014-1.396-4.653-1.396h-18.313c-0.44,0-0.811-0.24-1.111-0.721c-0.301-0.48-0.451-1.05-0.451-1.712v-7.75
		c0-0.661-0.158-1.231-0.48-1.712c-0.319-0.48-0.7-0.721-1.14-0.721h-4.741c-0.444,0-0.822,0.241-1.14,0.721
		c-0.323,0.481-0.48,1.052-0.48,1.712v54.881c0,0.662,0.158,1.232,0.48,1.712c0.319,0.481,0.697,0.721,1.14,0.721h4.741
		c0.44,0,0.821-0.239,1.14-0.721c0.323-0.48,0.48-1.051,0.48-1.712V45.71c0-0.661,0.15-1.217,0.451-1.667
		c0.301-0.45,0.671-0.676,1.111-0.676h18.313c1.082,0,2.01,0.662,2.791,1.983c0.781,1.322,1.17,2.944,1.17,4.866v27.125
		c0,0.662,0.161,1.232,0.48,1.712c0.323,0.481,0.7,0.721,1.144,0.721h4.741c0.44,0,0.821-0.239,1.14-0.721
		C2615.507,78.573,2615.668,78.002,2615.668,77.341z M2560.312,62.201v-3.695c0-0.66-0.15-1.216-0.447-1.667
		c-0.297-0.451-0.664-0.676-1.1-0.676h-4.767c-0.44,0-0.807,0.225-1.104,0.676s-0.447,1.007-0.447,1.667v3.695
		c0,1.923-0.393,3.545-1.174,4.866c-0.785,1.322-1.738,1.982-2.86,1.982h-11.323c-1.085,0-2.017-0.66-2.802-1.982
		c-0.781-1.321-1.173-2.943-1.173-4.866V39.582h25.636c0.44,0,0.81-0.226,1.111-0.676c0.301-0.451,0.451-1.005,0.451-1.667v-6.038
		c0-0.661-0.15-1.217-0.451-1.667c-0.301-0.45-0.671-0.676-1.111-0.676h-25.636V22.46c0-0.661-0.15-1.231-0.447-1.712
		c-0.297-0.48-0.664-0.721-1.1-0.721h-4.771c-0.436,0-0.803,0.241-1.1,0.721c-0.297,0.481-0.447,1.052-0.447,1.712v6.398h-4.144
		c-0.44,0-0.821,0.226-1.14,0.676c-0.319,0.451-0.48,1.007-0.48,1.667v6.038c0,0.662,0.161,1.217,0.48,1.667
		c0.319,0.45,0.7,0.676,1.14,0.676h4.144v22.619c0,2.404,0.312,4.672,0.928,6.804c0.62,2.133,1.47,3.996,2.548,5.587
		c1.078,1.592,2.336,2.854,3.777,3.785c1.438,0.932,2.978,1.397,4.613,1.397h11.269c1.639,0,3.187-0.465,4.646-1.397
		c1.459-0.931,2.728-2.192,3.806-3.785c1.078-1.591,1.929-3.454,2.549-5.587C2560,66.873,2560.312,64.605,2560.312,62.201z
		 M2456.204,79.684L2456.204,79.684z M2448.159,77.341V50.216c0-2.402-0.312-4.686-0.931-6.849c-0.62-2.163-1.47-4.024-2.552-5.587
		c-1.078-1.562-2.351-2.808-3.81-3.74c-1.463-0.931-3.014-1.396-4.653-1.396h-18.313c-0.44,0-0.81-0.24-1.111-0.721
		c-0.301-0.48-0.451-1.05-0.451-1.712v-7.75c0-0.661-0.158-1.231-0.48-1.712c-0.319-0.48-0.7-0.721-1.14-0.721h-4.741
		c-0.444,0-0.821,0.241-1.14,0.721c-0.323,0.481-0.48,1.052-0.48,1.712v54.881c0,0.662,0.158,1.232,0.48,1.712
		c0.319,0.481,0.697,0.721,1.14,0.721h4.741c0.44,0,0.822-0.239,1.14-0.721c0.323-0.48,0.48-1.051,0.48-1.712V45.71
		c0-0.661,0.15-1.217,0.451-1.667c0.301-0.45,0.671-0.676,1.111-0.676h18.313c1.082,0,2.01,0.662,2.791,1.983
		c0.781,1.322,1.17,2.944,1.17,4.866v27.125c0,0.662,0.161,1.232,0.48,1.712c0.323,0.481,0.7,0.721,1.144,0.721h4.741
		c0.44,0,0.822-0.239,1.14-0.721C2447.997,78.573,2448.159,78.002,2448.159,77.341z M2392.802,62.201v-3.695
		c0-0.66-0.15-1.216-0.448-1.667c-0.297-0.451-0.664-0.676-1.1-0.676h-4.767c-0.44,0-0.807,0.225-1.104,0.676
		c-0.297,0.451-0.448,1.007-0.448,1.667v3.695c0,1.923-0.392,3.545-1.173,4.866c-0.785,1.322-1.738,1.982-2.86,1.982h-11.323
		c-1.085,0-2.017-0.66-2.802-1.982c-0.781-1.321-1.173-2.943-1.173-4.866V39.582h25.635c0.44,0,0.811-0.226,1.111-0.676
		c0.301-0.451,0.451-1.005,0.451-1.667v-6.038c0-0.661-0.15-1.217-0.451-1.667c-0.301-0.45-0.671-0.676-1.111-0.676h-25.635V22.46
		c0-0.661-0.15-1.231-0.448-1.712c-0.297-0.48-0.664-0.721-1.1-0.721h-4.771c-0.436,0-0.803,0.241-1.1,0.721
		c-0.297,0.481-0.448,1.052-0.448,1.712v6.398h-4.144c-0.44,0-0.822,0.226-1.14,0.676c-0.319,0.451-0.48,1.007-0.48,1.667v6.038
		c0,0.662,0.161,1.217,0.48,1.667c0.319,0.45,0.7,0.676,1.14,0.676h4.144v22.619c0,2.404,0.312,4.672,0.928,6.804
		c0.62,2.133,1.47,3.996,2.549,5.587c1.078,1.592,2.336,2.854,3.777,3.785c1.438,0.932,2.978,1.397,4.613,1.397h11.269
		c1.639,0,3.187-0.465,4.646-1.397c1.459-0.931,2.728-2.192,3.806-3.785c1.078-1.591,1.929-3.454,2.549-5.587
		C2392.491,66.873,2392.802,64.605,2392.802,62.201z M2336.485,77.341v-5.948c0-0.66-0.161-1.217-0.48-1.667
		c-0.319-0.451-0.7-0.676-1.141-0.676h-12.728c-0.44,0-0.811-0.241-1.111-0.722c-0.301-0.481-0.451-1.053-0.451-1.716V33.099
		c0-0.662,0.15-1.219,0.451-1.671c0.301-0.451,0.671-0.677,1.111-0.677h4.804c0.44,0,0.81-0.238,1.111-0.714
		c0.297-0.476,0.447-1.043,0.447-1.7V22.44c0-0.656-0.15-1.222-0.447-1.698c-0.301-0.476-0.671-0.715-1.111-0.715h-20.715
		c-0.44,0-0.811,0.24-1.111,0.715c-0.301,0.476-0.451,1.042-0.451,1.698v5.897c0,0.656,0.15,1.224,0.451,1.7
		c0.301,0.476,0.671,0.714,1.111,0.714h4.804c0.44,0,0.81,0.227,1.111,0.677c0.301,0.452,0.451,1.01,0.451,1.671v33.512
		c0,0.663-0.15,1.235-0.451,1.716c-0.301,0.481-0.671,0.722-1.111,0.722h-12.728c-0.444,0-0.822,0.226-1.14,0.676
		c-0.323,0.45-0.48,1.007-0.48,1.667v5.948c0,0.662,0.158,1.232,0.48,1.712c0.319,0.481,0.697,0.721,1.14,0.721h36.563
		c0.44,0,0.822-0.239,1.141-0.721C2336.324,78.573,2336.485,78.002,2336.485,77.341z M2280.59,63.373V22.37
		c0-0.66-0.15-1.217-0.447-1.667c-0.301-0.451-0.667-0.676-1.104-0.676h-4.767c-0.436,0-0.803,0.227-1.1,0.678
		c-0.301,0.452-0.447,1.008-0.447,1.67V63.45c0,1.926-0.396,3.553-1.181,4.876c-0.785,1.324-1.745,1.985-2.871,1.985
		c-1.089,0-2.028-0.66-2.816-1.982c-0.785-1.321-1.177-2.943-1.177-4.866v-5.677c0-0.661-0.15-1.217-0.447-1.667
		c-0.301-0.45-0.667-0.676-1.104-0.676h-4.767c-0.436,0-0.803,0.226-1.1,0.676c-0.301,0.451-0.447,1.007-0.447,1.667v5.677
		c0,1.923-0.396,3.545-1.181,4.866c-0.785,1.322-1.723,1.982-2.812,1.982c-1.129,0-2.086-0.662-2.875-1.985
		c-0.785-1.323-1.177-2.95-1.177-4.876V22.374c0-0.662-0.15-1.218-0.447-1.67c-0.297-0.451-0.667-0.678-1.1-0.678h-4.771
		c-0.436,0-0.803,0.226-1.1,0.676c-0.301,0.45-0.447,1.007-0.447,1.667v41.003c0,2.464,0.308,4.762,0.928,6.894
		c0.62,2.133,1.47,3.996,2.548,5.587c1.078,1.592,2.347,2.854,3.806,3.785s3.007,1.397,4.646,1.397c1.518,0,2.959-0.406,4.316-1.217
		c1.361-0.811,2.56-1.906,3.597-3.289c1.041,1.383,2.24,2.478,3.597,3.289c1.361,0.811,2.798,1.217,4.316,1.217
		c1.639,0,3.187-0.466,4.646-1.397s2.728-2.192,3.806-3.785c1.082-1.591,1.929-3.454,2.549-5.587
		C2280.278,68.135,2280.59,65.837,2280.59,63.373z M2177.021,79.684L2177.021,79.684z M2169.456,62.201v-3.695
		c0-0.66-0.15-1.216-0.447-1.667s-0.664-0.676-1.1-0.676h-4.767c-0.44,0-0.807,0.225-1.104,0.676
		c-0.297,0.451-0.447,1.007-0.447,1.667v3.695c0,1.923-0.392,3.545-1.174,4.866c-0.785,1.322-1.738,1.982-2.86,1.982h-11.323
		c-1.085,0-2.017-0.66-2.802-1.982c-0.781-1.321-1.174-2.943-1.174-4.866V39.582h25.636c0.44,0,0.81-0.226,1.111-0.676
		c0.301-0.451,0.451-1.005,0.451-1.667v-6.038c0-0.661-0.15-1.217-0.451-1.667c-0.301-0.45-0.671-0.676-1.111-0.676h-25.636V22.46
		c0-0.661-0.15-1.231-0.447-1.712c-0.297-0.48-0.664-0.721-1.1-0.721h-4.771c-0.436,0-0.803,0.241-1.1,0.721
		c-0.297,0.481-0.447,1.052-0.447,1.712v6.398h-4.144c-0.44,0-0.821,0.226-1.14,0.676c-0.319,0.451-0.48,1.007-0.48,1.667v6.038
		c0,0.662,0.161,1.217,0.48,1.667c0.319,0.45,0.7,0.676,1.14,0.676h4.144v22.619c0,2.404,0.312,4.672,0.928,6.804
		c0.62,2.133,1.47,3.996,2.549,5.587c1.078,1.592,2.336,2.854,3.777,3.785c1.438,0.932,2.978,1.397,4.613,1.397h11.269
		c1.639,0,3.187-0.465,4.646-1.397c1.459-0.931,2.728-2.192,3.806-3.785c1.078-1.591,1.929-3.454,2.548-5.587
		C2169.144,66.873,2169.456,64.605,2169.456,62.201z M2113.139,77.341V50.216c0-2.402-0.312-4.686-0.931-6.849
		c-0.62-2.163-1.47-4.024-2.552-5.587c-1.078-1.562-2.351-2.808-3.81-3.74c-1.463-0.931-3.014-1.396-4.653-1.396h-18.313
		c-0.44,0-0.81-0.24-1.111-0.721c-0.301-0.48-0.451-1.05-0.451-1.712v-7.75c0-0.661-0.158-1.231-0.48-1.712
		c-0.319-0.48-0.7-0.721-1.14-0.721h-4.741c-0.444,0-0.822,0.241-1.141,0.721c-0.323,0.481-0.48,1.052-0.48,1.712v54.881
		c0,0.662,0.158,1.232,0.48,1.712c0.319,0.481,0.697,0.721,1.141,0.721h4.741c0.44,0,0.822-0.239,1.14-0.721
		c0.323-0.48,0.48-1.051,0.48-1.712V45.71c0-0.661,0.15-1.217,0.451-1.667c0.301-0.45,0.671-0.676,1.111-0.676h18.313
		c1.082,0,2.01,0.662,2.791,1.983c0.781,1.322,1.17,2.944,1.17,4.866v27.125c0,0.662,0.161,1.232,0.48,1.712
		c0.323,0.481,0.7,0.721,1.144,0.721h4.741c0.44,0,0.822-0.239,1.14-0.721C2112.978,78.573,2113.139,78.002,2113.139,77.341z
		 M2049.737,42.27c0,0.666-0.15,1.211-0.451,1.633c-0.301,0.424-0.671,0.635-1.111,0.635h-19.09c-1.122,0-2.064-0.665-2.823-1.995
		c-0.759-1.331-1.141-2.964-1.141-4.898c0-1.935,0.381-3.567,1.141-4.897c0.759-1.331,1.701-1.997,2.823-1.997h16.688
		c1.122,0,2.061,0.666,2.823,1.997c0.759,1.331,1.14,2.962,1.14,4.897V42.27z M2057.724,37.689c0-2.402-0.312-4.686-0.931-6.849
		c-0.62-2.163-1.47-4.04-2.552-5.632c-1.082-1.591-2.351-2.853-3.814-3.785c-1.459-0.931-3.011-1.397-4.653-1.397h-16.688
		c-1.643,0-3.194,0.466-4.653,1.397c-1.463,0.932-2.732,2.194-3.814,3.785c-1.082,1.592-1.932,3.469-2.552,5.632
		c-0.62,2.163-0.931,4.446-0.931,6.849c0,2.464,0.312,4.762,0.931,6.894c0.62,2.133,1.47,3.98,2.552,5.542
		c1.082,1.563,2.35,2.809,3.814,3.74c1.459,0.932,3.01,1.397,4.653,1.397h19.09c0.44,0,0.81,0.211,1.111,0.631
		c0.301,0.421,0.451,0.961,0.451,1.622v4.686c0,1.923-0.381,3.545-1.14,4.866c-0.763,1.322-1.701,1.982-2.823,1.982h-25.097
		c-0.44,0-0.818,0.226-1.14,0.676c-0.319,0.45-0.48,1.007-0.48,1.667v5.948c0,0.662,0.161,1.232,0.48,1.712
		c0.323,0.481,0.7,0.721,1.14,0.721h25.097c1.643,0,3.194-0.465,4.653-1.397c1.463-0.931,2.732-2.177,3.814-3.74
		c1.082-1.562,1.932-3.409,2.552-5.542c0.62-2.132,0.931-4.43,0.931-6.894V37.689z M2001.466,77.341v-5.948
		c0-0.66-0.161-1.217-0.48-1.667c-0.319-0.451-0.7-0.676-1.14-0.676h-12.728c-0.44,0-0.81-0.241-1.111-0.722
		c-0.301-0.481-0.451-1.053-0.451-1.716V33.099c0-0.662,0.15-1.219,0.451-1.671c0.301-0.451,0.671-0.677,1.111-0.677h4.804
		c0.44,0,0.81-0.238,1.111-0.714c0.297-0.476,0.447-1.043,0.447-1.7V22.44c0-0.656-0.15-1.222-0.447-1.698
		c-0.301-0.476-0.671-0.715-1.111-0.715h-20.715c-0.44,0-0.81,0.24-1.111,0.715c-0.301,0.476-0.451,1.042-0.451,1.698v5.897
		c0,0.656,0.15,1.224,0.451,1.7c0.301,0.476,0.671,0.714,1.111,0.714h4.804c0.44,0,0.81,0.227,1.111,0.677
		c0.301,0.452,0.451,1.01,0.451,1.671v33.512c0,0.663-0.15,1.235-0.451,1.716c-0.301,0.481-0.671,0.722-1.111,0.722h-12.728
		c-0.444,0-0.821,0.226-1.141,0.676c-0.323,0.45-0.48,1.007-0.48,1.667v5.948c0,0.662,0.158,1.232,0.48,1.712
		c0.319,0.481,0.697,0.721,1.141,0.721h36.563c0.44,0,0.821-0.239,1.14-0.721C2001.304,78.573,2001.466,78.002,2001.466,77.341z
		 M1947.312,47.422v-9.823c0-2.402-0.312-4.68-0.931-6.834c-0.623-2.154-1.47-4.02-2.552-5.6c-1.082-1.578-2.354-2.829-3.814-3.752
		s-3.01-1.386-4.653-1.386h-15.911c-1.639,0-3.19,0.466-4.653,1.397c-1.459,0.932-2.732,2.194-3.81,3.785
		c-1.082,1.592-1.932,3.469-2.552,5.632c-0.62,2.163-0.931,4.446-0.931,6.849v39.651c0,0.662,0.161,1.232,0.48,1.712
		c0.319,0.481,0.7,0.721,1.14,0.721h4.745c0.44,0,0.818-0.241,1.14-0.722c0.319-0.482,0.48-1.053,0.48-1.715V37.612
		c0-1.926,0.378-3.551,1.14-4.875c0.759-1.324,1.702-1.987,2.82-1.987h15.911c1.082,0,2.013,0.662,2.794,1.982
		c0.777,1.322,1.17,2.944,1.17,4.866v9.823c0,0.662,0.158,1.232,0.48,1.712c0.319,0.481,0.7,0.721,1.14,0.721h4.741
		c0.44,0,0.821-0.239,1.144-0.721C1947.151,48.654,1947.312,48.084,1947.312,47.422z M1842.005,79.684L1842.005,79.684z
		 M1833.028,55.353c-0.62-2.163-1.47-4.04-2.552-5.632c-1.078-1.591-2.35-2.853-3.81-3.785c-1.463-0.931-3.014-1.397-4.653-1.397
		h-17.231c-1.122,0-2.064-0.665-2.823-1.995c-0.759-1.331-1.141-2.964-1.141-4.898c0-1.935,0.381-3.567,1.141-4.897
		c0.759-1.331,1.701-1.997,2.823-1.997h26.717c0.44,0,0.818-0.238,1.14-0.714c0.319-0.476,0.48-1.043,0.48-1.7V22.44
		c0-0.656-0.161-1.222-0.48-1.698c-0.323-0.476-0.7-0.715-1.14-0.715h-26.717c-1.643,0-3.194,0.466-4.653,1.397
		c-1.463,0.932-2.732,2.194-3.814,3.785c-1.082,1.592-1.932,3.469-2.552,5.632c-0.62,2.163-0.931,4.446-0.931,6.849
		c0,2.464,0.312,4.762,0.931,6.894c0.62,2.133,1.47,3.98,2.552,5.542c1.082,1.563,2.35,2.809,3.814,3.74
		c1.459,0.932,3.01,1.397,4.653,1.397h17.231c1.082,0,2.01,0.676,2.791,2.028c0.781,1.352,1.17,2.989,1.17,4.911
		c0,1.923-0.389,3.545-1.17,4.866c-0.781,1.322-1.709,1.982-2.791,1.982H1803.7c-0.44,0-0.81,0.226-1.111,0.676
		c-0.301,0.45-0.451,1.007-0.451,1.667v5.948c0,0.662,0.15,1.232,0.451,1.712c0.301,0.481,0.671,0.721,1.111,0.721h18.313
		c1.639,0,3.19-0.465,4.653-1.397c1.459-0.931,2.732-2.192,3.81-3.785c1.082-1.591,1.932-3.454,2.552-5.587
		c0.62-2.132,0.931-4.4,0.931-6.804C1833.959,59.799,1833.648,57.515,1833.028,55.353z M1762.274,38.771V22.46
		c0-0.661-0.161-1.231-0.48-1.712c-0.323-0.48-0.704-0.721-1.144-0.721h-4.8c-0.444,0-0.821,0.241-1.14,0.721
		c-0.323,0.481-0.48,1.052-0.48,1.712v16.311c0,0.662,0.158,1.216,0.48,1.667c0.319,0.451,0.697,0.676,1.14,0.676h4.8
		c0.44,0,0.821-0.225,1.144-0.676C1762.113,39.987,1762.274,39.433,1762.274,38.771z M1724.926,77.341v-5.948
		c0-0.66-0.158-1.217-0.48-1.667c-0.319-0.451-0.7-0.676-1.141-0.676h-19.57c-0.44,0-0.81-0.239-1.111-0.721
		c-0.301-0.48-0.451-1.05-0.451-1.712V22.46c0-0.661-0.161-1.231-0.48-1.712c-0.319-0.48-0.7-0.721-1.141-0.721h-13.81
		c-0.44,0-0.821,0.24-1.14,0.715c-0.319,0.476-0.48,1.042-0.48,1.698v5.897c0,0.656,0.161,1.224,0.48,1.7
		c0.319,0.476,0.7,0.714,1.14,0.714h5.885c0.44,0,0.81,0.227,1.111,0.677c0.297,0.452,0.447,1.01,0.447,1.671v33.512
		c0,0.663-0.15,1.235-0.447,1.716c-0.301,0.481-0.671,0.722-1.111,0.722h-5.885c-0.44,0-0.821,0.226-1.14,0.676
		c-0.319,0.45-0.48,1.007-0.48,1.667v5.948c0,0.662,0.161,1.232,0.48,1.712c0.319,0.481,0.7,0.721,1.14,0.721h36.563
		c0.44,0,0.821-0.239,1.141-0.721C1724.769,78.573,1724.926,78.002,1724.926,77.341z M1669.09,77.341v-5.948
		c0-0.66-0.158-1.217-0.48-1.667c-0.319-0.451-0.7-0.676-1.14-0.676h-19.571c-0.44,0-0.81-0.239-1.111-0.721
		c-0.301-0.48-0.451-1.05-0.451-1.712V22.46c0-0.661-0.161-1.231-0.48-1.712c-0.319-0.48-0.7-0.721-1.14-0.721h-13.81
		c-0.44,0-0.821,0.24-1.14,0.715c-0.319,0.476-0.48,1.042-0.48,1.698v5.897c0,0.656,0.161,1.224,0.48,1.7
		c0.319,0.476,0.7,0.714,1.14,0.714h5.885c0.44,0,0.81,0.227,1.111,0.677c0.297,0.452,0.447,1.01,0.447,1.671v33.512
		c0,0.663-0.15,1.235-0.447,1.716c-0.301,0.481-0.671,0.722-1.111,0.722h-5.885c-0.44,0-0.821,0.226-1.14,0.676
		c-0.319,0.45-0.48,1.007-0.48,1.667v5.948c0,0.662,0.161,1.232,0.48,1.712c0.319,0.481,0.7,0.721,1.14,0.721h36.563
		c0.44,0,0.821-0.239,1.14-0.721C1668.932,78.573,1669.09,78.002,1669.09,77.341z M1601.427,62.922c0,1.924-0.381,3.425-1.144,4.506
		c-0.763,1.082-1.705,1.622-2.827,1.622h-15.893c-1.122,0-2.068-0.676-2.827-2.027c-0.763-1.352-1.144-2.988-1.144-4.912
		c0-1.922,0.381-3.56,1.144-4.911c0.759-1.352,1.705-2.028,2.827-2.028h18.54c0.88,0,1.324,0.662,1.324,1.983V62.922z
		 M1609.293,37.87c0-2.402-0.308-4.686-0.924-6.849c-0.616-2.163-1.459-4.056-2.534-5.678c-1.071-1.622-2.325-2.913-3.759-3.875
		c-1.434-0.96-2.97-1.442-4.613-1.442h-9.904c-0.44,0-0.88,0.331-1.32,0.992c-0.444,0.662-0.664,1.322-0.664,1.982v4.866
		c0,0.782,0.22,1.458,0.664,2.028c0.44,0.571,0.88,0.856,1.32,0.856h9.904c1.122,0,2.061,0.676,2.823,2.028
		c0.759,1.352,1.141,2.989,1.141,4.911v4.596c0,1.322-0.44,1.982-1.32,1.982h-18.492c-1.643,0-3.183,0.481-4.624,1.442
		c-1.441,0.961-2.703,2.253-3.781,3.875c-1.082,1.622-1.932,3.515-2.552,5.677c-0.623,2.163-0.931,4.447-0.931,6.849
		c0,2.464,0.308,4.762,0.928,6.894c0.62,2.133,1.47,3.996,2.549,5.587c1.078,1.592,2.339,2.854,3.777,3.785
		c1.438,0.932,2.978,1.397,4.617,1.397h15.827c1.639,0,3.176-0.419,4.617-1.262c1.438-0.84,2.695-2.012,3.773-3.515
		c1.082-1.501,1.929-3.273,2.549-5.317c0.62-2.042,0.931-4.294,0.931-6.759V37.87z M1506.985,79.684L1506.985,79.684z
		 M1484.888,87.614V71.303c0-0.66-0.161-1.216-0.48-1.667c-0.319-0.451-0.7-0.676-1.141-0.676h-8.947
		c-0.44,0-0.818,0.225-1.141,0.676c-0.319,0.451-0.48,1.007-0.48,1.667v6.038c0,0.662,0.161,1.216,0.48,1.667
		c0.323,0.451,0.7,0.676,1.141,0.676h2.581v7.931c0,0.66,0.161,1.23,0.48,1.712c0.323,0.48,0.7,0.721,1.144,0.721h4.741
		c0.44,0,0.821-0.241,1.141-0.721C1484.727,88.845,1484.888,88.274,1484.888,87.614z M1442.986,77.341V37.689
		c0-2.463-0.312-4.761-0.931-6.894c-0.62-2.132-1.467-3.995-2.549-5.587c-1.078-1.591-2.336-2.853-3.777-3.785
		c-1.437-0.931-2.978-1.397-4.613-1.397h-15.948c-1.639,0-3.176,0.466-4.617,1.397c-1.437,0.932-2.699,2.178-3.777,3.74
		c-1.078,1.563-1.929,3.411-2.548,5.542c-0.62,2.133-0.928,4.401-0.928,6.804v39.832c0,0.662,0.147,1.232,0.447,1.712
		c0.297,0.481,0.664,0.721,1.1,0.721h4.771c0.433,0,0.803-0.241,1.1-0.722c0.297-0.482,0.447-1.053,0.447-1.715V37.612
		c0-1.926,0.392-3.551,1.173-4.875c0.781-1.324,1.716-1.987,2.798-1.987h16.01c1.085,0,2.017,0.663,2.802,1.987
		c0.781,1.324,1.173,2.948,1.173,4.875v39.725c0,0.662,0.147,1.233,0.447,1.715c0.297,0.481,0.664,0.722,1.1,0.722h4.767
		c0.436,0,0.803-0.239,1.104-0.721C1442.835,78.573,1442.986,78.002,1442.986,77.341z M1379.012,42.543
		c-0.781,1.331-1.712,1.995-2.791,1.995h-18.313c-0.44,0-0.81-0.227-1.111-0.68c-0.301-0.454-0.451-1.013-0.451-1.679v-4.535
		c0-1.935,0.381-3.567,1.14-4.897c0.763-1.331,1.702-1.997,2.824-1.997h15.911c1.078,0,2.01,0.666,2.791,1.997
		c0.781,1.331,1.17,2.962,1.17,4.897C1380.182,39.579,1379.793,41.212,1379.012,42.543z M1387.237,30.841
		c-0.62-2.163-1.47-4.04-2.552-5.632c-1.078-1.591-2.351-2.853-3.81-3.785c-1.463-0.931-3.014-1.397-4.653-1.397h-15.911
		c-1.643,0-3.194,0.466-4.653,1.397c-1.463,0.932-2.732,2.194-3.814,3.785c-1.078,1.592-1.932,3.469-2.552,5.632
		c-0.62,2.163-0.928,4.446-0.928,6.849v24.512c0,2.464,0.308,4.762,0.928,6.894c0.62,2.133,1.474,3.98,2.552,5.542
		c1.082,1.563,2.351,2.809,3.814,3.74c1.459,0.932,3.01,1.397,4.653,1.397h18.313c0.44,0,0.81-0.239,1.111-0.721
		c0.297-0.48,0.447-1.051,0.447-1.712v-5.948c0-0.66-0.15-1.217-0.447-1.667c-0.301-0.451-0.671-0.676-1.111-0.676h-18.313
		c-1.122,0-2.061-0.66-2.824-1.982c-0.759-1.321-1.14-2.943-1.14-4.866v-4.506c0-0.66,0.15-1.23,0.451-1.712
		c0.301-0.48,0.671-0.721,1.111-0.721h18.313c1.639,0,3.19-0.465,4.653-1.397c1.459-0.931,2.732-2.177,3.81-3.74
		c1.082-1.562,1.932-3.409,2.552-5.542c0.62-2.132,0.931-4.43,0.931-6.894C1388.168,35.287,1387.857,33.003,1387.237,30.841z
		 M1332.332,38.05V22.46c0-0.661-0.161-1.231-0.48-1.712c-0.319-0.48-0.7-0.721-1.14-0.721h-4.745c-0.44,0-0.818,0.241-1.141,0.721
		c-0.319,0.481-0.48,1.052-0.48,1.712v14.779c0,1.022-0.128,1.998-0.389,2.929c-0.26,0.932-0.612,1.728-1.052,2.388l-15.97,25.323
		l-0.059,0.09c-0.763,0.961-1.562,1.442-2.402,1.442c-1.122,0-2.061-0.661-2.823-1.983c-0.759-1.321-1.14-2.943-1.14-4.866V22.46
		c0-0.661-0.161-1.231-0.48-1.712c-0.319-0.48-0.7-0.721-1.14-0.721h-4.741c-0.444,0-0.821,0.241-1.141,0.721
		c-0.323,0.481-0.48,1.052-0.48,1.712v40.913c0,2.464,0.308,4.762,0.928,6.894c0.62,2.133,1.474,3.996,2.552,5.587
		c1.082,1.592,2.35,2.854,3.814,3.785c1.459,0.931,3.011,1.397,4.653,1.397c1.599,0,3.11-0.406,4.532-1.217
		c1.419-0.811,2.633-2.027,3.634-3.649l15.969-25.773c1.042-1.681,1.922-3.544,2.64-5.587
		C1331.973,42.767,1332.332,40.514,1332.332,38.05z M1266.349,62.922c0,1.924-0.381,3.425-1.144,4.506
		c-0.763,1.082-1.705,1.622-2.827,1.622h-15.893c-1.122,0-2.068-0.676-2.827-2.027c-0.763-1.352-1.144-2.988-1.144-4.912
		c0-1.922,0.381-3.56,1.144-4.911c0.759-1.352,1.705-2.028,2.827-2.028h18.54c0.88,0,1.324,0.662,1.324,1.983V62.922z
		 M1274.214,37.87c0-2.402-0.308-4.686-0.924-6.849c-0.616-2.163-1.459-4.056-2.534-5.678c-1.071-1.622-2.325-2.913-3.759-3.875
		c-1.434-0.96-2.97-1.442-4.613-1.442h-9.904c-0.44,0-0.88,0.331-1.32,0.992c-0.444,0.662-0.664,1.322-0.664,1.982v4.866
		c0,0.782,0.22,1.458,0.664,2.028c0.44,0.571,0.88,0.856,1.32,0.856h9.904c1.122,0,2.061,0.676,2.824,2.028
		c0.759,1.352,1.14,2.989,1.14,4.911v4.596c0,1.322-0.44,1.982-1.32,1.982h-18.492c-1.643,0-3.183,0.481-4.624,1.442
		c-1.441,0.961-2.703,2.253-3.781,3.875c-1.082,1.622-1.932,3.515-2.552,5.677c-0.623,2.163-0.932,4.447-0.932,6.849
		c0,2.464,0.308,4.762,0.928,6.894c0.62,2.133,1.47,3.996,2.548,5.587c1.078,1.592,2.339,2.854,3.777,3.785
		c1.437,0.932,2.978,1.397,4.617,1.397h15.827c1.639,0,3.176-0.419,4.617-1.262c1.437-0.84,2.695-2.012,3.773-3.515
		c1.082-1.501,1.929-3.273,2.548-5.317c0.62-2.042,0.931-4.294,0.931-6.759V37.87z M1211.502,42.543
		c-0.781,1.331-1.712,1.995-2.791,1.995h-18.313c-0.44,0-0.81-0.227-1.111-0.68c-0.301-0.454-0.451-1.013-0.451-1.679v-4.535
		c0-1.935,0.381-3.567,1.141-4.897c0.763-1.331,1.701-1.997,2.823-1.997h15.911c1.078,0,2.01,0.666,2.791,1.997
		c0.781,1.331,1.17,2.962,1.17,4.897C1212.672,39.579,1212.283,41.212,1211.502,42.543z M1219.727,30.841
		c-0.62-2.163-1.47-4.04-2.552-5.632c-1.078-1.591-2.351-2.853-3.81-3.785c-1.463-0.931-3.014-1.397-4.653-1.397h-15.911
		c-1.643,0-3.194,0.466-4.653,1.397c-1.463,0.932-2.732,2.194-3.814,3.785c-1.078,1.592-1.932,3.469-2.552,5.632
		c-0.62,2.163-0.928,4.446-0.928,6.849v24.512c0,2.464,0.308,4.762,0.928,6.894c0.62,2.133,1.474,3.98,2.552,5.542
		c1.082,1.563,2.35,2.809,3.814,3.74c1.459,0.932,3.01,1.397,4.653,1.397h18.313c0.44,0,0.81-0.239,1.111-0.721
		c0.297-0.48,0.447-1.051,0.447-1.712v-5.948c0-0.66-0.15-1.217-0.447-1.667c-0.301-0.451-0.671-0.676-1.111-0.676h-18.313
		c-1.122,0-2.061-0.66-2.823-1.982c-0.759-1.321-1.141-2.943-1.141-4.866v-4.506c0-0.66,0.15-1.23,0.451-1.712
		c0.301-0.48,0.671-0.721,1.111-0.721h18.313c1.639,0,3.19-0.465,4.653-1.397c1.459-0.931,2.732-2.177,3.81-3.74
		c1.082-1.562,1.932-3.409,2.552-5.542c0.62-2.132,0.931-4.43,0.931-6.894C1220.659,35.287,1220.347,33.003,1219.727,30.841z
		 M1163.861,77.341V50.216c0-2.402-0.312-4.686-0.931-6.849c-0.62-2.163-1.47-4.024-2.552-5.587c-1.078-1.562-2.351-2.808-3.81-3.74
		c-1.463-0.931-3.014-1.396-4.653-1.396h-18.313c-0.44,0-0.81-0.24-1.111-0.721c-0.301-0.48-0.451-1.05-0.451-1.712v-7.75
		c0-0.661-0.158-1.231-0.48-1.712c-0.319-0.48-0.7-0.721-1.14-0.721h-4.741c-0.444,0-0.821,0.241-1.14,0.721
		c-0.323,0.481-0.48,1.052-0.48,1.712v54.881c0,0.662,0.158,1.232,0.48,1.712c0.319,0.481,0.697,0.721,1.14,0.721h4.741
		c0.44,0,0.821-0.239,1.14-0.721c0.323-0.48,0.48-1.051,0.48-1.712V45.71c0-0.661,0.15-1.217,0.451-1.667
		c0.301-0.45,0.671-0.676,1.111-0.676h18.313c1.082,0,2.01,0.662,2.791,1.983c0.781,1.322,1.17,2.944,1.17,4.866v27.125
		c0,0.662,0.161,1.232,0.48,1.712c0.323,0.481,0.7,0.721,1.144,0.721h4.741c0.44,0,0.821-0.239,1.14-0.721
		C1163.7,78.573,1163.861,78.002,1163.861,77.341z M1060.233,79.684L1060.233,79.684z M1051.257,55.353
		c-0.62-2.163-1.47-4.04-2.552-5.632c-1.078-1.591-2.35-2.853-3.81-3.785c-1.463-0.931-3.014-1.397-4.653-1.397h-17.231
		c-1.122,0-2.065-0.665-2.824-1.995c-0.759-1.331-1.14-2.964-1.14-4.898c0-1.935,0.381-3.567,1.14-4.897
		c0.759-1.331,1.701-1.997,2.824-1.997h26.717c0.44,0,0.818-0.238,1.141-0.714c0.319-0.476,0.48-1.043,0.48-1.7V22.44
		c0-0.656-0.161-1.222-0.48-1.698c-0.323-0.476-0.7-0.715-1.141-0.715h-26.717c-1.643,0-3.194,0.466-4.653,1.397
		c-1.463,0.932-2.732,2.194-3.814,3.785c-1.082,1.592-1.932,3.469-2.552,5.632c-0.62,2.163-0.931,4.446-0.931,6.849
		c0,2.464,0.312,4.762,0.931,6.894c0.62,2.133,1.47,3.98,2.552,5.542c1.082,1.563,2.351,2.809,3.814,3.74
		c1.459,0.932,3.011,1.397,4.653,1.397h17.231c1.082,0,2.009,0.676,2.791,2.028c0.781,1.352,1.17,2.989,1.17,4.911
		c0,1.923-0.389,3.545-1.17,4.866c-0.781,1.322-1.709,1.982-2.791,1.982h-18.313c-0.44,0-0.81,0.226-1.111,0.676
		c-0.301,0.45-0.451,1.007-0.451,1.667v5.948c0,0.662,0.15,1.232,0.451,1.712c0.301,0.481,0.671,0.721,1.111,0.721h18.313
		c1.639,0,3.19-0.465,4.653-1.397c1.459-0.931,2.732-2.192,3.81-3.785c1.082-1.591,1.932-3.454,2.552-5.587
		c0.62-2.132,0.931-4.4,0.931-6.804C1052.188,59.799,1051.876,57.515,1051.257,55.353z M996.351,77.341v-5.948
		c0-0.66-0.161-1.217-0.48-1.667c-0.319-0.451-0.7-0.676-1.14-0.676h-12.728c-0.44,0-0.81-0.241-1.111-0.722
		c-0.301-0.481-0.451-1.053-0.451-1.716V33.099c0-0.662,0.15-1.219,0.451-1.671c0.301-0.451,0.671-0.677,1.111-0.677h4.804
		c0.44,0,0.81-0.238,1.111-0.714c0.297-0.476,0.447-1.043,0.447-1.7V22.44c0-0.656-0.15-1.222-0.447-1.698
		c-0.301-0.476-0.671-0.715-1.111-0.715h-20.715c-0.44,0-0.81,0.24-1.111,0.715c-0.301,0.476-0.451,1.042-0.451,1.698v5.897
		c0,0.656,0.15,1.224,0.451,1.7c0.301,0.476,0.671,0.714,1.111,0.714h4.804c0.44,0,0.81,0.227,1.111,0.677
		c0.301,0.452,0.451,1.01,0.451,1.671v33.512c0,0.663-0.15,1.235-0.451,1.716c-0.301,0.481-0.671,0.722-1.111,0.722h-12.728
		c-0.444,0-0.821,0.226-1.14,0.676c-0.323,0.45-0.48,1.007-0.48,1.667v5.948c0,0.662,0.158,1.232,0.48,1.712
		c0.319,0.481,0.697,0.721,1.14,0.721h36.563c0.44,0,0.821-0.239,1.14-0.721C996.19,78.573,996.351,78.002,996.351,77.341z
		 M940.515,77.341V22.46c0-0.661-0.161-1.231-0.48-1.712c-0.319-0.48-0.7-0.721-1.14-0.721h-4.741c-0.444,0-0.821,0.241-1.144,0.721
		c-0.319,0.481-0.48,1.052-0.48,1.712v31.901c0,0.662-0.15,1.232-0.447,1.712c-0.301,0.481-0.671,0.721-1.111,0.721h-20.715
		c-0.44,0-0.81-0.239-1.111-0.721c-0.301-0.48-0.451-1.05-0.451-1.712V22.46c0-0.661-0.158-1.231-0.48-1.712
		c-0.319-0.48-0.7-0.721-1.14-0.721h-4.741c-0.444,0-0.821,0.241-1.14,0.721c-0.323,0.481-0.48,1.052-0.48,1.712v54.881
		c0,0.662,0.158,1.232,0.48,1.712c0.319,0.481,0.697,0.721,1.14,0.721h4.741c0.44,0,0.821-0.239,1.14-0.721
		c0.323-0.48,0.48-1.051,0.48-1.712v-7.39c0-0.66,0.15-1.23,0.451-1.712c0.301-0.48,0.671-0.721,1.111-0.721h20.715
		c0.44,0,0.81,0.241,1.111,0.721c0.297,0.482,0.447,1.052,0.447,1.712v7.39c0,0.662,0.161,1.232,0.48,1.712
		c0.323,0.481,0.7,0.721,1.144,0.721h4.741c0.44,0,0.821-0.239,1.14-0.721C940.353,78.573,940.515,78.002,940.515,77.341z
		 M836.887,79.684L836.887,79.684z M828.783,77.341V37.689c0-2.463-0.312-4.761-0.931-6.894c-0.62-2.132-1.467-3.995-2.549-5.587
		c-1.078-1.591-2.336-2.853-3.777-3.785c-1.437-0.931-2.978-1.397-4.613-1.397h-15.948c-1.639,0-3.176,0.466-4.617,1.397
		c-1.437,0.932-2.699,2.178-3.777,3.74c-1.078,1.563-1.929,3.411-2.549,5.542c-0.62,2.133-0.928,4.401-0.928,6.804v39.832
		c0,0.662,0.147,1.232,0.447,1.712c0.297,0.481,0.664,0.721,1.1,0.721h4.771c0.433,0,0.803-0.241,1.1-0.722
		c0.297-0.482,0.447-1.053,0.447-1.715V37.612c0-1.926,0.392-3.551,1.173-4.875s1.716-1.987,2.798-1.987h16.01
		c1.085,0,2.017,0.663,2.802,1.987c0.781,1.324,1.173,2.948,1.173,4.875v39.725c0,0.662,0.147,1.233,0.447,1.715
		c0.297,0.481,0.664,0.722,1.1,0.722h4.767c0.436,0,0.803-0.239,1.104-0.721C828.632,78.573,828.783,78.002,828.783,77.341z
		 M773.005,77.341v-5.948c0-0.66-0.161-1.217-0.48-1.667c-0.319-0.451-0.7-0.676-1.14-0.676h-12.728c-0.44,0-0.81-0.241-1.111-0.722
		c-0.301-0.481-0.451-1.053-0.451-1.716V33.099c0-0.662,0.15-1.219,0.451-1.671c0.301-0.451,0.671-0.677,1.111-0.677h4.804
		c0.44,0,0.81-0.238,1.111-0.714c0.297-0.476,0.447-1.043,0.447-1.7V22.44c0-0.656-0.15-1.222-0.447-1.698
		c-0.301-0.476-0.671-0.715-1.111-0.715h-20.715c-0.44,0-0.81,0.24-1.111,0.715c-0.301,0.476-0.451,1.042-0.451,1.698v5.897
		c0,0.656,0.15,1.224,0.451,1.7c0.301,0.476,0.671,0.714,1.111,0.714h4.804c0.44,0,0.81,0.227,1.111,0.677
		c0.301,0.452,0.451,1.01,0.451,1.671v33.512c0,0.663-0.15,1.235-0.451,1.716c-0.301,0.481-0.671,0.722-1.111,0.722h-12.728
		c-0.444,0-0.821,0.226-1.14,0.676c-0.323,0.45-0.48,1.007-0.48,1.667v5.948c0,0.662,0.158,1.232,0.48,1.712
		c0.319,0.481,0.697,0.721,1.14,0.721h36.563c0.44,0,0.821-0.239,1.14-0.721C772.844,78.573,773.005,78.002,773.005,77.341z
		 M669.377,79.684L669.377,79.684z M660.4,55.353c-0.62-2.163-1.47-4.04-2.552-5.632c-1.078-1.591-2.35-2.853-3.81-3.785
		c-1.463-0.931-3.014-1.397-4.653-1.397h-17.231c-1.122,0-2.065-0.665-2.824-1.995c-0.759-1.331-1.14-2.964-1.14-4.898
		c0-1.935,0.381-3.567,1.14-4.897c0.759-1.331,1.701-1.997,2.824-1.997h26.717c0.44,0,0.818-0.238,1.14-0.714
		c0.319-0.476,0.48-1.043,0.48-1.7V22.44c0-0.656-0.161-1.222-0.48-1.698c-0.323-0.476-0.7-0.715-1.14-0.715h-26.717
		c-1.643,0-3.194,0.466-4.653,1.397c-1.463,0.932-2.732,2.194-3.814,3.785c-1.082,1.592-1.932,3.469-2.552,5.632
		c-0.62,2.163-0.931,4.446-0.931,6.849c0,2.464,0.312,4.762,0.931,6.894c0.62,2.133,1.47,3.98,2.552,5.542
		c1.082,1.563,2.351,2.809,3.814,3.74c1.459,0.932,3.011,1.397,4.653,1.397h17.231c1.082,0,2.01,0.676,2.791,2.028
		c0.781,1.352,1.17,2.989,1.17,4.911c0,1.923-0.389,3.545-1.17,4.866c-0.781,1.322-1.709,1.982-2.791,1.982h-18.313
		c-0.44,0-0.81,0.226-1.111,0.676c-0.301,0.45-0.451,1.007-0.451,1.667v5.948c0,0.662,0.15,1.232,0.451,1.712
		c0.301,0.481,0.671,0.721,1.111,0.721h18.313c1.639,0,3.19-0.465,4.653-1.397c1.459-0.931,2.732-2.192,3.81-3.785
		c1.082-1.591,1.932-3.454,2.552-5.587c0.62-2.132,0.931-4.4,0.931-6.804C661.332,59.799,661.02,57.515,660.4,55.353z
		 M589.646,38.771V22.46c0-0.661-0.161-1.231-0.48-1.712c-0.323-0.48-0.704-0.721-1.144-0.721h-4.8c-0.444,0-0.821,0.241-1.14,0.721
		c-0.323,0.481-0.48,1.052-0.48,1.712v16.311c0,0.662,0.158,1.216,0.48,1.667c0.319,0.451,0.697,0.676,1.14,0.676h4.8
		c0.44,0,0.821-0.225,1.144-0.676C589.485,39.987,589.646,39.433,589.646,38.771z M540.953,63.081c0,1.929-0.381,3.406-1.144,4.431
		c-0.763,1.025-1.705,1.538-2.827,1.538h-15.893c-1.122,0-2.068-0.512-2.827-1.538c-0.763-1.025-1.144-2.502-1.144-4.431V49.876
		c0-1.929,0.381-3.406,1.144-4.431c0.759-1.025,1.705-1.538,2.827-1.538h18.54c0.88,0,1.324,0.663,1.324,1.989V63.081z
		 M548.819,22.279c0-0.66-0.169-1.201-0.506-1.622c-0.337-0.419-0.726-0.631-1.162-0.631h-4.587c-0.44,0-0.818,0.211-1.133,0.631
		c-0.319,0.421-0.477,0.962-0.477,1.622v10.904h-19.812c-1.643,0-3.183,0.421-4.624,1.262c-1.441,0.842-2.703,1.998-3.781,3.469
		c-1.082,1.473-1.932,3.23-2.552,5.272c-0.623,2.043-0.931,4.267-0.931,6.668v13.067c0,2.464,0.308,4.717,0.928,6.759
		c0.62,2.043,1.47,3.816,2.549,5.317c1.078,1.502,2.339,2.674,3.777,3.515c1.437,0.842,2.978,1.262,4.617,1.262h15.827
		c1.635,0,3.176-0.419,4.613-1.262c1.441-0.84,2.699-2.012,3.777-3.515c1.082-1.501,1.929-3.273,2.549-5.317
		c0.62-2.042,0.931-4.294,0.931-6.759V22.279z M485.839,62.186c0,1.926-0.389,3.553-1.17,4.878
		c-0.781,1.325-1.709,1.986-2.791,1.986h-15.911c-1.122,0-2.061-0.662-2.824-1.986c-0.759-1.325-1.14-2.952-1.14-4.878V37.615
		c0-1.926,0.381-3.551,1.14-4.876c0.763-1.325,1.701-1.988,2.824-1.988h15.911c1.082,0,2.009,0.663,2.791,1.988
		c0.781,1.325,1.17,2.95,1.17,4.876V62.186z M493.825,37.689v-0.18c0-2.402-0.319-4.67-0.961-6.804
		c-0.642-2.132-1.5-3.979-2.582-5.542c-1.082-1.562-2.343-2.808-3.781-3.74c-1.441-0.931-2.985-1.397-4.624-1.397h-15.911
		c-1.643,0-3.183,0.466-4.624,1.397c-1.441,0.932-2.703,2.178-3.781,3.74c-1.082,1.563-1.943,3.411-2.582,5.542
		c-0.642,2.133-0.961,4.401-0.961,6.804v24.692c0,2.464,0.308,4.762,0.928,6.894c0.623,2.133,1.474,3.98,2.552,5.542
		c1.082,1.563,2.351,2.809,3.814,3.74c1.459,0.932,3.011,1.397,4.653,1.397h15.911c1.639,0,3.19-0.465,4.653-1.397
		c1.459-0.931,2.732-2.177,3.81-3.74c1.082-1.562,1.932-3.409,2.552-5.542c0.62-2.132,0.931-4.43,0.931-6.894V37.689z
		 M438.711,77.341V46.972c0-0.661-0.161-1.231-0.48-1.712c-0.323-0.48-0.704-0.721-1.144-0.721h-9.365
		c-0.44,0-0.821,0.241-1.14,0.721c-0.319,0.481-0.48,1.052-0.48,1.712v5.947c0,0.662,0.161,1.217,0.48,1.667s0.7,0.676,1.14,0.676
		h1.441c0.44,0,0.81,0.241,1.111,0.721c0.301,0.482,0.451,1.052,0.451,1.712v8.921c0,0.662-0.15,1.232-0.451,1.712
		c-0.301,0.481-0.671,0.721-1.111,0.721h-13.087c-1.643,0-3.194-0.496-4.653-1.489c-1.463-0.994-2.732-2.364-3.814-4.11
		c-1.078-1.746-1.932-3.779-2.552-6.097c-0.62-2.317-0.928-4.803-0.928-7.453s0.308-5.134,0.928-7.452s1.474-4.351,2.552-6.097
		c1.082-1.746,2.35-3.116,3.814-4.11c1.459-0.994,3.011-1.491,4.653-1.491h13.087c0.44,0,0.81-0.238,1.111-0.714
		s0.451-1.043,0.451-1.7V22.44c0-0.656-0.15-1.222-0.451-1.698c-0.301-0.476-0.671-0.715-1.111-0.715h-13.087
		c-2.761,0-5.343,0.782-7.745,2.343c-2.402,1.563-4.503,3.695-6.303,6.398c-1.804,2.703-3.223,5.873-4.265,9.507
		c-1.041,3.635-1.562,7.524-1.562,11.67s0.521,8.021,1.562,11.625s2.461,6.759,4.265,9.462c1.8,2.704,3.902,4.836,6.303,6.398
		c2.402,1.563,4.983,2.343,7.745,2.343h21.012c0.44,0,0.821-0.239,1.144-0.721C438.55,78.573,438.711,78.002,438.711,77.341z
		 M334.361,79.684L334.361,79.684z M278.524,79.684L278.524,79.684z M256.669,71.303c0-0.66-0.161-1.216-0.48-1.667
		c-0.319-0.451-0.7-0.676-1.14-0.676h-8.944c-0.444,0-0.821,0.225-1.144,0.676c-0.319,0.451-0.48,1.007-0.48,1.667v6.038
		c0,0.662,0.161,1.216,0.48,1.667c0.323,0.451,0.7,0.676,1.144,0.676h8.944c0.44,0,0.821-0.225,1.14-0.676
		c0.319-0.451,0.48-1.005,0.48-1.667V71.303z M256.669,46.972c0-0.661-0.161-1.231-0.48-1.712c-0.319-0.48-0.7-0.721-1.14-0.721
		h-8.944c-0.444,0-0.821,0.241-1.144,0.721c-0.319,0.481-0.48,1.052-0.48,1.712v5.947c0,0.662,0.161,1.217,0.48,1.667
		c0.323,0.451,0.7,0.676,1.144,0.676h8.944c0.44,0,0.821-0.225,1.14-0.676c0.319-0.451,0.48-1.005,0.48-1.667V46.972z
		 M215.603,38.05V22.46c0-0.661-0.161-1.231-0.48-1.712c-0.319-0.48-0.7-0.721-1.14-0.721h-4.745c-0.44,0-0.818,0.241-1.14,0.721
		c-0.319,0.481-0.48,1.052-0.48,1.712v14.779c0,1.022-0.128,1.998-0.389,2.929c-0.26,0.932-0.612,1.728-1.052,2.388l-15.97,25.323
		l-0.059,0.09c-0.763,0.961-1.562,1.442-2.402,1.442c-1.122,0-2.061-0.661-2.824-1.983c-0.759-1.321-1.14-2.943-1.14-4.866V22.46
		c0-0.661-0.161-1.231-0.48-1.712c-0.319-0.48-0.7-0.721-1.14-0.721h-4.741c-0.444,0-0.821,0.241-1.14,0.721
		c-0.323,0.481-0.48,1.052-0.48,1.712v40.913c0,2.464,0.308,4.762,0.928,6.894c0.62,2.133,1.474,3.996,2.552,5.587
		c1.082,1.592,2.351,2.854,3.814,3.785c1.459,0.931,3.011,1.397,4.653,1.397c1.599,0,3.11-0.406,4.532-1.217
		c1.419-0.811,2.633-2.027,3.634-3.649l15.97-25.773c1.041-1.681,1.921-3.544,2.64-5.587
		C215.244,42.767,215.603,40.514,215.603,38.05z M160.489,47.422v-9.823c0-2.402-0.312-4.68-0.931-6.834
		c-0.623-2.154-1.47-4.02-2.552-5.6c-1.082-1.578-2.354-2.829-3.814-3.752s-3.011-1.386-4.653-1.386h-15.911
		c-1.639,0-3.19,0.466-4.653,1.397c-1.459,0.932-2.732,2.194-3.81,3.785c-1.082,1.592-1.932,3.469-2.552,5.632
		c-0.62,2.163-0.931,4.446-0.931,6.849v39.651c0,0.662,0.161,1.232,0.48,1.712c0.319,0.481,0.7,0.721,1.14,0.721h4.745
		c0.44,0,0.818-0.241,1.14-0.722c0.319-0.482,0.48-1.053,0.48-1.715V37.612c0-1.926,0.378-3.551,1.14-4.875
		c0.759-1.324,1.701-1.987,2.82-1.987h15.911c1.082,0,2.013,0.662,2.794,1.982c0.777,1.322,1.17,2.944,1.17,4.866v9.823
		c0,0.662,0.158,1.232,0.48,1.712c0.319,0.481,0.7,0.721,1.14,0.721h4.741c0.44,0,0.821-0.239,1.144-0.721
		C160.327,48.654,160.489,48.084,160.489,47.422z M94.773,42.543c-0.781,1.331-1.712,1.995-2.791,1.995H73.67
		c-0.44,0-0.81-0.227-1.111-0.68c-0.301-0.454-0.451-1.013-0.451-1.679v-4.535c0-1.935,0.381-3.567,1.14-4.897
		c0.763-1.331,1.701-1.997,2.824-1.997h15.911c1.078,0,2.009,0.666,2.791,1.997s1.17,2.962,1.17,4.897
		C95.943,39.579,95.554,41.212,94.773,42.543z M102.998,30.841c-0.62-2.163-1.47-4.04-2.552-5.632
		c-1.078-1.591-2.351-2.853-3.81-3.785c-1.463-0.931-3.014-1.397-4.653-1.397H76.072c-1.643,0-3.194,0.466-4.653,1.397
		c-1.463,0.932-2.732,2.194-3.814,3.785c-1.078,1.592-1.932,3.469-2.552,5.632c-0.62,2.163-0.928,4.446-0.928,6.849v24.512
		c0,2.464,0.308,4.762,0.928,6.894c0.62,2.133,1.474,3.98,2.552,5.542c1.082,1.563,2.351,2.809,3.814,3.74
		c1.459,0.932,3.011,1.397,4.653,1.397h18.313c0.44,0,0.81-0.239,1.111-0.721c0.297-0.48,0.447-1.051,0.447-1.712v-5.948
		c0-0.66-0.15-1.217-0.447-1.667c-0.301-0.451-0.671-0.676-1.111-0.676H76.072c-1.122,0-2.061-0.66-2.824-1.982
		c-0.759-1.321-1.14-2.943-1.14-4.866v-4.506c0-0.66,0.15-1.23,0.451-1.712c0.301-0.48,0.671-0.721,1.111-0.721h18.313
		c1.639,0,3.19-0.465,4.653-1.397c1.459-0.931,2.732-2.177,3.81-3.74c1.082-1.562,1.932-3.409,2.552-5.542
		c0.62-2.132,0.931-4.43,0.931-6.894C103.93,35.287,103.618,33.003,102.998,30.841z M47.074,77.341V22.46
		c0-0.661-0.15-1.231-0.447-1.712c-0.301-0.48-0.667-0.721-1.104-0.721h-4.767c-0.436,0-0.803,0.241-1.1,0.721
		c-0.301,0.481-0.447,1.052-0.447,1.712v38.66L16.095,20.928c-0.403-0.6-0.821-0.901-1.265-0.901H8.934
		c-0.436,0-0.803,0.241-1.1,0.721c-0.301,0.481-0.447,1.052-0.447,1.712v54.881c0,0.662,0.147,1.232,0.447,1.712
		c0.297,0.481,0.664,0.721,1.1,0.721h4.771c0.433,0,0.803-0.239,1.1-0.721c0.297-0.48,0.447-1.051,0.447-1.712V37.87l23.776,41.093
		c0.275,0.541,0.656,0.811,1.129,0.811h5.365c0.436,0,0.803-0.239,1.104-0.721C46.923,78.573,47.074,78.002,47.074,77.341z"/>
</g>
</svg>
