<?xml version="1.0" encoding="iso-8859-1"?>
<!-- Generator: Adobe Illustrator 25.3.1, SVG Export Plug-In . SVG Version: 6.00 Build 0)  -->
<svg version="1.1" id="Layer_1" xmlns="http://www.w3.org/2000/svg" xmlns:xlink="http://www.w3.org/1999/xlink" x="0px" y="0px"
	 viewBox="0 0 1606 94" style="enable-background:new 0 0 1606 94;" xml:space="preserve">
<g>
	<path d="M1595.907,60.688c0,1.929-0.202,3.406-0.607,4.431c-0.404,1.025-0.904,1.538-1.499,1.538h-8.425
		c-0.595,0-1.096-0.512-1.499-1.538c-0.404-1.025-0.607-2.502-0.607-4.431V47.483c0-1.929,0.202-3.406,0.607-4.431
		c0.402-1.025,0.904-1.538,1.499-1.538h9.828c0.467,0,0.702,0.663,0.702,1.989V60.688z M1600.076,19.886
		c0-0.66-0.089-1.201-0.268-1.622c-0.179-0.419-0.385-0.631-0.616-0.631h-2.432c-0.233,0-0.434,0.211-0.601,0.631
		c-0.169,0.421-0.253,0.962-0.253,1.622V30.79h-10.503c-0.871,0-1.687,0.421-2.451,1.262c-0.764,0.842-1.433,1.998-2.004,3.469
		c-0.573,1.473-1.025,3.23-1.353,5.272c-0.33,2.043-0.494,4.267-0.494,6.668v13.067c0,2.464,0.163,4.717,0.492,6.759
		c0.328,2.043,0.78,3.816,1.351,5.317c0.572,1.502,1.24,2.674,2.002,3.515c0.762,0.842,1.578,1.262,2.447,1.262h8.39
		c0.867,0,1.683-0.419,2.445-1.262c0.764-0.84,1.431-2.012,2.002-3.515c0.573-1.501,1.022-3.273,1.351-5.317
		c0.329-2.042,0.494-4.294,0.494-6.759V19.886z M1572.321,74.947V69c0-0.66-0.084-1.217-0.255-1.667
		c-0.169-0.451-0.371-0.676-0.605-0.676h-10.375c-0.233,0-0.43-0.239-0.589-0.721c-0.159-0.48-0.239-1.05-0.239-1.712V20.066
		c0-0.661-0.085-1.231-0.255-1.712c-0.169-0.48-0.371-0.721-0.604-0.721h-7.321c-0.233,0-0.435,0.24-0.604,0.715
		c-0.169,0.476-0.255,1.042-0.255,1.698v5.897c0,0.656,0.085,1.224,0.255,1.7c0.169,0.476,0.371,0.714,0.604,0.714h3.12
		c0.233,0,0.43,0.227,0.589,0.677c0.157,0.452,0.237,1.01,0.237,1.671v33.512c0,0.663-0.08,1.235-0.237,1.716
		c-0.159,0.481-0.356,0.722-0.589,0.722h-3.12c-0.233,0-0.435,0.226-0.604,0.676c-0.169,0.45-0.255,1.007-0.255,1.667v5.948
		c0,0.662,0.085,1.232,0.255,1.712c0.169,0.481,0.371,0.721,0.604,0.721h19.383c0.233,0,0.435-0.239,0.605-0.721
		C1572.237,76.179,1572.321,75.609,1572.321,74.947z M1542.214,45.028v-9.823c0-2.402-0.165-4.68-0.494-6.834
		c-0.33-2.154-0.78-4.02-1.353-5.6c-0.573-1.578-1.248-2.829-2.022-3.752s-1.596-1.386-2.467-1.386h-8.435
		c-0.869,0-1.691,0.466-2.467,1.397c-0.774,0.932-1.448,2.194-2.02,3.785c-0.573,1.592-1.024,3.469-1.353,5.632
		c-0.329,2.163-0.494,4.446-0.494,6.849v39.651c0,0.662,0.085,1.232,0.255,1.712c0.169,0.481,0.371,0.721,0.604,0.721h2.516
		c0.233,0,0.433-0.241,0.604-0.722c0.169-0.482,0.255-1.053,0.255-1.715V35.218c0-1.926,0.2-3.551,0.604-4.875
		c0.402-1.324,0.902-1.987,1.495-1.987h8.435c0.573,0,1.067,0.662,1.481,1.982c0.412,1.322,0.62,2.944,0.62,4.866v9.823
		c0,0.662,0.084,1.232,0.255,1.712c0.169,0.481,0.371,0.721,0.605,0.721h2.513c0.233,0,0.435-0.239,0.607-0.721
		C1542.128,46.261,1542.214,45.69,1542.214,45.028z M1507.487,59.792c0,1.926-0.206,3.553-0.62,4.878
		c-0.414,1.325-0.906,1.986-1.479,1.986h-8.435c-0.595,0-1.093-0.662-1.497-1.986c-0.402-1.325-0.605-2.952-0.605-4.878V35.221
		c0-1.926,0.202-3.551,0.605-4.876c0.404-1.325,0.902-1.988,1.497-1.988h8.435c0.573,0,1.065,0.663,1.479,1.988
		c0.414,1.325,0.62,2.95,0.62,4.876V59.792z M1511.721,35.296v-0.18c0-2.402-0.169-4.67-0.509-6.804
		c-0.34-2.132-0.795-3.979-1.369-5.542c-0.573-1.562-1.242-2.808-2.004-3.74c-0.764-0.931-1.582-1.397-2.451-1.397h-8.435
		c-0.871,0-1.687,0.466-2.451,1.397c-0.764,0.932-1.433,2.178-2.004,3.74c-0.573,1.563-1.03,3.411-1.369,5.542
		c-0.34,2.133-0.509,4.401-0.509,6.804v24.692c0,2.464,0.163,4.762,0.492,6.894c0.331,2.133,0.781,3.98,1.353,5.542
		c0.573,1.563,1.246,2.809,2.022,3.74c0.774,0.932,1.596,1.397,2.467,1.397h8.435c0.869,0,1.691-0.465,2.467-1.397
		c0.774-0.931,1.448-2.177,2.02-3.74c0.573-1.562,1.024-3.409,1.353-5.542c0.328-2.132,0.494-4.43,0.494-6.894V35.296z
		 M1482.09,60.979V19.976c0-0.66-0.08-1.217-0.237-1.667c-0.159-0.451-0.354-0.676-0.585-0.676h-2.527
		c-0.231,0-0.426,0.227-0.583,0.678c-0.159,0.452-0.237,1.008-0.237,1.67v41.076c0,1.926-0.21,3.553-0.626,4.876
		c-0.416,1.324-0.925,1.985-1.522,1.985c-0.577,0-1.075-0.66-1.493-1.982c-0.416-1.321-0.624-2.943-0.624-4.866v-5.677
		c0-0.661-0.08-1.217-0.237-1.667c-0.159-0.45-0.354-0.676-0.585-0.676h-2.527c-0.231,0-0.426,0.226-0.583,0.676
		c-0.159,0.451-0.237,1.007-0.237,1.667v5.677c0,1.923-0.21,3.545-0.626,4.866c-0.416,1.322-0.914,1.982-1.491,1.982
		c-0.599,0-1.106-0.662-1.524-1.985c-0.416-1.323-0.624-2.95-0.624-4.876V19.981c0-0.662-0.08-1.218-0.237-1.67
		c-0.157-0.451-0.354-0.678-0.583-0.678h-2.529c-0.231,0-0.426,0.226-0.583,0.676c-0.159,0.45-0.237,1.007-0.237,1.667v41.003
		c0,2.464,0.163,4.762,0.492,6.894c0.329,2.133,0.78,3.996,1.351,5.587c0.572,1.592,1.244,2.854,2.018,3.785
		s1.594,1.397,2.463,1.397c0.805,0,1.569-0.406,2.288-1.217c0.721-0.811,1.357-1.906,1.907-3.289
		c0.552,1.383,1.188,2.478,1.907,3.289c0.721,0.811,1.483,1.217,2.288,1.217c0.869,0,1.689-0.466,2.463-1.397
		s1.446-2.192,2.018-3.785c0.573-1.591,1.023-3.454,1.351-5.587C1481.924,65.741,1482.09,63.443,1482.09,60.979z M1427.187,77.29
		L1427.187,77.29z M1418.578,40.149c-0.414,1.331-0.908,1.995-1.479,1.995h-9.708c-0.233,0-0.43-0.227-0.589-0.68
		c-0.159-0.454-0.239-1.013-0.239-1.679v-4.535c0-1.935,0.202-3.567,0.605-4.897c0.404-1.331,0.902-1.997,1.497-1.997h8.435
		c0.572,0,1.065,0.666,1.479,1.997s0.62,2.962,0.62,4.897C1419.198,37.186,1418.992,38.819,1418.578,40.149z M1422.938,28.447
		c-0.329-2.163-0.78-4.04-1.353-5.632c-0.572-1.591-1.246-2.853-2.02-3.785c-0.776-0.931-1.598-1.397-2.467-1.397h-8.435
		c-0.871,0-1.693,0.466-2.467,1.397c-0.776,0.932-1.448,2.194-2.022,3.785c-0.572,1.592-1.025,3.469-1.353,5.632
		c-0.328,2.163-0.492,4.446-0.492,6.849v24.512c0,2.464,0.163,4.762,0.492,6.894c0.328,2.133,0.781,3.98,1.353,5.542
		c0.573,1.563,1.246,2.809,2.022,3.74c0.774,0.932,1.596,1.397,2.467,1.397h9.708c0.233,0,0.43-0.239,0.589-0.721
		c0.157-0.48,0.237-1.051,0.237-1.712V69c0-0.66-0.08-1.217-0.237-1.667c-0.159-0.451-0.356-0.676-0.589-0.676h-9.708
		c-0.595,0-1.093-0.66-1.497-1.982c-0.402-1.321-0.605-2.943-0.605-4.866v-4.506c0-0.66,0.08-1.23,0.239-1.712
		c0.159-0.48,0.356-0.721,0.589-0.721h9.708c0.869,0,1.691-0.465,2.467-1.397c0.774-0.931,1.448-2.177,2.02-3.74
		c0.573-1.562,1.024-3.409,1.353-5.542c0.328-2.132,0.494-4.43,0.494-6.894C1423.432,32.894,1423.266,30.61,1422.938,28.447z
		 M1393.322,74.947V47.822c0-2.402-0.165-4.686-0.494-6.849c-0.329-2.163-0.78-4.024-1.353-5.587
		c-0.572-1.562-1.246-2.808-2.02-3.74c-0.776-0.931-1.598-1.396-2.467-1.396h-9.708c-0.233,0-0.43-0.24-0.589-0.721
		c-0.159-0.48-0.239-1.05-0.239-1.712v-7.75c0-0.661-0.084-1.231-0.255-1.712c-0.169-0.48-0.371-0.721-0.604-0.721h-2.514
		c-0.235,0-0.435,0.241-0.605,0.721c-0.171,0.481-0.255,1.052-0.255,1.712v54.881c0,0.662,0.084,1.232,0.255,1.712
		c0.169,0.481,0.369,0.721,0.605,0.721h2.514c0.233,0,0.435-0.239,0.604-0.721c0.171-0.48,0.255-1.051,0.255-1.712V43.316
		c0-0.661,0.08-1.217,0.239-1.667c0.159-0.45,0.356-0.676,0.589-0.676h9.708c0.573,0,1.065,0.662,1.479,1.983
		c0.414,1.322,0.62,2.944,0.62,4.866v27.125c0,0.662,0.086,1.232,0.255,1.712c0.171,0.481,0.371,0.721,0.606,0.721h2.514
		c0.233,0,0.435-0.239,0.604-0.721C1393.237,76.179,1393.322,75.609,1393.322,74.947z M1363.977,59.808v-3.695
		c0-0.66-0.08-1.216-0.237-1.667s-0.352-0.676-0.583-0.676h-2.527c-0.233,0-0.428,0.225-0.585,0.676s-0.237,1.007-0.237,1.667v3.695
		c0,1.923-0.208,3.545-0.622,4.866c-0.416,1.322-0.921,1.982-1.516,1.982h-6.003c-0.575,0-1.069-0.66-1.485-1.982
		c-0.414-1.321-0.622-2.943-0.622-4.866V37.189h13.59c0.233,0,0.43-0.226,0.589-0.676c0.159-0.451,0.239-1.005,0.239-1.667v-6.038
		c0-0.661-0.08-1.217-0.239-1.667c-0.159-0.45-0.356-0.676-0.589-0.676h-13.59v-6.398c0-0.661-0.08-1.231-0.237-1.712
		c-0.157-0.48-0.352-0.721-0.583-0.721h-2.529c-0.231,0-0.426,0.241-0.583,0.721c-0.157,0.481-0.237,1.052-0.237,1.712v6.398h-2.197
		c-0.233,0-0.435,0.226-0.604,0.676c-0.169,0.451-0.255,1.007-0.255,1.667v6.038c0,0.662,0.085,1.217,0.255,1.667
		c0.169,0.45,0.371,0.676,0.604,0.676h2.197v22.619c0,2.404,0.165,4.672,0.492,6.804c0.328,2.133,0.78,3.996,1.351,5.587
		c0.572,1.592,1.238,2.854,2.002,3.785c0.762,0.932,1.578,1.397,2.445,1.397h5.974c0.869,0,1.689-0.465,2.463-1.397
		c0.774-0.931,1.446-2.192,2.018-3.785c0.572-1.591,1.023-3.454,1.351-5.587C1363.811,64.48,1363.977,62.211,1363.977,59.808z
		 M1308.787,77.29L1308.787,77.29z M1304.522,74.947V47.822c0-2.402-0.165-4.686-0.494-6.849c-0.328-2.163-0.78-4.024-1.353-5.587
		c-0.572-1.562-1.246-2.808-2.02-3.74c-0.776-0.931-1.598-1.396-2.467-1.396h-9.708c-0.233,0-0.43-0.24-0.589-0.721
		c-0.159-0.48-0.239-1.05-0.239-1.712v-7.75c0-0.661-0.084-1.231-0.255-1.712c-0.169-0.48-0.371-0.721-0.605-0.721h-2.513
		c-0.235,0-0.436,0.241-0.605,0.721c-0.171,0.481-0.255,1.052-0.255,1.712v54.881c0,0.662,0.084,1.232,0.255,1.712
		c0.169,0.481,0.369,0.721,0.605,0.721h2.513c0.233,0,0.435-0.239,0.605-0.721c0.171-0.48,0.255-1.051,0.255-1.712V43.316
		c0-0.661,0.08-1.217,0.239-1.667c0.159-0.45,0.356-0.676,0.589-0.676h9.708c0.573,0,1.065,0.662,1.479,1.983
		c0.414,1.322,0.62,2.944,0.62,4.866v27.125c0,0.662,0.086,1.232,0.255,1.712c0.171,0.481,0.371,0.721,0.607,0.721h2.513
		c0.233,0,0.435-0.239,0.605-0.721C1304.436,76.179,1304.522,75.609,1304.522,74.947z M1275.176,59.808v-3.695
		c0-0.66-0.08-1.216-0.237-1.667s-0.352-0.676-0.583-0.676h-2.527c-0.233,0-0.428,0.225-0.585,0.676s-0.237,1.007-0.237,1.667v3.695
		c0,1.923-0.208,3.545-0.622,4.866c-0.416,1.322-0.921,1.982-1.516,1.982h-6.003c-0.575,0-1.069-0.66-1.485-1.982
		c-0.414-1.321-0.622-2.943-0.622-4.866V37.189h13.59c0.233,0,0.43-0.226,0.589-0.676c0.159-0.451,0.239-1.005,0.239-1.667v-6.038
		c0-0.661-0.08-1.217-0.239-1.667c-0.159-0.45-0.356-0.676-0.589-0.676h-13.59v-6.398c0-0.661-0.08-1.231-0.237-1.712
		c-0.157-0.48-0.352-0.721-0.583-0.721h-2.529c-0.231,0-0.426,0.241-0.583,0.721c-0.157,0.481-0.237,1.052-0.237,1.712v6.398h-2.197
		c-0.233,0-0.435,0.226-0.605,0.676c-0.169,0.451-0.255,1.007-0.255,1.667v6.038c0,0.662,0.086,1.217,0.255,1.667
		c0.169,0.45,0.371,0.676,0.605,0.676h2.197v22.619c0,2.404,0.165,4.672,0.492,6.804c0.328,2.133,0.78,3.996,1.351,5.587
		c0.572,1.592,1.238,2.854,2.002,3.785c0.762,0.932,1.578,1.397,2.445,1.397h5.974c0.869,0,1.689-0.465,2.463-1.397
		c0.774-0.931,1.446-2.192,2.018-3.785c0.572-1.591,1.022-3.454,1.351-5.587C1275.011,64.48,1275.176,62.211,1275.176,59.808z
		 M1245.321,74.947V69c0-0.66-0.086-1.217-0.255-1.667c-0.169-0.451-0.371-0.676-0.604-0.676h-6.747
		c-0.233,0-0.43-0.241-0.589-0.722s-0.239-1.053-0.239-1.716V30.706c0-0.662,0.08-1.219,0.239-1.671
		c0.159-0.451,0.356-0.677,0.589-0.677h2.547c0.233,0,0.43-0.238,0.589-0.714c0.157-0.476,0.237-1.043,0.237-1.7v-5.897
		c0-0.656-0.08-1.222-0.237-1.698c-0.159-0.476-0.356-0.715-0.589-0.715h-10.981c-0.233,0-0.43,0.24-0.589,0.715
		c-0.159,0.476-0.239,1.042-0.239,1.698v5.897c0,0.656,0.08,1.224,0.239,1.7s0.356,0.714,0.589,0.714h2.547
		c0.233,0,0.43,0.227,0.589,0.677c0.159,0.452,0.239,1.01,0.239,1.671v33.512c0,0.663-0.08,1.235-0.239,1.716
		s-0.356,0.722-0.589,0.722h-6.747c-0.235,0-0.435,0.226-0.605,0.676c-0.171,0.45-0.255,1.007-0.255,1.667v5.948
		c0,0.662,0.084,1.232,0.255,1.712c0.169,0.481,0.369,0.721,0.605,0.721h19.383c0.233,0,0.435-0.239,0.604-0.721
		C1245.236,76.179,1245.321,75.609,1245.321,74.947z M1215.69,60.979V19.976c0-0.66-0.08-1.217-0.237-1.667
		c-0.159-0.451-0.354-0.676-0.585-0.676h-2.527c-0.231,0-0.426,0.227-0.583,0.678c-0.159,0.452-0.237,1.008-0.237,1.67v41.076
		c0,1.926-0.21,3.553-0.626,4.876c-0.416,1.324-0.925,1.985-1.522,1.985c-0.577,0-1.075-0.66-1.493-1.982
		c-0.416-1.321-0.624-2.943-0.624-4.866v-5.677c0-0.661-0.08-1.217-0.237-1.667c-0.159-0.45-0.354-0.676-0.585-0.676h-2.527
		c-0.231,0-0.426,0.226-0.583,0.676c-0.159,0.451-0.237,1.007-0.237,1.667v5.677c0,1.923-0.21,3.545-0.626,4.866
		c-0.416,1.322-0.914,1.982-1.491,1.982c-0.599,0-1.106-0.662-1.524-1.985c-0.416-1.323-0.624-2.95-0.624-4.876V19.981
		c0-0.662-0.08-1.218-0.237-1.67c-0.157-0.451-0.354-0.678-0.583-0.678h-2.529c-0.231,0-0.426,0.226-0.583,0.676
		c-0.159,0.45-0.237,1.007-0.237,1.667v41.003c0,2.464,0.163,4.762,0.492,6.894c0.329,2.133,0.78,3.996,1.351,5.587
		c0.572,1.592,1.244,2.854,2.018,3.785s1.594,1.397,2.463,1.397c0.805,0,1.569-0.406,2.288-1.217
		c0.721-0.811,1.357-1.906,1.907-3.289c0.552,1.383,1.188,2.478,1.907,3.289c0.721,0.811,1.483,1.217,2.288,1.217
		c0.869,0,1.689-0.466,2.463-1.397s1.446-2.192,2.018-3.785c0.573-1.591,1.023-3.454,1.351-5.587
		C1215.525,65.741,1215.69,63.443,1215.69,60.979z M1160.786,77.29L1160.786,77.29z M1156.775,59.808v-3.695
		c0-0.66-0.08-1.216-0.237-1.667c-0.157-0.451-0.352-0.676-0.583-0.676h-2.527c-0.233,0-0.428,0.225-0.585,0.676
		s-0.237,1.007-0.237,1.667v3.695c0,1.923-0.208,3.545-0.622,4.866c-0.416,1.322-0.921,1.982-1.516,1.982h-6.003
		c-0.575,0-1.069-0.66-1.485-1.982c-0.414-1.321-0.622-2.943-0.622-4.866V37.189h13.59c0.233,0,0.43-0.226,0.589-0.676
		c0.159-0.451,0.239-1.005,0.239-1.667v-6.038c0-0.661-0.08-1.217-0.239-1.667c-0.159-0.45-0.356-0.676-0.589-0.676h-13.59v-6.398
		c0-0.661-0.08-1.231-0.237-1.712c-0.157-0.48-0.352-0.721-0.583-0.721h-2.529c-0.231,0-0.426,0.241-0.583,0.721
		c-0.157,0.481-0.237,1.052-0.237,1.712v6.398h-2.197c-0.233,0-0.435,0.226-0.605,0.676c-0.169,0.451-0.255,1.007-0.255,1.667v6.038
		c0,0.662,0.086,1.217,0.255,1.667c0.169,0.45,0.371,0.676,0.605,0.676h2.197v22.619c0,2.404,0.165,4.672,0.492,6.804
		c0.328,2.133,0.779,3.996,1.351,5.587c0.572,1.592,1.238,2.854,2.002,3.785c0.762,0.932,1.578,1.397,2.445,1.397h5.974
		c0.869,0,1.689-0.465,2.463-1.397c0.774-0.931,1.446-2.192,2.018-3.785c0.572-1.591,1.022-3.454,1.351-5.587
		C1156.61,64.48,1156.775,62.211,1156.775,59.808z M1126.92,74.947V47.822c0-2.402-0.165-4.686-0.494-6.849
		c-0.329-2.163-0.78-4.024-1.353-5.587c-0.572-1.562-1.246-2.808-2.02-3.74c-0.776-0.931-1.598-1.396-2.467-1.396h-9.708
		c-0.233,0-0.43-0.24-0.589-0.721c-0.159-0.48-0.239-1.05-0.239-1.712v-7.75c0-0.661-0.084-1.231-0.255-1.712
		c-0.169-0.48-0.371-0.721-0.604-0.721h-2.514c-0.235,0-0.435,0.241-0.605,0.721c-0.171,0.481-0.255,1.052-0.255,1.712v54.881
		c0,0.662,0.084,1.232,0.255,1.712c0.169,0.481,0.369,0.721,0.605,0.721h2.514c0.233,0,0.435-0.239,0.604-0.721
		c0.171-0.48,0.255-1.051,0.255-1.712V43.316c0-0.661,0.08-1.217,0.239-1.667c0.159-0.45,0.356-0.676,0.589-0.676h9.708
		c0.573,0,1.065,0.662,1.479,1.983c0.414,1.322,0.62,2.944,0.62,4.866v27.125c0,0.662,0.085,1.232,0.255,1.712
		c0.171,0.481,0.371,0.721,0.606,0.721h2.514c0.233,0,0.435-0.239,0.604-0.721C1126.835,76.179,1126.92,75.609,1126.92,74.947z
		 M1093.31,39.877c0,0.666-0.08,1.211-0.239,1.633c-0.159,0.424-0.356,0.635-0.589,0.635h-10.12c-0.595,0-1.094-0.665-1.497-1.995
		c-0.402-1.331-0.604-2.964-0.604-4.898c0-1.935,0.202-3.567,0.604-4.897c0.402-1.331,0.902-1.997,1.497-1.997h8.847
		c0.595,0,1.092,0.666,1.497,1.997c0.402,1.331,0.604,2.962,0.604,4.897V39.877z M1097.544,35.296c0-2.402-0.165-4.686-0.494-6.849
		c-0.328-2.163-0.78-4.04-1.353-5.632c-0.573-1.591-1.246-2.853-2.022-3.785c-0.774-0.931-1.596-1.397-2.467-1.397h-8.847
		c-0.871,0-1.693,0.466-2.467,1.397c-0.776,0.932-1.448,2.194-2.022,3.785c-0.573,1.592-1.024,3.469-1.353,5.632
		c-0.328,2.163-0.494,4.446-0.494,6.849c0,2.464,0.165,4.762,0.494,6.894c0.328,2.133,0.78,3.98,1.353,5.542
		c0.573,1.563,1.246,2.809,2.022,3.74c0.774,0.932,1.596,1.397,2.467,1.397h10.12c0.233,0,0.43,0.211,0.589,0.631
		c0.159,0.421,0.239,0.961,0.239,1.622v4.686c0,1.923-0.202,3.545-0.604,4.866c-0.404,1.322-0.902,1.982-1.497,1.982h-13.304
		c-0.233,0-0.433,0.226-0.604,0.676c-0.169,0.45-0.255,1.007-0.255,1.667v5.948c0,0.662,0.086,1.232,0.255,1.712
		c0.171,0.481,0.371,0.721,0.604,0.721h13.304c0.871,0,1.693-0.465,2.467-1.397c0.776-0.931,1.448-2.177,2.022-3.74
		c0.573-1.562,1.024-3.409,1.353-5.542c0.328-2.132,0.494-4.43,0.494-6.894V35.296z M1067.72,74.947V69
		c0-0.66-0.086-1.217-0.255-1.667c-0.169-0.451-0.371-0.676-0.605-0.676h-6.747c-0.233,0-0.43-0.241-0.589-0.722
		c-0.159-0.481-0.239-1.053-0.239-1.716V30.706c0-0.662,0.08-1.219,0.239-1.671c0.159-0.451,0.356-0.677,0.589-0.677h2.547
		c0.233,0,0.43-0.238,0.589-0.714c0.157-0.476,0.237-1.043,0.237-1.7v-5.897c0-0.656-0.08-1.222-0.237-1.698
		c-0.159-0.476-0.356-0.715-0.589-0.715h-10.981c-0.233,0-0.43,0.24-0.589,0.715c-0.159,0.476-0.239,1.042-0.239,1.698v5.897
		c0,0.656,0.08,1.224,0.239,1.7c0.159,0.476,0.356,0.714,0.589,0.714h2.547c0.233,0,0.43,0.227,0.589,0.677
		c0.159,0.452,0.239,1.01,0.239,1.671v33.512c0,0.663-0.08,1.235-0.239,1.716s-0.356,0.722-0.589,0.722h-6.747
		c-0.235,0-0.435,0.226-0.604,0.676c-0.171,0.45-0.255,1.007-0.255,1.667v5.948c0,0.662,0.083,1.232,0.255,1.712
		c0.169,0.481,0.369,0.721,0.604,0.721h19.383c0.233,0,0.435-0.239,0.605-0.721C1067.635,76.179,1067.72,75.609,1067.72,74.947z
		 M1039.012,45.028v-9.823c0-2.402-0.165-4.68-0.494-6.834c-0.331-2.154-0.78-4.02-1.353-5.6c-0.573-1.578-1.248-2.829-2.022-3.752
		s-1.596-1.386-2.467-1.386h-8.435c-0.869,0-1.691,0.466-2.467,1.397c-0.774,0.932-1.448,2.194-2.02,3.785
		c-0.573,1.592-1.024,3.469-1.353,5.632c-0.329,2.163-0.494,4.446-0.494,6.849v39.651c0,0.662,0.086,1.232,0.255,1.712
		c0.169,0.481,0.371,0.721,0.605,0.721h2.515c0.233,0,0.434-0.241,0.605-0.722c0.169-0.482,0.255-1.053,0.255-1.715V35.218
		c0-1.926,0.2-3.551,0.605-4.875c0.402-1.324,0.902-1.987,1.495-1.987h8.435c0.573,0,1.067,0.662,1.481,1.982
		c0.412,1.322,0.62,2.944,0.62,4.866v9.823c0,0.662,0.083,1.232,0.255,1.712c0.169,0.481,0.371,0.721,0.604,0.721h2.514
		c0.233,0,0.435-0.239,0.606-0.721C1038.927,46.261,1039.012,45.69,1039.012,45.028z M983.186,77.29L983.186,77.29z M978.428,52.959
		c-0.328-2.163-0.779-4.04-1.353-5.632c-0.572-1.591-1.246-2.853-2.02-3.785c-0.776-0.931-1.598-1.397-2.467-1.397h-9.135
		c-0.595,0-1.094-0.665-1.497-1.995s-0.605-2.964-0.605-4.898c0-1.935,0.202-3.567,0.605-4.897s0.902-1.997,1.497-1.997h14.163
		c0.233,0,0.433-0.238,0.605-0.714c0.169-0.476,0.255-1.043,0.255-1.7v-5.897c0-0.656-0.086-1.222-0.255-1.698
		c-0.171-0.476-0.371-0.715-0.605-0.715h-14.163c-0.871,0-1.693,0.466-2.467,1.397c-0.776,0.932-1.448,2.194-2.022,3.785
		c-0.573,1.592-1.024,3.469-1.353,5.632c-0.329,2.163-0.494,4.446-0.494,6.849c0,2.464,0.165,4.762,0.494,6.894
		c0.328,2.133,0.779,3.98,1.353,5.542c0.573,1.563,1.246,2.809,2.022,3.74c0.774,0.932,1.596,1.397,2.467,1.397h9.135
		c0.573,0,1.065,0.676,1.479,2.028c0.414,1.352,0.62,2.989,0.62,4.911c0,1.923-0.206,3.545-0.62,4.866
		c-0.414,1.322-0.906,1.982-1.479,1.982h-9.708c-0.233,0-0.43,0.226-0.589,0.676c-0.159,0.45-0.239,1.007-0.239,1.667v5.948
		c0,0.662,0.08,1.232,0.239,1.712c0.159,0.481,0.356,0.721,0.589,0.721h9.708c0.869,0,1.691-0.465,2.467-1.397
		c0.774-0.931,1.448-2.192,2.02-3.785c0.573-1.591,1.024-3.454,1.353-5.587c0.329-2.132,0.494-4.4,0.494-6.804
		C978.921,57.405,978.756,55.122,978.428,52.959z M940.92,36.378V20.066c0-0.661-0.086-1.231-0.255-1.712
		c-0.171-0.48-0.373-0.721-0.607-0.721h-2.545c-0.235,0-0.435,0.241-0.605,0.721c-0.171,0.481-0.255,1.052-0.255,1.712v16.311
		c0,0.662,0.084,1.216,0.255,1.667c0.169,0.451,0.369,0.676,0.605,0.676h2.545c0.233,0,0.435-0.225,0.607-0.676
		C940.834,37.594,940.92,37.039,940.92,36.378z M921.121,74.947V69c0-0.66-0.084-1.217-0.255-1.667
		c-0.169-0.451-0.371-0.676-0.605-0.676h-10.375c-0.233,0-0.43-0.239-0.589-0.721c-0.159-0.48-0.239-1.05-0.239-1.712V20.066
		c0-0.661-0.086-1.231-0.255-1.712c-0.169-0.48-0.371-0.721-0.605-0.721h-7.321c-0.233,0-0.435,0.24-0.605,0.715
		c-0.169,0.476-0.255,1.042-0.255,1.698v5.897c0,0.656,0.086,1.224,0.255,1.7s0.371,0.714,0.605,0.714h3.12
		c0.233,0,0.43,0.227,0.589,0.677c0.157,0.452,0.237,1.01,0.237,1.671v33.512c0,0.663-0.08,1.235-0.237,1.716
		c-0.159,0.481-0.356,0.722-0.589,0.722h-3.12c-0.233,0-0.435,0.226-0.605,0.676c-0.169,0.45-0.255,1.007-0.255,1.667v5.948
		c0,0.662,0.086,1.232,0.255,1.712c0.169,0.481,0.371,0.721,0.605,0.721h19.383c0.233,0,0.435-0.239,0.605-0.721
		C921.037,76.179,921.121,75.609,921.121,74.947z M891.521,74.947V69c0-0.66-0.084-1.217-0.255-1.667
		c-0.169-0.451-0.371-0.676-0.605-0.676h-10.375c-0.233,0-0.43-0.239-0.589-0.721c-0.159-0.48-0.239-1.05-0.239-1.712V20.066
		c0-0.661-0.086-1.231-0.255-1.712c-0.169-0.48-0.371-0.721-0.605-0.721h-7.321c-0.233,0-0.435,0.24-0.605,0.715
		c-0.169,0.476-0.255,1.042-0.255,1.698v5.897c0,0.656,0.086,1.224,0.255,1.7s0.371,0.714,0.605,0.714h3.12
		c0.233,0,0.43,0.227,0.589,0.677c0.157,0.452,0.237,1.01,0.237,1.671v33.512c0,0.663-0.08,1.235-0.237,1.716
		c-0.159,0.481-0.356,0.722-0.589,0.722h-3.12c-0.233,0-0.435,0.226-0.605,0.676c-0.169,0.45-0.255,1.007-0.255,1.667v5.948
		c0,0.662,0.086,1.232,0.255,1.712c0.169,0.481,0.371,0.721,0.605,0.721h19.383c0.233,0,0.435-0.239,0.605-0.721
		C891.437,76.179,891.521,75.609,891.521,74.947z M855.651,60.528c0,1.924-0.202,3.425-0.607,4.506
		c-0.404,1.082-0.904,1.622-1.499,1.622h-8.425c-0.595,0-1.096-0.676-1.499-2.027c-0.404-1.352-0.607-2.988-0.607-4.912
		c0-1.922,0.202-3.56,0.607-4.911c0.402-1.352,0.904-2.028,1.499-2.028h9.829c0.466,0,0.702,0.662,0.702,1.983V60.528z
		 M859.821,35.476c0-2.402-0.163-4.686-0.49-6.849c-0.327-2.163-0.774-4.056-1.343-5.678c-0.568-1.622-1.232-2.913-1.992-3.875
		c-0.76-0.96-1.575-1.442-2.445-1.442h-5.251c-0.233,0-0.467,0.331-0.7,0.992c-0.235,0.662-0.352,1.322-0.352,1.982v4.866
		c0,0.782,0.117,1.458,0.352,2.028c0.233,0.571,0.467,0.856,0.7,0.856h5.251c0.595,0,1.092,0.676,1.497,2.028
		c0.402,1.352,0.605,2.989,0.605,4.911v4.596c0,1.322-0.233,1.982-0.7,1.982h-9.803c-0.871,0-1.687,0.481-2.451,1.442
		c-0.764,0.961-1.433,2.253-2.004,3.875c-0.573,1.622-1.024,3.515-1.353,5.677c-0.331,2.163-0.494,4.447-0.494,6.849
		c0,2.464,0.163,4.762,0.492,6.894c0.328,2.133,0.779,3.996,1.351,5.587c0.572,1.592,1.24,2.854,2.002,3.785
		c0.762,0.932,1.578,1.397,2.447,1.397h8.39c0.869,0,1.683-0.419,2.447-1.262c0.762-0.84,1.429-2.012,2-3.515
		c0.573-1.501,1.023-3.273,1.351-5.317c0.329-2.042,0.494-4.294,0.494-6.759V35.476z M805.585,77.29L805.585,77.29z M793.871,85.221
		V68.909c0-0.66-0.086-1.216-0.255-1.667s-0.371-0.676-0.605-0.676h-4.743c-0.233,0-0.433,0.225-0.605,0.676
		c-0.169,0.451-0.255,1.007-0.255,1.667v6.038c0,0.662,0.086,1.216,0.255,1.667c0.171,0.451,0.371,0.676,0.605,0.676h1.369v7.931
		c0,0.66,0.086,1.23,0.255,1.712c0.171,0.48,0.371,0.721,0.607,0.721h2.513c0.233,0,0.435-0.241,0.605-0.721
		C793.786,86.451,793.871,85.881,793.871,85.221z M771.658,74.947V35.296c0-2.463-0.165-4.761-0.494-6.894
		c-0.328-2.132-0.778-3.995-1.351-5.587c-0.572-1.591-1.238-2.853-2.002-3.785c-0.762-0.931-1.578-1.397-2.445-1.397h-8.454
		c-0.869,0-1.683,0.466-2.447,1.397c-0.762,0.932-1.431,2.178-2.002,3.74c-0.572,1.563-1.023,3.411-1.351,5.542
		c-0.329,2.133-0.492,4.401-0.492,6.804v39.832c0,0.662,0.078,1.232,0.237,1.712c0.157,0.481,0.352,0.721,0.583,0.721h2.529
		c0.229,0,0.426-0.241,0.583-0.722c0.157-0.482,0.237-1.053,0.237-1.715V35.218c0-1.926,0.208-3.551,0.622-4.875
		s0.91-1.987,1.483-1.987h8.487c0.575,0,1.069,0.663,1.485,1.987c0.414,1.324,0.622,2.948,0.622,4.875v39.725
		c0,0.662,0.078,1.233,0.237,1.715c0.157,0.481,0.352,0.722,0.583,0.722h2.527c0.231,0,0.426-0.239,0.585-0.721
		C771.578,76.179,771.658,75.609,771.658,74.947z M737.744,40.149c-0.414,1.331-0.908,1.995-1.479,1.995h-9.708
		c-0.233,0-0.43-0.227-0.589-0.68c-0.159-0.454-0.239-1.013-0.239-1.679v-4.535c0-1.935,0.202-3.567,0.605-4.897
		c0.404-1.331,0.902-1.997,1.497-1.997h8.435c0.572,0,1.065,0.666,1.479,1.997s0.62,2.962,0.62,4.897
		C738.364,37.186,738.158,38.819,737.744,40.149z M742.104,28.447c-0.329-2.163-0.78-4.04-1.353-5.632
		c-0.572-1.591-1.246-2.853-2.02-3.785c-0.776-0.931-1.598-1.397-2.467-1.397h-8.435c-0.871,0-1.693,0.466-2.467,1.397
		c-0.776,0.932-1.448,2.194-2.022,3.785c-0.572,1.592-1.024,3.469-1.353,5.632c-0.328,2.163-0.492,4.446-0.492,6.849v24.512
		c0,2.464,0.163,4.762,0.492,6.894c0.329,2.133,0.781,3.98,1.353,5.542c0.573,1.563,1.246,2.809,2.022,3.74
		c0.774,0.932,1.596,1.397,2.467,1.397h9.708c0.233,0,0.43-0.239,0.589-0.721c0.157-0.48,0.237-1.051,0.237-1.712V69
		c0-0.66-0.08-1.217-0.237-1.667c-0.159-0.451-0.356-0.676-0.589-0.676h-9.708c-0.595,0-1.092-0.66-1.497-1.982
		c-0.402-1.321-0.605-2.943-0.605-4.866v-4.506c0-0.66,0.08-1.23,0.239-1.712c0.159-0.48,0.356-0.721,0.589-0.721h9.708
		c0.869,0,1.691-0.465,2.467-1.397c0.774-0.931,1.448-2.177,2.02-3.74c0.573-1.562,1.024-3.409,1.353-5.542
		c0.328-2.132,0.494-4.43,0.494-6.894C742.598,32.894,742.433,30.61,742.104,28.447z M712.998,35.656v-15.59
		c0-0.661-0.086-1.231-0.255-1.712c-0.169-0.48-0.371-0.721-0.605-0.721h-2.515c-0.233,0-0.434,0.241-0.605,0.721
		c-0.169,0.481-0.255,1.052-0.255,1.712v14.779c0,1.022-0.068,1.998-0.206,2.929c-0.138,0.932-0.325,1.728-0.558,2.388
		l-8.466,25.323l-0.031,0.09c-0.404,0.961-0.828,1.442-1.273,1.442c-0.595,0-1.093-0.661-1.497-1.983
		c-0.402-1.321-0.605-2.943-0.605-4.866V20.066c0-0.661-0.086-1.231-0.255-1.712c-0.169-0.48-0.371-0.721-0.605-0.721h-2.513
		c-0.235,0-0.435,0.241-0.605,0.721c-0.171,0.481-0.255,1.052-0.255,1.712v40.913c0,2.464,0.163,4.762,0.492,6.894
		c0.329,2.133,0.781,3.996,1.353,5.587c0.573,1.592,1.246,2.854,2.022,3.785c0.774,0.931,1.596,1.397,2.467,1.397
		c0.848,0,1.648-0.406,2.403-1.217c0.752-0.811,1.396-2.027,1.926-3.649l8.466-25.773c0.552-1.681,1.019-3.544,1.4-5.587
		C712.807,40.374,712.998,38.121,712.998,35.656z M678.019,60.528c0,1.924-0.202,3.425-0.607,4.506
		c-0.404,1.082-0.904,1.622-1.499,1.622h-8.425c-0.595,0-1.096-0.676-1.499-2.027c-0.404-1.352-0.607-2.988-0.607-4.912
		c0-1.922,0.202-3.56,0.607-4.911c0.402-1.352,0.904-2.028,1.499-2.028h9.828c0.467,0,0.702,0.662,0.702,1.983V60.528z
		 M682.189,35.476c0-2.402-0.163-4.686-0.49-6.849c-0.327-2.163-0.774-4.056-1.343-5.678c-0.568-1.622-1.232-2.913-1.992-3.875
		c-0.76-0.96-1.575-1.442-2.445-1.442h-5.251c-0.233,0-0.467,0.331-0.7,0.992c-0.235,0.662-0.352,1.322-0.352,1.982v4.866
		c0,0.782,0.117,1.458,0.352,2.028c0.233,0.571,0.467,0.856,0.7,0.856h5.251c0.595,0,1.093,0.676,1.497,2.028
		c0.402,1.352,0.605,2.989,0.605,4.911v4.596c0,1.322-0.233,1.982-0.7,1.982h-9.803c-0.871,0-1.687,0.481-2.451,1.442
		c-0.764,0.961-1.433,2.253-2.004,3.875c-0.573,1.622-1.024,3.515-1.353,5.677c-0.331,2.163-0.494,4.447-0.494,6.849
		c0,2.464,0.163,4.762,0.492,6.894c0.328,2.133,0.779,3.996,1.351,5.587c0.572,1.592,1.24,2.854,2.002,3.785
		c0.762,0.932,1.578,1.397,2.447,1.397h8.39c0.869,0,1.683-0.419,2.447-1.262c0.762-0.84,1.429-2.012,2-3.515
		c0.573-1.501,1.023-3.273,1.351-5.317c0.329-2.042,0.494-4.294,0.494-6.759V35.476z M648.944,40.149
		c-0.414,1.331-0.908,1.995-1.479,1.995h-9.708c-0.233,0-0.43-0.227-0.589-0.68c-0.159-0.454-0.239-1.013-0.239-1.679v-4.535
		c0-1.935,0.202-3.567,0.605-4.897c0.404-1.331,0.902-1.997,1.497-1.997h8.435c0.571,0,1.065,0.666,1.479,1.997
		s0.62,2.962,0.62,4.897C649.564,37.186,649.358,38.819,648.944,40.149z M653.304,28.447c-0.328-2.163-0.779-4.04-1.353-5.632
		c-0.572-1.591-1.246-2.853-2.02-3.785c-0.776-0.931-1.598-1.397-2.467-1.397h-8.435c-0.871,0-1.693,0.466-2.467,1.397
		c-0.776,0.932-1.448,2.194-2.022,3.785c-0.572,1.592-1.024,3.469-1.353,5.632c-0.328,2.163-0.492,4.446-0.492,6.849v24.512
		c0,2.464,0.163,4.762,0.492,6.894c0.329,2.133,0.781,3.98,1.353,5.542c0.573,1.563,1.246,2.809,2.022,3.74
		c0.774,0.932,1.596,1.397,2.467,1.397h9.708c0.233,0,0.43-0.239,0.589-0.721c0.157-0.48,0.237-1.051,0.237-1.712V69
		c0-0.66-0.08-1.217-0.237-1.667c-0.159-0.451-0.356-0.676-0.589-0.676h-9.708c-0.595,0-1.093-0.66-1.497-1.982
		c-0.402-1.321-0.605-2.943-0.605-4.866v-4.506c0-0.66,0.08-1.23,0.239-1.712c0.159-0.48,0.356-0.721,0.589-0.721h9.708
		c0.869,0,1.691-0.465,2.467-1.397c0.774-0.931,1.448-2.177,2.02-3.74c0.573-1.562,1.024-3.409,1.353-5.542
		c0.329-2.132,0.494-4.43,0.494-6.894C653.798,32.894,653.632,30.61,653.304,28.447z M623.688,74.947V47.822
		c0-2.402-0.165-4.686-0.494-6.849c-0.328-2.163-0.78-4.024-1.353-5.587c-0.572-1.562-1.246-2.808-2.02-3.74
		c-0.776-0.931-1.598-1.396-2.467-1.396h-9.708c-0.233,0-0.43-0.24-0.589-0.721c-0.159-0.48-0.239-1.05-0.239-1.712v-7.75
		c0-0.661-0.084-1.231-0.255-1.712c-0.169-0.48-0.371-0.721-0.605-0.721h-2.513c-0.235,0-0.435,0.241-0.605,0.721
		c-0.171,0.481-0.255,1.052-0.255,1.712v54.881c0,0.662,0.084,1.232,0.255,1.712c0.169,0.481,0.369,0.721,0.605,0.721h2.513
		c0.233,0,0.435-0.239,0.605-0.721c0.171-0.48,0.255-1.051,0.255-1.712V43.316c0-0.661,0.08-1.217,0.239-1.667
		c0.159-0.45,0.356-0.676,0.589-0.676h9.708c0.573,0,1.065,0.662,1.479,1.983c0.414,1.322,0.62,2.944,0.62,4.866v27.125
		c0,0.662,0.086,1.232,0.255,1.712c0.171,0.481,0.371,0.721,0.607,0.721h2.513c0.233,0,0.435-0.239,0.605-0.721
		C623.602,76.179,623.688,75.609,623.688,74.947z M568.753,77.29L568.753,77.29z M563.994,52.959
		c-0.329-2.163-0.78-4.04-1.353-5.632c-0.572-1.591-1.246-2.853-2.02-3.785c-0.776-0.931-1.598-1.397-2.467-1.397h-9.135
		c-0.595,0-1.094-0.665-1.497-1.995c-0.402-1.331-0.605-2.964-0.605-4.898c0-1.935,0.202-3.567,0.605-4.897
		c0.402-1.331,0.902-1.997,1.497-1.997h14.163c0.233,0,0.433-0.238,0.605-0.714c0.169-0.476,0.255-1.043,0.255-1.7v-5.897
		c0-0.656-0.086-1.222-0.255-1.698c-0.171-0.476-0.371-0.715-0.605-0.715H549.02c-0.871,0-1.693,0.466-2.467,1.397
		c-0.776,0.932-1.448,2.194-2.022,3.785c-0.573,1.592-1.024,3.469-1.353,5.632c-0.328,2.163-0.494,4.446-0.494,6.849
		c0,2.464,0.165,4.762,0.494,6.894c0.329,2.133,0.78,3.98,1.353,5.542c0.573,1.563,1.246,2.809,2.022,3.74
		c0.774,0.932,1.596,1.397,2.467,1.397h9.135c0.573,0,1.065,0.676,1.479,2.028c0.414,1.352,0.62,2.989,0.62,4.911
		c0,1.923-0.206,3.545-0.62,4.866c-0.414,1.322-0.906,1.982-1.479,1.982h-9.708c-0.233,0-0.43,0.226-0.589,0.676
		c-0.159,0.45-0.239,1.007-0.239,1.667v5.948c0,0.662,0.08,1.232,0.239,1.712c0.159,0.481,0.356,0.721,0.589,0.721h9.708
		c0.869,0,1.691-0.465,2.467-1.397c0.774-0.931,1.448-2.192,2.02-3.785c0.573-1.591,1.024-3.454,1.353-5.587
		c0.328-2.132,0.494-4.4,0.494-6.804C564.488,57.405,564.322,55.122,563.994,52.959z M534.887,74.947V69
		c0-0.66-0.086-1.217-0.255-1.667c-0.169-0.451-0.371-0.676-0.605-0.676h-6.747c-0.233,0-0.43-0.241-0.589-0.722
		c-0.159-0.481-0.239-1.053-0.239-1.716V30.706c0-0.662,0.08-1.219,0.239-1.671c0.159-0.451,0.356-0.677,0.589-0.677h2.547
		c0.233,0,0.43-0.238,0.589-0.714c0.157-0.476,0.237-1.043,0.237-1.7v-5.897c0-0.656-0.08-1.222-0.237-1.698
		c-0.159-0.476-0.356-0.715-0.589-0.715h-10.981c-0.233,0-0.43,0.24-0.589,0.715c-0.159,0.476-0.239,1.042-0.239,1.698v5.897
		c0,0.656,0.08,1.224,0.239,1.7c0.159,0.476,0.356,0.714,0.589,0.714h2.547c0.233,0,0.43,0.227,0.589,0.677
		c0.159,0.452,0.239,1.01,0.239,1.671v33.512c0,0.663-0.08,1.235-0.239,1.716c-0.159,0.481-0.356,0.722-0.589,0.722h-6.747
		c-0.235,0-0.435,0.226-0.605,0.676c-0.171,0.45-0.255,1.007-0.255,1.667v5.948c0,0.662,0.084,1.232,0.255,1.712
		c0.169,0.481,0.369,0.721,0.605,0.721h19.383c0.233,0,0.435-0.239,0.605-0.721C534.802,76.179,534.887,75.609,534.887,74.947z
		 M505.287,74.947V20.066c0-0.661-0.086-1.231-0.255-1.712c-0.169-0.48-0.371-0.721-0.605-0.721h-2.513
		c-0.235,0-0.435,0.241-0.607,0.721c-0.169,0.481-0.255,1.052-0.255,1.712v31.901c0,0.662-0.08,1.232-0.237,1.712
		c-0.159,0.481-0.356,0.721-0.589,0.721h-10.981c-0.233,0-0.43-0.239-0.589-0.721c-0.159-0.48-0.239-1.05-0.239-1.712V20.066
		c0-0.661-0.084-1.231-0.255-1.712c-0.169-0.48-0.371-0.721-0.605-0.721h-2.514c-0.235,0-0.435,0.241-0.605,0.721
		c-0.171,0.481-0.255,1.052-0.255,1.712v54.881c0,0.662,0.084,1.232,0.255,1.712c0.169,0.481,0.369,0.721,0.605,0.721h2.514
		c0.233,0,0.435-0.239,0.605-0.721c0.171-0.48,0.255-1.051,0.255-1.712v-7.39c0-0.66,0.08-1.23,0.239-1.712
		c0.159-0.48,0.356-0.721,0.589-0.721h10.981c0.233,0,0.43,0.241,0.589,0.721c0.157,0.482,0.237,1.052,0.237,1.712v7.39
		c0,0.662,0.086,1.232,0.255,1.712c0.171,0.481,0.371,0.721,0.607,0.721h2.513c0.233,0,0.435-0.239,0.605-0.721
		C505.202,76.179,505.287,75.609,505.287,74.947z M450.352,77.29L450.352,77.29z M446.056,74.947V35.296
		c0-2.463-0.165-4.761-0.494-6.894c-0.329-2.132-0.778-3.995-1.351-5.587c-0.572-1.591-1.238-2.853-2.002-3.785
		c-0.762-0.931-1.578-1.397-2.445-1.397h-8.454c-0.869,0-1.683,0.466-2.447,1.397c-0.762,0.932-1.431,2.178-2.002,3.74
		c-0.572,1.563-1.023,3.411-1.351,5.542c-0.329,2.133-0.492,4.401-0.492,6.804v39.832c0,0.662,0.078,1.232,0.237,1.712
		c0.157,0.481,0.352,0.721,0.583,0.721h2.529c0.229,0,0.426-0.241,0.583-0.722c0.157-0.482,0.237-1.053,0.237-1.715V35.218
		c0-1.926,0.208-3.551,0.622-4.875c0.414-1.324,0.91-1.987,1.483-1.987h8.487c0.575,0,1.069,0.663,1.485,1.987
		c0.414,1.324,0.622,2.948,0.622,4.875v39.725c0,0.662,0.078,1.233,0.237,1.715c0.157,0.481,0.352,0.722,0.583,0.722h2.527
		c0.231,0,0.426-0.239,0.585-0.721C445.976,76.179,446.056,75.609,446.056,74.947z M416.487,74.947V69
		c0-0.66-0.086-1.217-0.255-1.667c-0.169-0.451-0.371-0.676-0.605-0.676h-6.747c-0.233,0-0.43-0.241-0.589-0.722
		c-0.159-0.481-0.239-1.053-0.239-1.716V30.706c0-0.662,0.08-1.219,0.239-1.671c0.159-0.451,0.356-0.677,0.589-0.677h2.547
		c0.233,0,0.43-0.238,0.589-0.714c0.157-0.476,0.237-1.043,0.237-1.7v-5.897c0-0.656-0.08-1.222-0.237-1.698
		c-0.159-0.476-0.356-0.715-0.589-0.715h-10.981c-0.233,0-0.43,0.24-0.589,0.715c-0.159,0.476-0.239,1.042-0.239,1.698v5.897
		c0,0.656,0.08,1.224,0.239,1.7s0.356,0.714,0.589,0.714h2.547c0.233,0,0.43,0.227,0.589,0.677c0.159,0.452,0.239,1.01,0.239,1.671
		v33.512c0,0.663-0.08,1.235-0.239,1.716c-0.159,0.481-0.356,0.722-0.589,0.722h-6.747c-0.235,0-0.435,0.226-0.605,0.676
		c-0.171,0.45-0.255,1.007-0.255,1.667v5.948c0,0.662,0.084,1.232,0.255,1.712c0.169,0.481,0.369,0.721,0.605,0.721h19.383
		c0.233,0,0.435-0.239,0.605-0.721C416.401,76.179,416.487,75.609,416.487,74.947z M361.551,77.29L361.551,77.29z M356.793,52.959
		c-0.329-2.163-0.78-4.04-1.353-5.632c-0.572-1.591-1.246-2.853-2.02-3.785c-0.776-0.931-1.598-1.397-2.467-1.397h-9.135
		c-0.595,0-1.094-0.665-1.497-1.995c-0.402-1.331-0.605-2.964-0.605-4.898c0-1.935,0.202-3.567,0.605-4.897
		c0.402-1.331,0.902-1.997,1.497-1.997h14.163c0.233,0,0.434-0.238,0.605-0.714c0.169-0.476,0.255-1.043,0.255-1.7v-5.897
		c0-0.656-0.086-1.222-0.255-1.698c-0.171-0.476-0.371-0.715-0.605-0.715h-14.163c-0.871,0-1.693,0.466-2.467,1.397
		c-0.776,0.932-1.448,2.194-2.022,3.785c-0.573,1.592-1.024,3.469-1.353,5.632c-0.329,2.163-0.494,4.446-0.494,6.849
		c0,2.464,0.165,4.762,0.494,6.894c0.329,2.133,0.78,3.98,1.353,5.542c0.573,1.563,1.246,2.809,2.022,3.74
		c0.774,0.932,1.596,1.397,2.467,1.397h9.135c0.573,0,1.065,0.676,1.479,2.028c0.414,1.352,0.62,2.989,0.62,4.911
		c0,1.923-0.206,3.545-0.62,4.866c-0.414,1.322-0.906,1.982-1.479,1.982h-9.708c-0.233,0-0.43,0.226-0.589,0.676
		c-0.159,0.45-0.239,1.007-0.239,1.667v5.948c0,0.662,0.08,1.232,0.239,1.712c0.159,0.481,0.356,0.721,0.589,0.721h9.708
		c0.869,0,1.691-0.465,2.467-1.397c0.774-0.931,1.448-2.192,2.02-3.785c0.573-1.591,1.024-3.454,1.353-5.587
		c0.329-2.132,0.494-4.4,0.494-6.804C357.286,57.405,357.121,55.122,356.793,52.959z M319.284,36.378V20.066
		c0-0.661-0.086-1.231-0.255-1.712c-0.171-0.48-0.373-0.721-0.607-0.721h-2.545c-0.235,0-0.435,0.241-0.605,0.721
		c-0.171,0.481-0.255,1.052-0.255,1.712v16.311c0,0.662,0.084,1.216,0.255,1.667c0.169,0.451,0.369,0.676,0.605,0.676h2.545
		c0.233,0,0.435-0.225,0.607-0.676C319.199,37.594,319.284,37.039,319.284,36.378z M293.471,60.688c0,1.929-0.202,3.406-0.607,4.431
		c-0.404,1.025-0.904,1.538-1.499,1.538h-8.425c-0.595,0-1.096-0.512-1.499-1.538c-0.404-1.025-0.607-2.502-0.607-4.431V47.483
		c0-1.929,0.202-3.406,0.607-4.431c0.402-1.025,0.904-1.538,1.499-1.538h9.829c0.467,0,0.702,0.663,0.702,1.989V60.688z
		 M297.641,19.886c0-0.66-0.089-1.201-0.268-1.622c-0.179-0.419-0.385-0.631-0.616-0.631h-2.432c-0.233,0-0.434,0.211-0.601,0.631
		c-0.169,0.421-0.253,0.962-0.253,1.622V30.79h-10.503c-0.871,0-1.687,0.421-2.451,1.262c-0.764,0.842-1.433,1.998-2.004,3.469
		c-0.573,1.473-1.024,3.23-1.353,5.272c-0.33,2.043-0.494,4.267-0.494,6.668v13.067c0,2.464,0.163,4.717,0.492,6.759
		c0.329,2.043,0.78,3.816,1.351,5.317c0.572,1.502,1.24,2.674,2.002,3.515c0.762,0.842,1.578,1.262,2.447,1.262h8.39
		c0.867,0,1.683-0.419,2.445-1.262c0.764-0.84,1.431-2.012,2.002-3.515c0.573-1.501,1.023-3.273,1.351-5.317
		c0.329-2.042,0.494-4.294,0.494-6.759V19.886z M264.254,59.792c0,1.926-0.206,3.553-0.62,4.878
		c-0.414,1.325-0.906,1.986-1.479,1.986h-8.435c-0.595,0-1.092-0.662-1.497-1.986c-0.402-1.325-0.605-2.952-0.605-4.878V35.221
		c0-1.926,0.202-3.551,0.605-4.876c0.404-1.325,0.902-1.988,1.497-1.988h8.435c0.573,0,1.065,0.663,1.479,1.988
		c0.414,1.325,0.62,2.95,0.62,4.876V59.792z M268.488,35.296v-0.18c0-2.402-0.169-4.67-0.509-6.804
		c-0.34-2.132-0.795-3.979-1.369-5.542c-0.573-1.562-1.242-2.808-2.004-3.74c-0.764-0.931-1.582-1.397-2.451-1.397h-8.435
		c-0.871,0-1.687,0.466-2.451,1.397c-0.764,0.932-1.433,2.178-2.004,3.74c-0.573,1.563-1.03,3.411-1.369,5.542
		c-0.34,2.133-0.509,4.401-0.509,6.804v24.692c0,2.464,0.163,4.762,0.492,6.894c0.33,2.133,0.781,3.98,1.353,5.542
		c0.573,1.563,1.246,2.809,2.022,3.74c0.774,0.932,1.596,1.397,2.467,1.397h8.435c0.869,0,1.691-0.465,2.467-1.397
		c0.774-0.931,1.448-2.177,2.02-3.74c0.573-1.562,1.024-3.409,1.353-5.542c0.329-2.132,0.494-4.43,0.494-6.894V35.296z
		 M239.27,74.947V44.578c0-0.661-0.086-1.231-0.255-1.712c-0.171-0.48-0.373-0.721-0.607-0.721h-4.965
		c-0.233,0-0.435,0.241-0.605,0.721c-0.169,0.481-0.255,1.052-0.255,1.712v5.947c0,0.662,0.086,1.217,0.255,1.667
		c0.169,0.451,0.371,0.676,0.605,0.676h0.764c0.233,0,0.43,0.241,0.589,0.721c0.159,0.482,0.239,1.052,0.239,1.712v8.921
		c0,0.662-0.08,1.232-0.239,1.712c-0.159,0.481-0.356,0.721-0.589,0.721h-6.938c-0.871,0-1.693-0.496-2.467-1.489
		c-0.776-0.994-1.448-2.364-2.022-4.11c-0.572-1.746-1.024-3.779-1.353-6.097c-0.329-2.317-0.492-4.803-0.492-7.453
		s0.163-5.134,0.492-7.452s0.781-4.351,1.353-6.097c0.573-1.746,1.246-3.116,2.022-4.11c0.774-0.994,1.596-1.491,2.467-1.491h6.938
		c0.233,0,0.43-0.238,0.589-0.714c0.159-0.476,0.239-1.043,0.239-1.7v-5.897c0-0.656-0.08-1.222-0.239-1.698
		c-0.159-0.476-0.356-0.715-0.589-0.715h-6.938c-1.464,0-2.832,0.782-4.106,2.343c-1.273,1.563-2.387,3.695-3.342,6.398
		c-0.956,2.703-1.709,5.873-2.261,9.507c-0.552,3.635-0.828,7.524-0.828,11.67s0.276,8.021,0.828,11.625s1.304,6.759,2.261,9.462
		c0.954,2.704,2.068,4.836,3.342,6.398c1.273,1.563,2.642,2.343,4.106,2.343h11.139c0.233,0,0.435-0.239,0.607-0.721
		C239.185,76.179,239.27,75.609,239.27,74.947z M183.952,77.29L183.952,77.29z M154.352,77.29L154.352,77.29z M142.766,68.909
		c0-0.66-0.086-1.216-0.255-1.667c-0.169-0.451-0.371-0.676-0.605-0.676h-4.741c-0.235,0-0.435,0.225-0.607,0.676
		c-0.169,0.451-0.255,1.007-0.255,1.667v6.038c0,0.662,0.086,1.216,0.255,1.667c0.171,0.451,0.371,0.676,0.607,0.676h4.741
		c0.233,0,0.435-0.225,0.605-0.676c0.169-0.451,0.255-1.005,0.255-1.667V68.909z M142.766,44.578c0-0.661-0.086-1.231-0.255-1.712
		c-0.169-0.48-0.371-0.721-0.605-0.721h-4.741c-0.235,0-0.435,0.241-0.607,0.721c-0.169,0.481-0.255,1.052-0.255,1.712v5.947
		c0,0.662,0.086,1.217,0.255,1.667c0.171,0.451,0.371,0.676,0.607,0.676h4.741c0.233,0,0.435-0.225,0.605-0.676
		c0.169-0.451,0.255-1.005,0.255-1.667V44.578z M120.996,35.656v-15.59c0-0.661-0.086-1.231-0.255-1.712
		c-0.169-0.48-0.371-0.721-0.605-0.721h-2.515c-0.233,0-0.433,0.241-0.605,0.721c-0.169,0.481-0.255,1.052-0.255,1.712v14.779
		c0,1.022-0.068,1.998-0.206,2.929c-0.138,0.932-0.325,1.728-0.558,2.388l-8.466,25.323l-0.031,0.09
		c-0.404,0.961-0.828,1.442-1.273,1.442c-0.595,0-1.092-0.661-1.497-1.983c-0.402-1.321-0.605-2.943-0.605-4.866V20.066
		c0-0.661-0.086-1.231-0.255-1.712c-0.169-0.48-0.371-0.721-0.605-0.721h-2.513c-0.235,0-0.435,0.241-0.605,0.721
		c-0.171,0.481-0.255,1.052-0.255,1.712v40.913c0,2.464,0.163,4.762,0.492,6.894c0.329,2.133,0.781,3.996,1.353,5.587
		c0.573,1.592,1.246,2.854,2.022,3.785c0.774,0.931,1.596,1.397,2.467,1.397c0.848,0,1.648-0.406,2.403-1.217
		c0.752-0.811,1.396-2.027,1.926-3.649l8.466-25.773c0.552-1.681,1.019-3.544,1.4-5.587
		C120.806,40.374,120.996,38.121,120.996,35.656z M91.779,45.028v-9.823c0-2.402-0.165-4.68-0.494-6.834
		c-0.33-2.154-0.78-4.02-1.353-5.6c-0.573-1.578-1.248-2.829-2.022-3.752c-0.774-0.924-1.596-1.386-2.467-1.386h-8.435
		c-0.869,0-1.691,0.466-2.467,1.397c-0.774,0.932-1.448,2.194-2.02,3.785c-0.573,1.592-1.024,3.469-1.353,5.632
		c-0.329,2.163-0.494,4.446-0.494,6.849v39.651c0,0.662,0.086,1.232,0.255,1.712c0.169,0.481,0.371,0.721,0.605,0.721h2.515
		c0.233,0,0.433-0.241,0.605-0.722c0.169-0.482,0.255-1.053,0.255-1.715V35.218c0-1.926,0.2-3.551,0.605-4.875
		c0.402-1.324,0.902-1.987,1.495-1.987h8.435c0.573,0,1.067,0.662,1.481,1.982c0.412,1.322,0.62,2.944,0.62,4.866v9.823
		c0,0.662,0.084,1.232,0.255,1.712c0.169,0.481,0.371,0.721,0.605,0.721h2.514c0.233,0,0.435-0.239,0.607-0.721
		C91.693,46.261,91.779,45.69,91.779,45.028z M56.942,40.149c-0.414,1.331-0.908,1.995-1.479,1.995h-9.708
		c-0.233,0-0.43-0.227-0.589-0.68c-0.159-0.454-0.239-1.013-0.239-1.679v-4.535c0-1.935,0.202-3.567,0.605-4.897
		c0.404-1.331,0.902-1.997,1.497-1.997h8.435c0.572,0,1.065,0.666,1.479,1.997c0.414,1.331,0.62,2.962,0.62,4.897
		C57.562,37.186,57.356,38.819,56.942,40.149z M61.302,28.447c-0.329-2.163-0.78-4.04-1.353-5.632
		c-0.572-1.591-1.246-2.853-2.02-3.785c-0.776-0.931-1.598-1.397-2.467-1.397h-8.435c-0.871,0-1.693,0.466-2.467,1.397
		c-0.776,0.932-1.448,2.194-2.022,3.785c-0.572,1.592-1.024,3.469-1.353,5.632c-0.329,2.163-0.492,4.446-0.492,6.849v24.512
		c0,2.464,0.163,4.762,0.492,6.894c0.329,2.133,0.781,3.98,1.353,5.542c0.573,1.563,1.246,2.809,2.022,3.74
		c0.774,0.932,1.596,1.397,2.467,1.397h9.708c0.233,0,0.43-0.239,0.589-0.721c0.157-0.48,0.237-1.051,0.237-1.712V69
		c0-0.66-0.08-1.217-0.237-1.667c-0.159-0.451-0.356-0.676-0.589-0.676h-9.708c-0.595,0-1.092-0.66-1.497-1.982
		c-0.402-1.321-0.605-2.943-0.605-4.866v-4.506c0-0.66,0.08-1.23,0.239-1.712c0.159-0.48,0.356-0.721,0.589-0.721h9.708
		c0.869,0,1.691-0.465,2.467-1.397c0.774-0.931,1.448-2.177,2.02-3.74c0.573-1.562,1.024-3.409,1.353-5.542
		c0.329-2.132,0.494-4.43,0.494-6.894C61.796,32.894,61.63,30.61,61.302,28.447z M31.655,74.947V20.066
		c0-0.661-0.08-1.231-0.237-1.712c-0.159-0.48-0.354-0.721-0.585-0.721h-2.527c-0.231,0-0.426,0.241-0.583,0.721
		c-0.159,0.481-0.237,1.052-0.237,1.712v38.66L15.233,18.534c-0.214-0.6-0.435-0.901-0.671-0.901h-3.126
		c-0.231,0-0.426,0.241-0.583,0.721c-0.159,0.481-0.237,1.052-0.237,1.712v54.881c0,0.662,0.078,1.232,0.237,1.712
		c0.157,0.481,0.352,0.721,0.583,0.721h2.529c0.229,0,0.426-0.239,0.583-0.721c0.157-0.48,0.237-1.051,0.237-1.712V35.476
		L27.39,76.569c0.146,0.541,0.348,0.811,0.599,0.811h2.844c0.231,0,0.426-0.239,0.585-0.721
		C31.575,76.179,31.655,75.609,31.655,74.947z"/>
</g>
</svg>
